<svg id="Layer_1" data-name="Layer 1" xmlns="http://www.w3.org/2000/svg" viewBox="0 0 300 60"><defs><style>.cls-1{fill:#fff;}</style></defs><title>Boatsetter-Logo-White</title><path class="cls-1" d="M44.69,57a27,27,0,1,1,27-27h0A27,27,0,0,1,44.69,57Zm0-50.38A23.38,23.38,0,1,0,68.07,30h0A23.55,23.55,0,0,0,44.69,6.62Z"/><path class="cls-1" d="M57.1,39.72a10.32,10.32,0,0,1-7.55-3.2l-.1-.21a6.74,6.74,0,0,0-9.62,0h0l-.11.1a10.45,10.45,0,0,1-14.79.31l-.31-.31a6.8,6.8,0,0,0-5-2.07V30.62a10.33,10.33,0,0,1,7.55,3.21,6.83,6.83,0,0,0,9.62.2l.1-.1.1-.1a10.49,10.49,0,0,1,14.9-.31l.31.31.1.1a6.75,6.75,0,0,0,9.63,0l.1-.1a10.1,10.1,0,0,1,7.55-3.21v3.62a7,7,0,0,0-5,2.07A9.63,9.63,0,0,1,57.1,39.72Z"/><path class="cls-1" d="M36.1,37.45A22.94,22.94,0,0,1,44.69,24a23.53,23.53,0,0,1,8.59,13.45H57A26.77,26.77,0,0,0,45.72,20.28l-1-.73-1,.73A26.77,26.77,0,0,0,32.38,37.45Z"/><path class="cls-1" d="M34.76,37.45A23.13,23.13,0,0,1,44.69,15a22.94,22.94,0,0,1,9.93,22.45h3.72A26.56,26.56,0,0,0,45.62,11.28l-.93-.62-.93.62A26.76,26.76,0,0,0,31,37.45Z"/><path class="cls-1" d="M87.93,10.76V26H88a5.39,5.39,0,0,1,1-1.14,5.6,5.6,0,0,1,1.55-1,8.42,8.42,0,0,1,4.66-1.13A10,10,0,0,1,102.83,26,11.6,11.6,0,0,1,105,29.59a10.67,10.67,0,0,1,.72,4.44,12.86,12.86,0,0,1-.72,4.45,9.61,9.61,0,0,1-2.07,3.62,11.05,11.05,0,0,1-3.31,2.49,10.72,10.72,0,0,1-4.45.93,9.16,9.16,0,0,1-4.34-1,7,7,0,0,1-3.11-2.89h-.1v3.2H82.45V10.66l5.48.1Zm12.41,23.17a6.94,6.94,0,0,0-.41-2.48,6.79,6.79,0,0,0-1.14-2.28,4.79,4.79,0,0,0-2-1.55A6.23,6.23,0,0,0,94,27a6.1,6.1,0,0,0-2.69.62,7,7,0,0,0-3.2,3.93,7.56,7.56,0,0,0,0,5,9.65,9.65,0,0,0,1.24,2.27,5.74,5.74,0,0,0,2,1.55,6.12,6.12,0,0,0,5.38,0,6,6,0,0,0,2-1.65,6.69,6.69,0,0,0,1.14-2.28,4.89,4.89,0,0,0,.51-2.48Z"/><path class="cls-1" d="M107.79,33.93a12,12,0,0,1,.93-4.65,12.3,12.3,0,0,1,2.49-3.62,10.6,10.6,0,0,1,3.72-2.28,14,14,0,0,1,9.21,0,10.49,10.49,0,0,1,6.2,5.9,11.85,11.85,0,0,1,.94,4.65,11.55,11.55,0,0,1-.94,4.66,12.53,12.53,0,0,1-2.48,3.62,11,11,0,0,1-3.72,2.38,12.93,12.93,0,0,1-9.21,0,11,11,0,0,1-3.72-2.38,10.86,10.86,0,0,1-2.49-3.62A11.72,11.72,0,0,1,107.79,33.93Zm5.49,0a6.91,6.91,0,0,0,.41,2.48,6.69,6.69,0,0,0,1.14,2.28,5.09,5.09,0,0,0,2,1.65,6.59,6.59,0,0,0,5.59,0,5.94,5.94,0,0,0,2-1.65,6.52,6.52,0,0,0,1.14-2.28,10.14,10.14,0,0,0,.42-2.48,7,7,0,0,0-.42-2.48,6.61,6.61,0,0,0-1.14-2.28,4.79,4.79,0,0,0-2-1.55,6.59,6.59,0,0,0-5.59,0,7.11,7.11,0,0,0-2,1.55,5.9,5.9,0,0,0-1.14,2.28A6.94,6.94,0,0,0,113.28,33.93Z"/><path class="cls-1" d="M147.72,42.1h0A7.17,7.17,0,0,1,145,44.48a9.33,9.33,0,0,1-4.13.93,11.08,11.08,0,0,1-2.69-.31A7.3,7.3,0,0,1,135.62,44a6.26,6.26,0,0,1-2-2.07,6.69,6.69,0,0,1-.83-3.21,5.5,5.5,0,0,1,1.34-3.93,8.28,8.28,0,0,1,3.52-2.17,19.83,19.83,0,0,1,4.76-1,43.48,43.48,0,0,1,5.17-.21v-.51a3.31,3.31,0,0,0-1.45-3,5.93,5.93,0,0,0-3.51-.93,7.37,7.37,0,0,0-3.32.72,8.75,8.75,0,0,0-2.58,1.76L134,26.07a12,12,0,0,1,4.24-2.59,15.63,15.63,0,0,1,4.86-.82,10.7,10.7,0,0,1,4.76.82,7.54,7.54,0,0,1,3,2.07,7.91,7.91,0,0,1,1.55,2.9,11.36,11.36,0,0,1,.41,3.21V44.9h-5l-.11-2.8Zm-.1-7.13h-1.24c-.83,0-1.76,0-2.79.1a12.17,12.17,0,0,0-2.69.52,5.37,5.37,0,0,0-2.07,1,2.65,2.65,0,0,0-.83,2,2.43,2.43,0,0,0,.31,1.24,2.53,2.53,0,0,0,.93.83,3.07,3.07,0,0,0,1.24.41,6.14,6.14,0,0,0,1.35.1,5.71,5.71,0,0,0,4.24-1.45,5.44,5.44,0,0,0,1.45-4l.1-.72Z"/><path class="cls-1" d="M154.55,27.62V23.28h3.83V17h5.28v6.31H169v4.34h-5.37v10a4.72,4.72,0,0,0,.51,2.37,2.26,2.26,0,0,0,2.28.94,3.68,3.68,0,0,0,1.14-.11c.41-.1.72-.2,1.13-.31l.21,4.24a9.07,9.07,0,0,1-1.76.42,11.6,11.6,0,0,1-1.86.1,10.19,10.19,0,0,1-3.52-.62A5.55,5.55,0,0,1,159.62,43a6.46,6.46,0,0,1-1-2.48,13.8,13.8,0,0,1-.31-3V27.41h-3.73Z"/><path class="cls-1" d="M185.28,29a6,6,0,0,0-2-1.66,5.1,5.1,0,0,0-2.79-.72,6.11,6.11,0,0,0-2.38.51,1.68,1.68,0,0,0-1,1.76,1.7,1.7,0,0,0,1.24,1.76,20.44,20.44,0,0,0,3.52,1,20.52,20.52,0,0,1,2.48.72,14.7,14.7,0,0,1,2.28,1.14,5.76,5.76,0,0,1,1.66,1.86,6.1,6.1,0,0,1,.62,2.69,8.06,8.06,0,0,1-.73,3.41,7,7,0,0,1-2,2.28,7.36,7.36,0,0,1-2.9,1.24,19,19,0,0,1-3.41.41,14.09,14.09,0,0,1-5-.93A9.32,9.32,0,0,1,171,41.9l3.52-3.31a7.47,7.47,0,0,0,2.38,2,5.85,5.85,0,0,0,3.2.73,3.65,3.65,0,0,0,1.14-.11,4.6,4.6,0,0,0,1.14-.41,2.2,2.2,0,0,0,.83-.83,2.84,2.84,0,0,0,.31-1.24,2,2,0,0,0-1.24-2,17.28,17.28,0,0,0-3.73-1.13,21.62,21.62,0,0,1-2.38-.73,8.06,8.06,0,0,1-2.07-1.14A4,4,0,0,1,172.66,32a5.47,5.47,0,0,1-.52-2.59,6.45,6.45,0,0,1,.72-3.1,7.83,7.83,0,0,1,2-2.18,6.9,6.9,0,0,1,2.79-1.24,10.71,10.71,0,0,1,3.1-.41,13.58,13.58,0,0,1,4.56.83,8.34,8.34,0,0,1,3.51,2.48Z"/><path class="cls-1" d="M212.59,34.34v1.45H196.14a5.79,5.79,0,0,0,.62,2.18,5.29,5.29,0,0,0,1.34,1.65,7.33,7.33,0,0,0,2,1.14,5.55,5.55,0,0,0,2.27.41,7.79,7.79,0,0,0,3.42-.72A6.24,6.24,0,0,0,208,38.38l3.63,2.9a11,11,0,0,1-9.32,4.34,12,12,0,0,1-4.65-.83,10.08,10.08,0,0,1-3.62-2.27A12.07,12.07,0,0,1,191.59,39a12.65,12.65,0,0,1,0-9.52,10.41,10.41,0,0,1,6-6,13.76,13.76,0,0,1,4.55-.82,11.22,11.22,0,0,1,4.14.72,10.28,10.28,0,0,1,3.31,2.17,10.15,10.15,0,0,1,2.17,3.62A17.42,17.42,0,0,1,212.59,34.34Zm-5.38-2.48a6.19,6.19,0,0,0-.31-2,4.79,4.79,0,0,0-2.49-2.8,5.52,5.52,0,0,0-2.27-.41A6.52,6.52,0,0,0,198,28.14a5.18,5.18,0,0,0-1.86,3.72Z"/><path class="cls-1" d="M213.1,27.62V23.28h3.83V17h5.28v6.31h5.38v4.34h-5.38v10a4.72,4.72,0,0,0,.51,2.37A2.26,2.26,0,0,0,225,41a3.68,3.68,0,0,0,1.14-.11c.41-.1.72-.2,1.14-.31l.2,4.24a8.9,8.9,0,0,1-1.76.42,11.6,11.6,0,0,1-1.86.1,10.19,10.19,0,0,1-3.52-.62A5.55,5.55,0,0,1,218.17,43a6.62,6.62,0,0,1-1-2.48,13.8,13.8,0,0,1-.31-3V27.41H213.1Z"/><path class="cls-1" d="M227.59,27.62V23.28h3.82V17h5.38v6.31h5.38v4.34h-5.38v10a4.73,4.73,0,0,0,.52,2.37,2.26,2.26,0,0,0,2.28.94,3.62,3.62,0,0,0,1.13-.11c.42-.1.73-.2,1.14-.31l.21,4.24a9.07,9.07,0,0,1-1.76.42,11.6,11.6,0,0,1-1.86.1,10.19,10.19,0,0,1-3.52-.62A5.48,5.48,0,0,1,232.76,43a6.63,6.63,0,0,1-1-2.48,14.45,14.45,0,0,1-.31-3V27.41h-3.82Z"/><path class="cls-1" d="M266.17,34.34v1.45H249.62a5.54,5.54,0,0,0,2,3.83,7.44,7.44,0,0,0,2,1.14,5.6,5.6,0,0,0,2.28.41,7.72,7.72,0,0,0,3.41-.72,6.35,6.35,0,0,0,2.28-2.07l3.62,2.9a11,11,0,0,1-9.31,4.34,12,12,0,0,1-4.66-.83,10.26,10.26,0,0,1-3.62-2.27A12.26,12.26,0,0,1,245.07,39a12.65,12.65,0,0,1,0-9.52,10.41,10.41,0,0,1,6-6,13.81,13.81,0,0,1,4.55-.82,11.22,11.22,0,0,1,4.14.72,10.28,10.28,0,0,1,3.31,2.17,10,10,0,0,1,2.17,3.62A14.81,14.81,0,0,1,266.17,34.34Zm-5.48-2.48a5.92,5.92,0,0,0-.31-2,4.78,4.78,0,0,0-2.48-2.8,5.6,5.6,0,0,0-2.28-.41,6.52,6.52,0,0,0-4.14,1.45,5.18,5.18,0,0,0-1.86,3.72Z"/><path class="cls-1" d="M269.38,23.28h5.17v3.51h.11a8,8,0,0,1,2.48-3.1A5.77,5.77,0,0,1,281,22.55h.72a1.24,1.24,0,0,1,.62.11v5c-.31-.1-.62-.1-.93-.21h-.72a7.46,7.46,0,0,0-3,.62,4.54,4.54,0,0,0-1.76,1.66,6.49,6.49,0,0,0-.83,2,8.14,8.14,0,0,0-.21,1.55V44.79h-5.38l-.1-21.51Z"/></svg>