<svg id="Layer_1" data-name="Layer 1" xmlns="http://www.w3.org/2000/svg" viewBox="0 0 300 60"><defs><style>.cls-1{fill:#fff;}</style></defs><title>1QBit-Logo-White</title><path class="cls-1" d="M195.94,8.85A5.73,5.73,0,0,1,201.87,3a5.79,5.79,0,0,1,6,5.85,5.73,5.73,0,0,1-6,5.77,5.66,5.66,0,0,1-5.93-5.77"/><path class="cls-1" d="M181.58,29.88v-.51a11.74,11.74,0,0,0,6.53-10.6c0-8.73-6-13.82-17.64-13.82H148.36a.87.87,0,0,0-.86.86V55a.87.87,0,0,0,.86.86h22.71c11.53,0,18.48-5.26,18.48-14.84,0-5.51-3-9.58-8-11.1M157.76,14.8a.85.85,0,0,1,.86-.86H170.3c4.33,0,7,2.29,7,6.19,0,3.39-2.88,6-7.2,6H158.62a.86.86,0,0,1-.86-.86Zm13.39,32H158.62a.85.85,0,0,1-.86-.86V35a.86.86,0,0,1,.86-.87h12.45c4.32,0,7.54,2.72,7.54,6.36,0,3.82-3.13,6.36-7.46,6.36"/><rect class="cls-1" x="196.7" y="20.21" width="10.17" height="35.61" rx="0.86"/><path class="cls-1" d="M77.08,5H62.42a.86.86,0,0,0-.85.86v7.27a.86.86,0,0,0,.85.86h5.27V55a.86.86,0,0,0,.86.86h8.53A.87.87,0,0,0,78,55V5.81A.87.87,0,0,0,77.08,5"/><path class="cls-1" d="M238.33,51.44l-2.2-4.55a.89.89,0,0,0-1.18-.43,17.26,17.26,0,0,1-5.73,1.47c-2.63,0-3.82-1.44-3.82-3.9V28.1h10a.86.86,0,0,0,.86-.87V21.07a.86.86,0,0,0-.86-.86h-10v-10a.87.87,0,0,0-.86-.86h-8.45a.87.87,0,0,0-.86.86V44.37c0,7.12,3.31,12.3,11.53,12.3,3.27,0,8.11-1.86,11.19-4a.94.94,0,0,0,.38-1.25"/><path class="cls-1" d="M119,39.55a10.92,10.92,0,0,0-1.91,6.18c0,.25,0,.5,0,.75A16.76,16.76,0,1,1,128.81,34.8c-.26,0-.52,0-.78,0a11,11,0,0,0-6.19,1.91l15.24,15.24a10.92,10.92,0,0,0,.37-11.76,26.56,26.56,0,1,0-15,15,11,11,0,0,0,11.77-.38Z"/></svg>