<svg id="Layer_1" data-name="Layer 1" xmlns="http://www.w3.org/2000/svg" viewBox="0 0 300 60"><defs><style>.cls-1{fill:#fff;}</style></defs><title>Giftbit-Logo-White</title><path class="cls-1" d="M124.21,13.61v.24a1.91,1.91,0,0,1-1.93,1.93h-1.69v7h3.62V42.54h8.67V23h3.86V16h-3.86v-2.9c0-3.13,1.93-3.37,3.86-3.37a4.7,4.7,0,0,1,1.93.24V4a8.27,8.27,0,0,0-4.1-.72C130.23,3.24,124.21,4,124.21,13.61Z"/><path class="cls-1" d="M96.48,19.63C95,17,91.42,15.29,88,15.29c-8,0-13.25,6-13.25,14S80.33,43,88,43a10.29,10.29,0,0,0,8.44-4.1v4.34c0,4.34-2.65,6.27-6.75,6.27-3.86,0-6.51-1.69-7.23-4.58H75c.24,6.26,4.58,12,14.7,12,10.37,0,15.43-5.06,15.43-14.22V16.26H96.48ZM90,36a6.54,6.54,0,0,1-6.51-6.75,6.51,6.51,0,1,1,13,0A6.54,6.54,0,0,1,90,36Z"/><path class="cls-1" d="M113.12,3a5.41,5.41,0,0,0-5.55,5.3,5.55,5.55,0,0,0,11.09,0A5.4,5.4,0,0,0,113.12,3Z"/><rect class="cls-1" x="108.78" y="16.02" width="8.68" height="26.76"/><path class="cls-1" d="M199.42,3a5.4,5.4,0,0,0-5.54,5.3A5.54,5.54,0,0,0,205,8.3C205.21,5.41,202.79,3,199.42,3Z"/><path class="cls-1" d="M222.8,36.27c-2.17,0-3.85-.73-3.85-4.58V23h6.26V16H219V7.1l-8.68,1v6h0A2.08,2.08,0,0,1,208.34,16h-1.69v7h3.62V33.86c0,8.92,5.54,9.4,9.64,9.4a25.61,25.61,0,0,0,5.06-.48V36.51A6,6,0,0,0,222.8,36.27Z"/><rect class="cls-1" x="194.6" y="16.02" width="9.4" height="26.76"/><path class="cls-1" d="M178.45,15.29A10.29,10.29,0,0,0,170,19.88V7.1l-8.68,1V42.78H170V38.92c1.2,2.41,4.82,4.34,8.44,4.34,8,0,13.26-6,13.26-14S186.16,15.29,178.45,15.29ZM176.52,36A6.54,6.54,0,0,1,170,29.28a6.51,6.51,0,1,1,13,0A6.54,6.54,0,0,1,176.52,36Z"/><path class="cls-1" d="M151.93,31.69V23h6.27V16h-6.27V7.1l-8.68,1v6h0A2.08,2.08,0,0,1,141.32,16h-1.69v7h3.62V33.86c0,8.92,5.54,9.4,9.64,9.4a25.81,25.81,0,0,0,5.07-.48V36.51h-2.42C153.62,36.27,151.93,35.79,151.93,31.69Z"/></svg>