<svg id="Layer_1" data-name="Layer 1" xmlns="http://www.w3.org/2000/svg" viewBox="0 0 300 60"><defs><style>.cls-1{fill:#fff;fill-rule:evenodd;}</style></defs><title>NeedWant-Logo-White</title><g id="Assets"><g id="Icons"><path id="logo" class="cls-1" d="M195.63,3V30.62h-.38l-14-23.68C179.44,4,177.66,3,174.11,3H160V30.62h-.35l-14-23.68C143.84,4,142.06,3,138.51,3H124.34V30.61H124l-14-23.68C108.14,4,106.37,3,102.82,3H88.71V57h15.66V26.14h.38l16.66,26.92a8.35,8.35,0,0,0,3,3.1h0a8.39,8.39,0,0,0,4.09.82h11.55V26.15h.38L157.1,53.07a8.56,8.56,0,0,0,2.9,3h0a8.29,8.29,0,0,0,4.2.88h11.46V26.15H176L192.7,53.07C194.55,56,196.25,57,199.8,57h11.49V3H195.63"/></g></g></svg>