<svg id="Layer_1" data-name="Layer 1" xmlns="http://www.w3.org/2000/svg" viewBox="0 0 300 60"><defs><style>.cls-1{fill:#fff;}</style></defs><title>ThriveDigital-Logo-White</title><path class="cls-1" d="M7.8,38.83,7.67,24.27l-4.61,0L3,17.9l4.62,0-.07-7.62,7.39-.06L15,17.8l5.66-.05.06,6.41-5.66.05.11,12.59c0,1.73.95,3.05,2.56,3A4.07,4.07,0,0,0,20.28,39l1.61,5.52c-1.09,1-3.05,1.82-6.11,1.85C10.64,46.42,7.85,43.79,7.8,38.83Z"/><path class="cls-1" d="M44.67,28.46c0-3.87-2.06-5.07-5.24-5a8.08,8.08,0,0,0-6.32,3.35l.16,18.76-7.33.07L25.6,7.08,32.94,7l.12,14.26a12.92,12.92,0,0,1,9.78-4.42c6.12-.05,9.09,3.27,9.14,8.7l.18,19.81-7.34.06Z"/><path class="cls-1" d="M59.19,17.41l7.33-.06,0,3.81a12,12,0,0,1,8.86-4.52l.06,7.16a9.7,9.7,0,0,0-2-.22C71,23.61,67.8,25,66.6,26.82l.16,18.42-7.33.07Z"/><path class="cls-1" d="M79.16,9.27a4.39,4.39,0,1,1,8.77-.08,4.39,4.39,0,1,1-8.77.08Zm.82,8,7.33-.06.24,27.89-7.33.06Z"/><path class="cls-1" d="M90.6,17.14l7.85-.07,7.45,19.34L113,17l7.91-.07-11,28-7.91.07Z"/><path class="cls-1" d="M136.85,16c8.32-.07,14,6.12,14.11,15.24V32.9l-20.73.18c.5,3.52,3.35,6.44,8.08,6.4a11.38,11.38,0,0,0,7.43-2.84L149,41.35c-2.75,2.56-7.13,3.93-11.46,4-8.49.07-14.95-5.59-15-14.54C122.47,22.69,128.36,16.12,136.85,16Zm-6.77,12.08L143.83,28a6.46,6.46,0,0,0-6.93-6.12A6.71,6.71,0,0,0,130.08,28.12Z"/><path class="cls-1" d="M177.94,39.83a11.87,11.87,0,0,1-9.65,5.22c-7.39.06-12.52-5.55-12.6-14.5S160.64,15.84,168,15.77a11.85,11.85,0,0,1,9.75,5.12l-.13-15.13,3.06,0,.34,38.51-3.07,0Zm-.14-16.35a11.17,11.17,0,0,0-9.22-5c-6.18.06-9.72,5.29-9.66,12s3.69,11.87,9.86,11.81a11.17,11.17,0,0,0,9.14-5Z"/><path class="cls-1" d="M189.29,9.35A2.35,2.35,0,0,1,191.58,7a2.31,2.31,0,0,1,0,4.62A2.36,2.36,0,0,1,189.29,9.35Zm.87,6.92,3,0,.24,27.89-3,0Z"/><path class="cls-1" d="M204.59,48.83c2.45,2.87,5.11,3.89,9.27,3.85,5.08,0,9.51-2.62,9.45-9l0-4.39a12.07,12.07,0,0,1-9.65,5.28c-7.39.06-12.52-5.49-12.6-14.44S206,15.44,213.36,15.38a11.81,11.81,0,0,1,9.75,5.11l0-4.5,3.06,0,.24,27.6c.08,8.55-5.67,11.66-12.49,11.72-4.67,0-7.68-.8-11-4.12Zm18.54-25.74a11.19,11.19,0,0,0-9.22-5c-6.18.05-9.72,5.22-9.66,12s3.68,11.81,9.86,11.75a11.21,11.21,0,0,0,9.14-5.16Z"/><path class="cls-1" d="M234.56,9a2.36,2.36,0,0,1,2.29-2.33,2.31,2.31,0,1,1,0,4.62A2.36,2.36,0,0,1,234.56,9Zm.87,6.92,3,0,.25,27.89-3,0Z"/><path class="cls-1" d="M248.56,38.29l-.17-19.87-4.62,0,0-2.65,4.62,0-.07-7.63,3.06,0,.07,7.62,5.65-.05,0,2.66-5.66,0,.17,19.4c0,2.25.95,3.8,2.92,3.79a4.39,4.39,0,0,0,3.11-1.36l1.17,2.3a6.27,6.27,0,0,1-4.72,1.77C250.4,44.34,248.59,42.1,248.56,38.29Z"/><path class="cls-1" d="M281.61,40.08a12.2,12.2,0,0,1-9.44,4.07c-4.79,0-9.78-3.21-9.84-9.22s4.83-9.28,9.68-9.32a12.09,12.09,0,0,1,9.51,3.9l0-5.66c0-4.16-3.41-6.38-7.57-6.34a10.85,10.85,0,0,0-8.68,4.17l-1.69-2.06a13.55,13.55,0,0,1,10.7-4.77c5.66,0,10.19,2.62,10.24,8.86l.17,19.63-3,0Zm-.07-8.32A10.49,10.49,0,0,0,273.07,28c-4.62,0-7.59,3-7.56,7s3.06,6.85,7.68,6.81a10.43,10.43,0,0,0,8.4-3.89Z"/><path class="cls-1" d="M293.66,4.75l3,0L297,43.24l-3,0Z"/></svg>