<svg id="Layer_1" data-name="Layer 1" xmlns="http://www.w3.org/2000/svg" viewBox="0 0 300 60"><defs><style>.cls-1{fill:#fff;}</style></defs><title>StandardCognition-Logo-White</title><path class="cls-1" d="M3,6.33V53.67H18.93V50.23H7V9.77H18.78V6.33ZM27.54,44.06l2.72-3.3c4,3.73,8,5.6,13.49,5.6s8.75-2.87,8.75-6.75v-.14c0-3.73-2-5.74-10.19-7.6-9-2-13.2-5-13.2-11.48h0c0-6.32,5.46-10.91,12.92-10.91A20.67,20.67,0,0,1,55.8,14.36L53.08,17.8a17.06,17.06,0,0,0-11.34-4.3c-5,0-8.32,2.87-8.32,6.46v.14c0,3.73,2,5.88,10.62,7.75S56.81,33,56.81,39.18v.15c0,6.88-5.6,11.33-13.35,11.33a23.31,23.31,0,0,1-15.92-6.6M64,35.31h0c0-8.47,6.31-15.5,14.78-15.5a14.71,14.71,0,0,1,11.62,5.31l-2.87,3c-2.29-2.43-4.88-4.44-8.75-4.44-5.88,0-10.33,5-10.33,11.33v.15c0,6.31,4.59,11.47,10.62,11.47,3.73,0,6.6-1.86,8.89-4.44l2.73,2.58c-2.87,3.3-6.31,5.74-11.77,5.74C70.29,50.66,64,43.63,64,35.31M98.42,50.23h11.91V9.77H98.42V6.33h16.07V53.67H98.42Zm27.4-26.69L127.11,22a8.88,8.88,0,0,0,6.6,2.73c2.59,0,4.31-1.43,4.31-3.3h0c0-1.86-1-2.87-5-3.73-4.45-1-6.46-2.44-6.46-5.6h0c0-3,2.73-5.3,6.31-5.3a9.77,9.77,0,0,1,6.75,2.43l-1.15,1.44a8.55,8.55,0,0,0-5.6-2.15c-2.44,0-4.16,1.43-4.16,3.15h0c0,1.87,1,2.87,5.17,3.88s6.31,2.58,6.31,5.59h0c0,3.3-2.72,5.6-6.6,5.6a11,11,0,0,1-7.75-3.16M150.65,8.91h-6.46v-2H159.4v2h-6.46v17.5h-2.15Zm23.81,10.33L170,9.19l-4.45,10Zm-5.3-12.48h2l8.76,19.8h-2.3l-2.29-5.17H164.85l-2.3,5.17h-2.29l8.9-19.8Zm15.92.14h2l12.2,15.78V6.9h2.15V26.41h-1.72L187.23,10.34V26.41h-2.15Zm25.4,2V24.4h4.45c4.88,0,8-3.3,8-7.74h0c0-4.31-3.15-7.75-8-7.75Zm-2.15-2h6.74c6,0,10.19,4.3,10.19,9.76h0c0,5.45-4.16,9.75-10.19,9.75h-6.74Zm33.72,12.34-4.45-10-4.45,10ZM236.59,6.76h2l8.75,19.8h-2.29l-2.3-5.17H232.29L230,26.56H227.7Zm23.53,10c2.87,0,5-1.58,5-4h0c0-2.44-1.87-3.87-4.88-3.87h-5.88V16.8Zm-8-9.9h8.32a7.24,7.24,0,0,1,5.45,2,5.16,5.16,0,0,1,1.44,3.87h0c0,3.3-2.15,5.17-5.17,5.74l5.89,8h-2.73l-5.45-7.75h-5.45v7.6h-2.16L252.09,6.9Zm23.39,2V24.4h4.45c4.87,0,8-3.3,8-7.74h0a7.61,7.61,0,0,0-8-7.75Zm-2.15-2h6.74c6,0,10.19,4.3,10.19,9.76h0c0,5.45-4.16,9.75-10.19,9.75h-6.74ZM125.82,43.63h0c0-5.59,4-10.19,9.76-10.19A9.76,9.76,0,0,1,143,36.6l-1.43,1.58a8.23,8.23,0,0,0-6-2.73c-4.3,0-7.46,3.59-7.46,8h0c0,4.59,3.16,8,7.46,8a7.89,7.89,0,0,0,6.17-2.87l1.43,1.44a9.79,9.79,0,0,1-17.36-6.46m39.32,0h0c0-4.45-3.16-8.18-7.61-8.18s-7.6,3.59-7.6,8h0c0,4.45,3.15,8,7.6,8a7.55,7.55,0,0,0,7.61-7.89m-17.36,0h0a9.89,9.89,0,0,1,9.9-10.19,9.74,9.74,0,0,1,9.75,10.05h0a9.88,9.88,0,0,1-9.9,10.18,9.73,9.73,0,0,1-9.75-10m24.24,0h0c0-5.45,3.88-10.19,9.62-10.19A10.12,10.12,0,0,1,188.81,36l-1.43,1.72a8.23,8.23,0,0,0-5.89-2.3c-4.3,0-7.31,3.73-7.31,8h0c0,4.73,3,8.18,7.6,8.18a8.83,8.83,0,0,0,5.6-2V44.78h-5.89v-2h7.9v7.89a11.89,11.89,0,0,1-7.75,3c-5.88,0-9.62-4.44-9.62-10m23.82-9.9h2l12.2,15.78V33.73h2.15V53.39h-1.72L198,37.32V53.39h-2.16Zm23.25,19.66h2.15V33.73h-2.15Zm14.35-17.65H227v-2h15.21v2h-6.46v17.5h-2.15V35.74Zm13.77,17.65h2.15V33.73h-2.15Zm25.54-9.76h0c0-4.45-3.16-8.18-7.6-8.18s-7.61,3.59-7.61,8h0c0,4.45,3.16,8,7.61,8a7.54,7.54,0,0,0,7.6-7.89m-17.36,0h0a9.9,9.9,0,0,1,9.9-10.19,9.75,9.75,0,0,1,9.76,10.05h0a9.89,9.89,0,0,1-9.9,10.18,9.73,9.73,0,0,1-9.76-10m25.25-9.9h2l12.2,15.78V33.73H297V53.39h-1.72L282.8,37.32V53.39h-2.16Z"/></svg>