<svg id="Layer_1" data-name="Layer 1" xmlns="http://www.w3.org/2000/svg" viewBox="0 0 300 60"><defs><style>.cls-1{fill:#fff;fill-rule:evenodd;}</style></defs><title>Pitch-Logo-White</title><path class="cls-1" d="M118.11,16c-4,0-6.94-2.74-6.94-6.46A6.6,6.6,0,0,1,118.11,3a7.46,7.46,0,0,1,4.06,1.15,6.35,6.35,0,0,1,3,5.38C125.12,13.25,122.08,16,118.11,16ZM66.75,56.21V6H85.94c13.83,0,20.26,6.11,20.26,16.79v.28c0,10.54-7.13,16.23-19.62,16.23H81.15V56.21Zm14.4-26.77h4.16c4.66,0,7.13-2.18,7.13-6.32v-.28c0-4.29-2.54-6-7.06-6H81.15Zm30.66-9.94V56.21h12.67V19.5Zm19.28,24.85C131.09,53,135.73,57,144,57a24.69,24.69,0,0,0,6.75-1V46.39a11.45,11.45,0,0,1-1.38.43,8.94,8.94,0,0,1-2,.2,4.05,4.05,0,0,1-2.42-.65,3.68,3.68,0,0,1-1.3-3.22V28h7.24V19.5h-7.24V11.74H131.09V44.35ZM173.31,57c-11,0-19.35-6.38-19.35-18.73v-.56c0-12.21,8.8-19.22,19.63-19.22,9,0,17.31,3.92,18,15.08H179.79c-.57-3.44-2.26-5.33-5.91-5.33-4.44,0-7,3.15-7,9.33v.56c0,6.17,2.6,9.68,7,9.68,3.65,0,5.34-2.11,5.81-6.1h11.93C191.26,51,185.2,57,173.31,57ZM196.4,6V56.21H209V35.66c0-4.7,2.54-6.95,6.28-6.95s5.3,2,5.3,6.18V56.21h12.63V32.36c0-9.4-4.94-13.81-12.07-13.81C215,18.55,211,21.63,209,25.42V6Z"/></svg>