<svg id="Layer_1" data-name="Layer 1" xmlns="http://www.w3.org/2000/svg" viewBox="0 0 300 60"><defs><style>.cls-1{fill:#fff;}</style></defs><title>Superhuman-Logo-White</title><path class="cls-1" d="M12.62,28.75C17.68,29.85,20,31.7,20,35.2c0,3.92-3.24,6.45-7.74,6.45A13.27,13.27,0,0,1,3,38l1.59-1.88a10.78,10.78,0,0,0,7.77,3.21c3.05,0,5.06-1.59,5.06-3.89,0-2.14-1.14-3.34-5.9-4.34C6.31,30,3.91,28.3,3.91,24.54s3.14-6.22,7.45-6.22a11.83,11.83,0,0,1,8,2.79l-1.49,2a10,10,0,0,0-6.55-2.46c-2.94,0-4.82,1.62-4.82,3.69S7.63,27.68,12.62,28.75Z"/><path class="cls-1" d="M50.24,31.64c0,6.61-3.79,10-9.46,10s-9.43-3.43-9.43-9.85V18.64h2.56v13c0,4.89,2.59,7.65,6.93,7.65,4.18,0,6.84-2.53,6.84-7.49V18.64h2.56Z"/><path class="cls-1" d="M70.84,33.32H65.33v8H62.77V18.64h8.49c5.12,0,8.49,2.72,8.49,7.23C79.75,30.79,75.67,33.32,70.84,33.32ZM71.07,21H65.33V31h5.61c3.75,0,6.22-2,6.22-5C77.16,22.69,74.73,21,71.07,21Z"/><path class="cls-1" d="M107.29,21H93.45v7.74h12.38v2.33H93.45V39h14v2.33H90.89V18.64h16.4Z"/><path class="cls-1" d="M134.69,41.32l-6.57-8.81h-6.48v8.81h-2.56V18.64h9.75c5,0,8.2,2.69,8.2,6.78,0,3.79-2.59,6-6.16,6.64l7,9.26ZM128.64,21h-7v9.2h7c3.41,0,5.84-1.75,5.84-4.7S132.3,21,128.64,21Z"/><path class="cls-1" d="M151.54,31.12v10.2H149V18.64h2.56V28.72h13.09V18.64h2.56V41.32h-2.56V31.12Z"/><path class="cls-1" d="M198.61,31.64c0,6.61-3.79,10-9.46,10s-9.43-3.43-9.43-9.85V18.64h2.56v13c0,4.89,2.59,7.65,6.94,7.65,4.18,0,6.83-2.53,6.83-7.49V18.64h2.56Z"/><path class="cls-1" d="M222,35.1h-.13L213.64,23V41.32h-2.49V18.64h2.59L222,31l8.26-12.38h2.6V41.32H230.3V23Z"/><path class="cls-1" d="M266.87,41.32h-2.75l-2.66-6H249.12l-2.69,6H243.8l10.34-22.84h2.4ZM255.3,21.46,250.12,33h10.34Z"/><path class="cls-1" d="M294.5,18.64H297V41.32h-2L280.31,22.73V41.32h-2.49V18.64h2.4L294.5,36.82Z"/></svg>