<svg id="Layer_1" data-name="Layer 1" xmlns="http://www.w3.org/2000/svg" viewBox="0 0 300 60"><defs><style>.cls-1{fill:#fff;}</style></defs><title>SpaceX-Logo-White</title><path class="cls-1" d="M71.52,25.29H46.66l-.92.68V48.09h6.88V39.8l.66-.59H71.52c4.61,0,6.77-1.24,6.77-4.42V29.71c0-3.18-2.16-4.42-6.77-4.42m0,8.17c0,1.5-1,1.81-3.15,1.81h-15l-.73-.71V29.82l.66-.6H68.37c2.16,0,3.15.31,3.15,1.81Z"/><polyline class="cls-1" points="90.83 29.47 96.76 38.15 96.43 38.98 83.33 38.98 79.99 43.1 99.48 43.1 100.83 43.92 103.86 48.09 111.74 48.09 94.47 25"/><polyline class="cls-1" points="169.15 43.6 169.15 37.47 169.85 36.85 183.03 36.85 183.03 32.94 162.15 32.94 162.15 48.09 192.95 48.09 192.95 44.2 169.88 44.2"/><rect class="cls-1" x="162.15" y="25.29" width="31.13" height="4.3"/><path class="cls-1" d="M127.43,29.36h25.08c-.39-3.19-2.37-4.08-7.39-4.08h-18c-5.66,0-7.47,1.11-7.47,5.39v12c0,4.29,1.81,5.39,7.47,5.39h18c5.09,0,7-1,7.18-4.26H127.43l-.74-.69V29.82"/><path class="cls-1" d="M29,34.17H10.76l-.54-.59v-3.9l.54-.42H35.35l.34-.82c-.84-2.15-3-3.16-7-3.16H11.57c-5.66,0-7.47,1.11-7.47,5.39V33.2c0,4.29,1.81,5.39,7.47,5.39h18.2l.57.5v4.08l-.46.64H9.05v0H3.6s-.62.31-.6.46c.47,3,2.51,3.85,7.4,3.85H29c5.66,0,7.53-1.11,7.53-5.4V39.56c0-4.28-1.87-5.39-7.53-5.39"/><path class="cls-1" d="M212.85,25.19H202.62l-.56,1.06,11.37,8.29c2.16-1.25,4.5-2.51,7-3.76"/><path class="cls-1" d="M222,40.81l10,7.29h10.36l.43-1L227.89,36.21c-2,1.45-3.94,3-5.86,4.6"/><path class="cls-1" d="M211.33,48.08h-9.26l-.79-1.23c6.3-6.08,34.48-32.15,95.72-34.95,0,0-51.4,1.74-85.67,36.18"/></svg>