<svg id="Layer_1" data-name="Layer 1" xmlns="http://www.w3.org/2000/svg" viewBox="0 0 300 60"><defs><style>.cls-1{fill:#fff;}</style></defs><title>Waking Up-Logo-White</title><polygon class="cls-1" points="69.37 3.53 62.91 20.63 55.53 3.52 53.1 3.52 45.72 20.63 39.26 3.53 32.67 3.53 44.06 32.52 46.45 32.52 54.34 14.91 62.18 32.52 64.58 32.52 75.97 3.53 69.37 3.53"/><path class="cls-1" d="M79.64,28.76H91.51l1.61,3.76H99.5l-12.69-29H84.38l-12.73,29H78Zm5.93-14.64,3.83,9.76H81.75Z"/><polygon class="cls-1" points="126.58 3.53 119.51 3.53 108.43 17.02 108.43 3.53 102.5 3.53 102.5 32.52 108.43 32.52 108.43 17.42 120.85 32.52 128.02 32.52 115.46 17.2 126.58 3.53"/><rect class="cls-1" x="130.98" y="3.53" width="5.93" height="28.99"/><polygon class="cls-1" points="161.35 20.8 145.01 3.52 142.58 3.52 142.58 32.52 148.52 32.52 148.52 15.13 164.8 32.52 167.29 32.52 167.29 3.53 161.35 3.53 161.35 20.8"/><path class="cls-1" d="M200.65,16.63H186.72v5.14h8v2.37a9.15,9.15,0,0,1-7.65,3.61c-5.85,0-9.67-4.09-9.67-9.72s3.69-9.54,9.32-9.54a9.48,9.48,0,0,1,8.08,4.27L199,9.29A14.47,14.47,0,0,0,186.8,3c-8.74,0-15.51,6.51-15.51,15s6.81,15,15.51,15a15.7,15.7,0,0,0,13.85-7.87Z"/><path class="cls-1" d="M234.58,20.43c0,4.35-2.72,6.6-6.37,6.6s-6.37-2.25-6.37-6.6V3.52H215.9V20c0,7.78,5.23,12.53,12.31,12.53S240.52,27.77,240.52,20V3.52h-5.94Z"/><path class="cls-1" d="M256.87,3.53H246v29h5.93V22.3h5c6.11,0,10.46-3.83,10.46-9.41S263,3.53,256.87,3.53Zm0,13.58h-5V8.76h5c2.77,0,4.39,1.71,4.39,4.13S259.64,17.11,256.87,17.11Z"/><path class="cls-1" d="M88.43,47.55l-.94.71A3,3,0,0,0,85,46.89c-1,0-1.94.51-1.94,1.59s.77,1.36,1.76,1.84L86,50.9c1.59.76,2.55,1.58,2.55,3.05,0,1.84-1.5,3-3.53,3a4.58,4.58,0,0,1-4-2.35l1-.72a3.65,3.65,0,0,0,3,1.88c1.29,0,2.2-.72,2.2-1.83s-.74-1.41-1.82-1.92l-1.23-.58c-1.27-.61-2.47-1.39-2.47-2.93A3,3,0,0,1,85,45.7,4.06,4.06,0,0,1,88.43,47.55Z"/><path class="cls-1" d="M102.62,54.6H97.28l-.94,2.22H95L99.72,45.7h.48l4.74,11.12h-1.38ZM100,48.07l-2.19,5.37h4.38Z"/><path class="cls-1" d="M122,45.7V56.82h-1.3V49l-3.49,4.76h-.47l-3.51-4.78v7.88h-1.29V45.7h.46L117,52l4.59-6.33Z"/><path class="cls-1" d="M148.32,56.82H147V51.55h-6.13v5.27H139.6V45.88h1.29v4.51H147V45.88h1.3Z"/><path class="cls-1" d="M163,54.6h-5.34l-1,2.22h-1.35l4.74-11.12h.48l4.74,11.12h-1.38Zm-2.67-6.53-2.19,5.37h4.38Z"/><path class="cls-1" d="M179.36,56.82,176,52.23h-2.34v4.59h-1.29V45.88h3.84c2.16,0,3.5,1.32,3.5,3.16a3,3,0,0,1-2.29,3l3.48,4.74Zm-5.73-5.75h2.5a2,2,0,1,0,0-4h-2.5Z"/><path class="cls-1" d="M194.68,56.82l-3.4-4.59h-2.34v4.59h-1.29V45.88h3.85c2.15,0,3.49,1.32,3.49,3.16a3,3,0,0,1-2.28,3l3.48,4.74Zm-5.74-5.75h2.51a2,2,0,1,0,0-4h-2.51Z"/><path class="cls-1" d="M204.26,56.82H203V45.88h1.29Z"/><path class="cls-1" d="M218.86,47.55l-.94.71a3,3,0,0,0-2.51-1.37c-1,0-1.94.51-1.94,1.59s.77,1.36,1.76,1.84l1.21.58C218,51.66,219,52.48,219,54c0,1.84-1.5,3-3.53,3a4.58,4.58,0,0,1-4-2.35l1-.72a3.65,3.65,0,0,0,3,1.88c1.29,0,2.2-.72,2.2-1.83s-.74-1.41-1.82-1.92l-1.23-.58c-1.27-.61-2.47-1.39-2.47-2.93a3,3,0,0,1,3.3-2.85A4.06,4.06,0,0,1,218.86,47.55Z"/></svg>