<svg id="Layer_1" data-name="Layer 1" xmlns="http://www.w3.org/2000/svg" viewBox="0 0 300 60"><defs><style>.cls-1{fill:#fff;fill-rule:evenodd;}</style></defs><title>Buffer-Logo-White copy</title><path class="cls-1" d="M40.46,15.32,64.24,3,88.29,15.32,64.24,27.69Zm142.79,6V21c0-4.07,2.39-5.36,6.42-5.07V8.53C180,8,175.45,12.76,175.45,21v.29h-4.36v7.42h4.36V51.19h7.8V28.73h9V51.19H200V28.73h6.42V21.31H200V21c0-4.07,2.35-5.36,6.42-5.07V8.53C196.8,8,192.23,12.76,192.23,21v.29h-9Zm-54.52,8.13a10.31,10.31,0,0,0,4-8.38c0-7-5.71-11.77-12.88-11.77H103.19V51.1h18c7.34,0,13.21-4.94,13.21-12.11A10.85,10.85,0,0,0,128.73,29.44ZM119.88,17a4.4,4.4,0,0,1,4.53,4.61,4.45,4.45,0,0,1-4.53,4.61h-8.34V17Zm1.26,26.4h-9.6V33.59h9.6a4.93,4.93,0,0,1,0,9.85Zm37.58-22.17V37.4c0,5.2-2.85,7.42-6.67,7.42-3.52,0-6-2.1-6-6.16V21.27h-7.8V39.62c0,8,5,12.36,11.45,12.36,4.07,0,7.22-1.51,9-4.19v3.35h7.8V21.27Zm80.06,18.1H216c1.13,3.94,4.4,5.62,8.47,5.62a8.4,8.4,0,0,0,6.79-3l6.29,3.56c-2.81,4.07-7.34,6.41-13.16,6.41-10.15,0-16.57-6.87-16.57-15.79s6.46-15.8,16-15.8c8.93,0,15.31,7,15.31,15.8A18.37,18.37,0,0,1,238.78,39.37Zm-15-12c-4.2,0-7.05,2.22-7.93,6h15.44A7.32,7.32,0,0,0,223.77,27.39Zm26.59-1V21.27h-7.8V51.15h7.8V36.86c0-6.29,5.12-8.09,9.18-7.59V20.68C255.73,20.68,251.91,22.36,250.36,26.42ZM64.24,48.83,48,40l-7.56,4.08L64.24,57,88.29,44.11,80.64,40ZM48,26.14l16.22,8,16.4-8,7.65,3.73L64.24,41.57,40.46,29.87Z"/></svg>