<svg id="Layer_1" data-name="Layer 1" xmlns="http://www.w3.org/2000/svg" viewBox="0 0 300 60"><defs><style>.cls-1{fill:#fff;}</style></defs><title>Argent-Logo-White</title><g id="Argent_Truncated_Logo" data-name="Argent Truncated Logo"><g id="Layer_1-2" data-name="Layer 1-2"><polyline class="cls-1" points="40.95 51.36 27.3 8.58 21.43 8.58 35.09 51.36"/><path class="cls-1" d="M6.5,51.36A3.51,3.51,0,1,0,3,47.86H3a3.5,3.5,0,0,0,3.5,3.5"/></g></g><g id="Argent_Primary_Logo" data-name="Argent Primary Logo"><g id="Layer_1-2-2" data-name="Layer 1-2"><path class="cls-1" d="M122.08,28.07H132c6.65,0,9.8-1.79,9.8-7.54s-3.33-7-9.8-7h-9.92ZM133,8.59c3.68,0,6.65.06,9.32,1.48,3.57,2,5.52,5.53,5.52,10.34,0,4.63-2,7.9-5.87,9.74,3.74,1.07,4.86,3.55,4.86,8,0,8.54,1.1,11.1,2.41,13.19h-6.64c-.86-1.37-1-3.33-1.17-5.89L141,39.83c-.42-6.35-2.15-6.83-9.51-6.83h-9.4V51.3h-5.75V8.59Z"/><polygon class="cls-1" points="193.61 8.58 224.07 8.58 224.07 13.87 199.37 13.87 199.37 26.64 222.17 26.64 222.17 31.63 199.37 31.63 199.37 45.95 224.55 45.95 224.55 51.29 193.61 51.29 193.61 8.58"/><path class="cls-1" d="M227.56,8.59h6.36l20,31a21.92,21.92,0,0,1,2,3.63V8.59h5.52V51.31h-6.3L234.72,19.82a15.78,15.78,0,0,1-1.59-3.15V51.3h-5.57Z"/><polygon class="cls-1" points="277.7 13.75 264.22 13.75 264.22 8.58 297 8.58 297 13.75 283.52 13.75 283.52 51.29 277.7 51.29 277.7 13.75"/><path class="cls-1" d="M149.4,29.89C149.22,18,158.49,7.83,170.07,8.06c10.75,0,17.58,5.46,19.72,14.25l-5.35,1.78c-1.78-7.3-6.53-10.9-14.31-10.9-8.26,0-15,7-15,16.73s6.11,16.89,15.31,16.89c7.9,0,12.36-6.59,13.07-11.82H164.7V29.86h25.45v21.5h-4.7V42c-3.26,6.46-8.13,9.9-15.68,9.9-11.58.18-20.55-9.76-20.37-22"/><polygon class="cls-1" points="80.51 51.38 74.65 51.38 88.3 8.59 94.17 8.59 80.51 51.38"/><polyline class="cls-1" points="113.68 51.38 100.03 8.59 94.17 8.59 107.82 51.38"/><rect class="cls-1" x="82.69" y="34.78" width="23.25" height="4.99"/></g></g></svg>