<svg id="Layer_1" data-name="Layer 1" xmlns="http://www.w3.org/2000/svg" viewBox="0 0 300 60"><defs><style>.cls-1{fill:#fff;}</style></defs><title>DesignerFund-Logo-White</title><path class="cls-1" d="M49.19,16H60.32c8.41,0,13.83,5.61,13.83,13.83,0,8.41-5.46,14.13-13.9,14.13H49.19ZM60,39.07c4.74,0,7.31-4.24,7.31-9.24s-2.42-8.94-7.23-8.94H55.85V39.11H60Z"/><path class="cls-1" d="M95,35.55H81.31a4.23,4.23,0,0,0,4.54,4.36,4.55,4.55,0,0,0,4.29-2.77l4.65,2.12c-1.59,3.22-4.92,5.15-9,5.15-6.52,0-10.46-3.75-10.46-10.11s3.87-10.53,10-10.53S95,27.37,95,33.62Zm-6.13-3.71c0-2.81-1.29-4.28-3.68-4.28s-3.82,1.66-3.9,4.47h7.58Z"/><path class="cls-1" d="M95.74,39.72,99.42,37a7,7,0,0,0,6.21,3.18c2,0,3.07-.64,3.07-1.74s-.65-1.63-2.81-1.93l-2.84-.38c-4.24-.64-6.25-2.73-6.25-6.06,0-3.83,3.22-6.21,8.68-6.21,4,0,7.31,1.44,8.94,3.9l-3.26,2.95A7.51,7.51,0,0,0,105.29,28c-1.9,0-2.77.53-2.77,1.63,0,.95.61,1.44,2.31,1.7l3.53.57c4.2.61,5.87,2.69,5.87,6.06,0,4-3.18,6.52-8.72,6.52C101.16,44.45,97.64,42.82,95.74,39.72Z"/><path class="cls-1" d="M116.35,15.7h6.59v5.76h-6.59Zm.07,8.56h6.33V44h-6.33Z"/><path class="cls-1" d="M143.89,25a4.2,4.2,0,0,0-2.58.72,5.84,5.84,0,0,1,2.27,4.7c0,4-3.4,6.7-9,6.7a12.22,12.22,0,0,1-4.06-.6,1.23,1.23,0,0,0-.6,1.06c0,1,.83,1.63,2.72,1.63h5.54c4.81,0,7.23,2,7.23,5.75,0,4.51-3.94,7.2-11.36,7.2-6.56,0-9.7-1.93-9.7-4.73,0-1.59,1.14-2.85,3.37-3.56a3.8,3.8,0,0,1-2.69-3.72c0-2.12,1.29-3.67,3.56-4.5a5.93,5.93,0,0,1-3.07-5.27c0-4,3.49-6.59,9-6.59a12.88,12.88,0,0,1,4.54.72c.69-2.2,2.62-3.6,5.72-3.6a6.19,6.19,0,0,1,.84,0v4.2A16.23,16.23,0,0,0,143.89,25ZM131.31,44.41c-.53,0-1,0-1.4-.07a2.37,2.37,0,0,0-.8,1.85c0,1.75,2,2.5,5.27,2.5,4.09,0,5.8-.91,5.8-2.31s-.88-1.89-2.66-1.89Zm6.36-14a3.06,3.06,0,1,0-6.09,0c0,2,1.21,3.48,3.06,3.48S137.67,32.44,137.67,30.4Z"/><path class="cls-1" d="M147.26,24.26h6.06v3.79a6.8,6.8,0,0,1,6.55-4.28c4.25,0,6.44,2.73,6.44,8V44H160V32.59c0-2.72-.94-4-3-4-2.2,0-3.41,1.7-3.41,4.73V44h-6.33V24.26Z"/><path class="cls-1" d="M188.06,35.55H174.38a4.23,4.23,0,0,0,4.55,4.36,4.55,4.55,0,0,0,4.28-2.77l4.66,2.12c-1.59,3.22-4.93,5.15-9,5.15-6.51,0-10.45-3.75-10.45-10.11s3.86-10.53,10-10.53,9.66,3.6,9.66,9.85Zm-6.14-3.71c0-2.81-1.29-4.28-3.67-4.28s-3.83,1.66-3.91,4.47h7.58Z"/><path class="cls-1" d="M202.79,23.81h.38v6a10.77,10.77,0,0,0-1.17,0A5.62,5.62,0,0,0,198.17,31c-1.25,1.17-1.59,3-1.59,5v8h-6.33V24.26h5.95v5.08C197.22,25.81,199.42,23.81,202.79,23.81Z"/><path class="cls-1" d="M222.15,21v6.48h11.78v5H222.15V44h-6.63V16h19.13v5Z"/><path class="cls-1" d="M235.67,37V24.26H242V35.93c0,2.42,1,3.71,2.84,3.71,2,0,3.3-1.63,3.3-4.09V24.26h6.32V44h-6v-3.6a6.31,6.31,0,0,1-6.14,4C237.64,44.45,235.67,41.65,235.67,37Z"/><path class="cls-1" d="M256.28,24.26h6.06v3.79a6.8,6.8,0,0,1,6.55-4.28c4.25,0,6.44,2.73,6.44,8V44H269V32.59c0-2.72-.94-4-3-4-2.2,0-3.41,1.7-3.41,4.73V44h-6.33V24.26Z"/><path class="cls-1" d="M276.92,34.22c0-6.25,3.3-10.41,8.22-10.41,2.62,0,4.59,1.06,5.57,3.1V15.4H297V44h-6V40.59a6.5,6.5,0,0,1-6.21,3.86C280.07,44.45,276.92,40.36,276.92,34.22Zm13.87.84V33.35c0-3.33-1.33-5.19-3.6-5.19s-3.79,2.12-3.79,5.91,1.44,6,3.86,6C289.42,40.06,290.79,38.16,290.79,35.06Z"/><path class="cls-1" d="M4.26,29.22a17.34,17.34,0,0,1,3.6-1.17,57.12,57.12,0,0,1,9.55-.49c0,1.51.07,3.44,0,5-4.29,0-7.13.42-10.16,2.42C3.65,37.44,2.9,41.31,3,44.45c.27,4.43,3.26,7.69,8,7.69,7.46,0,12.5-4.36,12.5-13.64,3.86,0,7.27-.15,9.47-1.32A5.64,5.64,0,0,0,35.7,30.4a14.54,14.54,0,0,1-4.43,1.66,34.61,34.61,0,0,1-7.73.69c0-.76-.07-4.36,0-5.12,6.74,0,10.53-2.35,12.31-5a12,12,0,0,0,2.09-7.69c-.27-3.44-2.92-7-8.07-7-7.84,0-12.39,5.26-12.39,14-4.17,0-8.22-.19-10.57,1.1A5.64,5.64,0,0,0,4.26,29.22ZM23.5,21.84c0-6.37,1.86-11.71,6.56-11.71,3.18,0,5.19,1.86,5.19,4.7C35.25,20,29.87,21.84,23.5,21.84ZM8.92,39.53c2.35-1.25,5-1.18,8.52-1.18,0,5.87-1.36,11.56-6.59,11.56-2.91,0-5.34-1.78-5.34-5.19A5.91,5.91,0,0,1,8.92,39.53Z"/></svg>