<svg id="Layer_1" data-name="Layer 1" xmlns="http://www.w3.org/2000/svg" viewBox="0 0 300 60"><defs><style>.cls-1{fill:#fff;}</style></defs><title>Girlboss-Logo-White</title><path class="cls-1" d="M86.06,3a4.33,4.33,0,1,1-4.41,4.3A4.27,4.27,0,0,1,86,3h.06m3.39,38.58H82.67V16.3h6.78Z"/><path class="cls-1" d="M115.31,22.29a11.84,11.84,0,0,0-2.43-.28,7.58,7.58,0,0,0-6.17,3.62v15.9H99.92V16.3h6.51v2.54a9.52,9.52,0,0,1,7.35-3.05,10.73,10.73,0,0,1,2.32.22Z"/><rect class="cls-1" x="123.85" y="4.59" width="6.79" height="37"/><path class="cls-1" d="M187.61,15.79A13.15,13.15,0,1,1,174.14,29a13.19,13.19,0,0,1,13.47-13.18m0,20a6.59,6.59,0,0,0,6.67-6.9,6.68,6.68,0,1,0-13.35,0,6.6,6.6,0,0,0,6.68,6.9"/><path class="cls-1" d="M210.18,33.83a10.39,10.39,0,0,0,7,2.49c1.81,0,3.22-.9,3.22-2.15,0-3.79-12.22-2.43-12.22-10.58,0-4.86,4.7-7.86,9.67-7.86a15.54,15.54,0,0,1,8.55,2.55l-3.17,4.92a8.45,8.45,0,0,0-4.87-1.7c-1.86,0-3.45.74-3.45,2,0,3.28,12.22,2,12.22,10.75,0,4.86-4.75,7.8-10.07,7.8a17.68,17.68,0,0,1-10.18-3.39Z"/><path class="cls-1" d="M236.48,33.83a10.39,10.39,0,0,0,6.91,2.49c1.81,0,3.22-.9,3.22-2.15,0-3.79-12.22-2.43-12.22-10.58,0-4.86,4.7-7.86,9.67-7.86a15.54,15.54,0,0,1,8.55,2.55l-3.17,4.92a8.45,8.45,0,0,0-4.87-1.7c-1.86,0-3.45.74-3.45,2,0,3.28,12.22,2,12.22,10.75,0,4.86-4.75,7.8-10.07,7.8a17.65,17.65,0,0,1-10.18-3.39Z"/><path class="cls-1" d="M66.2,28.85V29h0a6.53,6.53,0,1,1-2.54-5.2l3.22-5.94a13.08,13.08,0,1,0-.62,22.35V43.9h0v.17a6.58,6.58,0,0,1-12.67,2.55L48.16,49.9a13,13,0,0,0,24.66-6v-15Z"/><path class="cls-1" d="M153.78,15.79a14,14,0,0,0-5.89,1.3V4.59H141.1v37h6.51V39.83A10.72,10.72,0,0,0,153.78,42c7.69,0,13.46-5.66,13.46-13a13.23,13.23,0,0,0-13.46-13.23m0,20a6.6,6.6,0,0,1-6.68-6.9v-.73a6.66,6.66,0,0,1,13.29.73c0,3.85-2.65,6.9-6.61,6.9"/></svg>