<svg id="Layer_1" data-name="Layer 1" xmlns="http://www.w3.org/2000/svg" viewBox="0 0 300 60"><defs><style>.cls-1{fill:#fff;}</style></defs><title>Weconnect-Logo-White</title><path class="cls-1" d="M57.76,47.08A17.5,17.5,0,0,1,49,44.71l-6.64-3.8-6.55-3.76-1.32-.77a.77.77,0,0,1-.16-1.33,8.13,8.13,0,0,1,4.52-2,8.8,8.8,0,0,1,5.67,1.35c2.64,1.55,5.29,3.09,8,4.58a10.3,10.3,0,0,0,8.12,1,10.42,10.42,0,0,0,4.68-2.75,10.24,10.24,0,0,0,3-8.27,10.35,10.35,0,0,0-5-8.18,9,9,0,0,0-2.07-1,.85.85,0,0,1-.64-.88A18.62,18.62,0,0,0,60,15c-.13-.46-.28-.91-.42-1.37s.14-1,.78-.95a16.39,16.39,0,0,1,4.38,1.26,17.06,17.06,0,0,1,6.08,4.49,16.53,16.53,0,0,1,4,8.56,17.65,17.65,0,0,1-1.75,10.76,16.51,16.51,0,0,1-3.58,4.76,17,17,0,0,1-11.71,4.6Z"/><path class="cls-1" d="M56.36,12.07a17.47,17.47,0,0,1,2,8.85c-.08,2.55-.15,5.09-.22,7.64s-.15,5-.23,7.55c0,.51,0,1-.05,1.53a.78.78,0,0,1-1.1.77,8.08,8.08,0,0,1-3.92-3,8.76,8.76,0,0,1-1.48-5.63q.2-4.59.29-9.18a10.61,10.61,0,0,0-7.57-10.47,10.19,10.19,0,0,0-8.73,1.21,10.36,10.36,0,0,0-4.88,8.23,9.22,9.22,0,0,0,.1,2.29.86.86,0,0,1-.47,1A17.62,17.62,0,0,0,27,25.21c-.34.33-.67.68-1,1a.67.67,0,0,1-1.2-.24,15.86,15.86,0,0,1-1-4.46,17,17,0,0,1,1.09-7.48,16.54,16.54,0,0,1,5.68-7.52A17.65,17.65,0,0,1,40.9,3a16.37,16.37,0,0,1,5.88.91,16.83,16.83,0,0,1,4.35,2.21A17.26,17.26,0,0,1,56.36,12.07Z"/><path class="cls-1" d="M25.81,31.29a17.45,17.45,0,0,1,6.32-6.53c2.18-1.31,4.35-2.64,6.53-4l6.46-3.92,1.32-.78a.77.77,0,0,1,1.24.5,8.12,8.12,0,0,1-.42,4.94,8.75,8.75,0,0,1-3.93,4.3C40.7,27.4,38.07,29,35.47,30.59A10.62,10.62,0,0,0,30.8,42.64a10.22,10.22,0,0,0,5.76,6.67,10.36,10.36,0,0,0,9.56-.38A9.12,9.12,0,0,0,48,47.59a.85.85,0,0,1,1.08-.13,18.58,18.58,0,0,0,3.74,1.35c.46.11.94.2,1.4.3a.67.67,0,0,1,.46,1.14,16.16,16.16,0,0,1-3.23,3.22,17.1,17.1,0,0,1-6.87,3.15,16.57,16.57,0,0,1-9.4-.69,17.66,17.66,0,0,1-8.57-6.74,16.57,16.57,0,0,1-2.43-5.44,17.19,17.19,0,0,1-.51-4.84A17.38,17.38,0,0,1,25.81,31.29Z"/><path class="cls-1" d="M102.44,29.43,99.27,42.54H93.56l-6-20.93h6.05l3.17,14,3.58-14h4.14l3.58,14,3.13-14h6.09l-6,20.93h-5.71Z"/><path class="cls-1" d="M119,21.61h15.34v4.55H124.4v3.48h9.73v4.58H124.4V38h9.94v4.55H119Z"/><path class="cls-1" d="M146.77,22c4.12,0,6.61,1.79,7.94,3.62l-3.45,3.24A4.87,4.87,0,0,0,147,26.65c-3.2,0-5.45,2.33-5.45,5.82s2.25,5.87,5.45,5.87a5.06,5.06,0,0,0,4.24-2.16l3.45,3.2c-1.33,1.87-3.82,3.66-7.94,3.66a10.2,10.2,0,0,1-10.64-10.57C136.13,26.32,140.58,22,146.77,22Z"/><path class="cls-1" d="M155.21,32.47a10.63,10.63,0,0,1,21.25,0,10.63,10.63,0,0,1-21.25,0Zm15.76,0c0-3.11-1.87-5.82-5.15-5.82s-5.12,2.71-5.12,5.82,1.83,5.87,5.12,5.87S171,35.64,171,32.47Z"/><path class="cls-1" d="M192.27,30.4c0-2.79-1.46-3.75-3.71-3.75A5.74,5.74,0,0,0,184,29V42.54h-5.28V22.45H184v2.62A9.19,9.19,0,0,1,191,22c4.41,0,6.53,2.5,6.53,6.41V42.54h-5.28Z"/><path class="cls-1" d="M214.68,30.4c0-2.79-1.45-3.75-3.7-3.75A5.72,5.72,0,0,0,206.41,29V42.54h-5.29V22.45h5.29v2.62a9.17,9.17,0,0,1,7-3.12c4.41,0,6.53,2.5,6.53,6.41V42.54h-5.28Z"/><path class="cls-1" d="M232.65,22c6,0,10.06,4.49,10.06,11.07v1.16H227.78c.33,2.54,2.37,4.66,5.78,4.66a8.22,8.22,0,0,0,5.37-2l2.32,3.41A12.49,12.49,0,0,1,233,43c-6.11,0-10.73-4.12-10.73-10.57A10.22,10.22,0,0,1,232.65,22Zm-5,8.65h9.89a4.65,4.65,0,0,0-4.94-4.45A4.83,4.83,0,0,0,227.7,30.6Z"/><path class="cls-1" d="M254.23,22c4.12,0,6.61,1.79,7.94,3.62l-3.45,3.24a4.88,4.88,0,0,0-4.24-2.16c-3.2,0-5.45,2.33-5.45,5.82s2.25,5.87,5.45,5.87a5.07,5.07,0,0,0,4.24-2.16l3.45,3.2c-1.33,1.87-3.82,3.66-7.94,3.66-6.2,0-10.65-4.37-10.65-10.57S248,22,254.23,22Z"/><path class="cls-1" d="M266.25,37.55V27.07h-3.33V22.45h3.33V17h5.32v5.49h4.08v4.62h-4.08v9.06c0,1.25.66,2.21,1.83,2.21a2.89,2.89,0,0,0,1.83-.58l1.12,4A6.5,6.5,0,0,1,271.94,43C268.24,43,266.25,41.12,266.25,37.55Z"/></svg>