<svg id="Layer_1" data-name="Layer 1" xmlns="http://www.w3.org/2000/svg" viewBox="0 0 300 60"><defs><style>.cls-1{fill:#fff;}</style></defs><title>Flytographer-Logo-White</title><path class="cls-1" d="M123.7,17.13c-1.28,0-2.13.45-2.33,1.13a2.17,2.17,0,0,0,1,2.22,4.2,4.2,0,0,0,2.37.66,7.49,7.49,0,0,0,3-.72,7.86,7.86,0,0,0-.52-1,4.18,4.18,0,0,0-3.48-2.3h-.09M79.17,10.05a.3.3,0,0,0-.14.06c-.81.52-1.85,3-1.33,7.64.15,1.39.29,2.77.42,4.1a23.09,23.09,0,0,0,2-7.18c.27-2.79-.39-4.3-.87-4.59l-.06,0M208.05,5.9c-.87,0-2,1.37-2.56,4.43a55.38,55.38,0,0,0-.61,11.26c3.41-2.77,5.46-6.12,5.77-9.47.33-3.59-1.23-6-2.49-6.21h-.11M195.62,20.65a3.75,3.75,0,0,0-.92.13c-3.11.73-5.31,3.08-6.54,7a39.49,39.49,0,0,1,6.65-1.55,17.18,17.18,0,0,0,1.73-.37c.66-1.95.76-3.72.27-4.62-.11-.2-.33-.6-1.19-.6M66.76,8.93a.84.84,0,0,0-.27,0c-2,.65-4,8.44-3.87,19.91a28.56,28.56,0,0,0,2.27-2.27c6.57-7.35,5.33-13.84,3.76-16.25a2.73,2.73,0,0,0-1.89-1.43m161.48,9.26c-.62.41-1.86,2.75-2.25,6.18a15.27,15.27,0,0,0,.14,4.57,14.31,14.31,0,0,0,2.22-3.85c1.09-2.85,1.07-5.54,0-6.84l-.06-.06m-87,1.32a3.68,3.68,0,0,0-.82.1c-1.8.44-3.44,2.39-4.76,5.64-.86,2.14-.87,3.91,0,4.73a2,2,0,0,0,1.45.52,4,4,0,0,0,1.58-.37c2.24-1,4.82-4,5.36-9.68a5.28,5.28,0,0,0-2.78-.94M119.61,21.8c-.24,2.24-.37,6,1.13,8.09a3.71,3.71,0,0,0,3.31,1.55,4,4,0,0,0,3.64-2.19,9.86,9.86,0,0,0,.88-6,10.31,10.31,0,0,1-3.76.79,7,7,0,0,1-4.06-1.19,5.69,5.69,0,0,1-1.14-1.05m51.61.65c-2.68,0-4.38,2-5.06,6.05-.41,2.43-.07,3.21,0,3.38,1.33,0,4.94-3.54,5.66-7,.19-.9.36-1.67.53-2.28a5.84,5.84,0,0,0-1.15-.12m16.63,8.69a4.38,4.38,0,0,0,1,.84,3.14,3.14,0,0,0,1.57.44,4.61,4.61,0,0,0,3.1-1.56,10.75,10.75,0,0,0,1.4-1.69c-5.19.89-6.66,1.63-7.07,2m-91.4,6.94-.82,1.06c-3.93,5.17-3.71,9.31-2.2,11.45A3,3,0,0,0,95.63,52,.86.86,0,0,0,96,52c.58-.18.93-1,.93-2.32,0-2.46-.15-6.36-.43-11.58m48.84.42-.72,1.17c-3.67,5.88-3.14,10.24-1.58,12.19a2.27,2.27,0,0,0,1.58,1,.75.75,0,0,0,.26,0c.55-.19.91-1.17.91-2.49,0-2.54-.16-6.51-.45-11.81M67.51,57a3.23,3.23,0,0,1-.69-.07c-2.54-.56-4.37-4.08-5.44-10.45a121.3,121.3,0,0,1-1.44-12.39,8.87,8.87,0,0,1-3.39.72A6.86,6.86,0,0,1,55,34.65,8.51,8.51,0,0,1,49,29.15,1.45,1.45,0,0,1,50,27.33a1.31,1.31,0,0,1,.44-.07,1.45,1.45,0,0,1,1.38,1,5.68,5.68,0,0,0,3.8,3.54,4.7,4.7,0,0,0,.92.09,6.84,6.84,0,0,0,3.27-1c-.48-13.72,1.8-23.42,5.81-24.73A3.92,3.92,0,0,1,66.76,6a5.37,5.37,0,0,1,4.32,2.76c2.78,4.24,2.7,12.24-4,19.76a26.5,26.5,0,0,1-4.31,4A118.8,118.8,0,0,0,64.24,46c1.27,7.56,3.13,8.07,3.2,8.09h0c.24,0,.62-.26,1-.84,2-2.92,2.81-10.52-.79-17.22a9.59,9.59,0,0,1-1.73.19c-1.43,0-2.33-.5-2.67-1.48A2.68,2.68,0,0,1,65,31.64a3.34,3.34,0,0,1,1.48-.35A3,3,0,0,1,69,32.56a19.2,19.2,0,0,0,6.7-6.32c-.12-1-.23-2.18-.35-3.41l0-.47c-.13-1.38-.28-2.83-.44-4.29-.56-5.1.43-9,2.67-10.41a3.12,3.12,0,0,1,1.68-.52,3.05,3.05,0,0,1,1.59.46C82.52,8.69,83.34,11.36,83,15A28.19,28.19,0,0,1,78.65,27a30,30,0,0,0,1.1,6,8.53,8.53,0,0,0,1-1.48A26.49,26.49,0,0,0,83.61,25a46,46,0,0,1,.57-5.13,1.45,1.45,0,0,1,2.86,0,14.86,14.86,0,0,1-.54,5.53c-.16,3.53.2,6,1,7a.81.81,0,0,0,.7.34c1.51,0,3.21-2,4.67-5.53a29.88,29.88,0,0,0,2.23-9.37,1.46,1.46,0,0,1,1.43-1.4A1.49,1.49,0,0,1,98,17.79c.12,1.48.49,6.58.87,12.53,3.16-4,5.16-6.93,6.12-12.43,0-.75,0-1.52.06-2.27h-2.33a1.44,1.44,0,0,1-1.46-1.44,1.46,1.46,0,0,1,1.45-1.46h2.46c.19-3.86.46-7,.57-8.18a1.46,1.46,0,0,1,1.46-1.32,1.44,1.44,0,0,1,1.43,1.44c0,3.09,0,5.72-.19,8.05h5.23a1.45,1.45,0,1,1,0,2.9h-5.48c-.09.84-.19,1.62-.31,2.33-.15,8.67.49,14.7,1.65,15.39,2.25-.1,5.92-8.76,7.81-16.52a1.47,1.47,0,0,1,1.41-1.11,1.41,1.41,0,0,1,.35.05,1.58,1.58,0,0,1,.34.13,5.7,5.7,0,0,1,4.12-1.66h.19a6.94,6.94,0,0,1,6,3.7c.19.32.38.66.55,1l.1-.08c2.92-2.53,4.41-3.44,5.69-3.44a2.59,2.59,0,0,1,.48,0,3.24,3.24,0,0,1,2.16,1.67,6,6,0,0,1,1-.35,6.65,6.65,0,0,1,1.48-.17,7.19,7.19,0,0,1,2.92.63,1.45,1.45,0,0,1,1.37-1.06h.08a1.41,1.41,0,0,1,1.4,1.41c0,.65,0,1.32,0,2.12.12,1.71.36,5,.62,9a112,112,0,0,0,5-10.19l-.89-.94c-1.5-1.58-1-2.73-.67-3.15a2,2,0,0,1,1.69-.81,3,3,0,0,1,1.24.28,3.39,3.39,0,0,1,1.94,3.81c1.84,1.76,2.55,2,2.8,2h.07a2.6,2.6,0,0,1,.39-.05,1.58,1.58,0,0,1,1.29.65c.74,1,.15,2-1.62,4.92-1,1.6-3.16,5.21-3.3,6.55,1.27-.17,4.9-2.74,8.19-6.14l.12-.09h0c1.71-5.19,5.3-6,7.3-6a9.07,9.07,0,0,1,3.61.75l.24.14,0,0a2.19,2.19,0,0,1,.23.21.21.21,0,0,0,0,.06l.12.19,0,.09a1.65,1.65,0,0,1,.07.2l0,.06a1.53,1.53,0,0,1,0,.51.64.64,0,0,1,0,.07,1.13,1.13,0,0,1,0,.14c-.78,2.84-1.52,8-.17,9.58a1.25,1.25,0,0,0,1.08.44h.24c1.89-.16,3.91-1.43,5.68-3.57A16.58,16.58,0,0,0,184.12,26c.13-5.7.86-12.52,3.57-12.68h.11A1.72,1.72,0,0,1,189.48,15a19.37,19.37,0,0,1-.27,5.44A10.62,10.62,0,0,1,194,18a7.06,7.06,0,0,1,1.59-.2,4,4,0,0,1,3.72,2.1,7.47,7.47,0,0,1,.5,4.84A22.74,22.74,0,0,0,202,23.55a62.64,62.64,0,0,1,.6-13.74C203.72,3.89,206.5,3,208.06,3a4.07,4.07,0,0,1,.5,0c2.84.39,5.47,4,5,9.36-.43,4.69-3.53,9.31-8.49,12.7,0,.77.11,1.53.17,2.27a16,16,0,0,1,6.13-7.21,5.1,5.1,0,0,1,2.58-.88,3,3,0,0,1,1.25.28c1.93.91,2.27,3.5,2.68,6.49.56,4.24,1.09,6.13,2.73,6.13l.34,0a6.8,6.8,0,0,0,2.77-1,15.62,15.62,0,0,1-.63-6.76c.38-3.78,1.92-8.21,4.41-9a3.11,3.11,0,0,1,.8-.13,3,3,0,0,1,2.22,1.12c1.83,2.14,2.05,5.88.56,9.78a16.5,16.5,0,0,1-3.68,5.72,3.84,3.84,0,0,0,1.14,1,4.1,4.1,0,0,0,2,.58,3.62,3.62,0,0,0,2.06-.68c3.09-2,5.36-8.28,4.85-13.38,0-.21,0-.41-.06-.6a10.55,10.55,0,0,1-2.07-1.35,2.63,2.63,0,0,1-.53-3.15,2.33,2.33,0,0,1,2.05-1.32,3,3,0,0,1,.41,0c1.32.25,2.25,1.57,2.76,3.91,2.78,1.52,5.31,3.07,5.9,5.1a3,3,0,0,1-.28,2.33c-1.49,2.67-2.72,7.23-2,8.43,0,.07.11.18.46.18h.11a4.36,4.36,0,0,0,3.44-2.62,3.26,3.26,0,0,0,.43-2.07,1.34,1.34,0,0,1-.66-.8,1.44,1.44,0,0,1,1.39-1.88,1.49,1.49,0,0,1,.69.16c1.28.66,1.79,2.19,1.39,4.09-.6,2.78-3.09,5.84-6.53,6h-.23a3.33,3.33,0,0,1-3-1.55c-1.95-3.14,1-9.77,1.91-11.38a.09.09,0,0,0,0-.11c-.15-.54-1.06-1.32-2.69-2.32.08,5.14-2,12-6.22,14.7a6.72,6.72,0,0,1-3.65,1.16,7.15,7.15,0,0,1-3.43-.94,6.75,6.75,0,0,1-2-1.71A9.49,9.49,0,0,1,221.31,35a5.46,5.46,0,0,1-.79.06c-4.38,0-5.08-5.2-5.54-8.65-.16-1.21-.54-4-1-4.26a2.4,2.4,0,0,0-1.06.45c-4.43,2.76-5.68,7.41-6.35,9.91-.38,1.44-.68,2.56-1.91,2.68h-.14A1.46,1.46,0,0,1,203.05,34c-.05-.32-.48-3.23-.8-7.23a24.9,24.9,0,0,1-3.52,1.49,15.45,15.45,0,0,1-3.19,4.7,7.51,7.51,0,0,1-5.13,2.38,6.13,6.13,0,0,1-3.07-.85l-.13-.09a84,84,0,0,0,2.37,16.31,1.45,1.45,0,0,1-1,1.8,1.44,1.44,0,0,1-.4.06,1.46,1.46,0,0,1-1.4-1,84.12,84.12,0,0,1-2.43-16.12,1.36,1.36,0,0,1-.09-.41c0-.08,0-.5,0-1.16s-.09-1.8-.13-2.9a11.35,11.35,0,0,1-7.13,4l-.48,0a4.19,4.19,0,0,1-3.32-1.49,6.09,6.09,0,0,1-1.16-2.67c-1.52,2-3.8,4-5.87,4a2.78,2.78,0,0,1-2.19-1,5,5,0,0,1-.93-3.48c-2.28,2-5.39,4.32-7.72,4.32a2.74,2.74,0,0,1-1.54-.42c-2.73-1.76,0-6.2,2.59-10.49l.06-.1.82-1.36a10,10,0,0,1-2.4-1.6A149.06,149.06,0,0,1,147.94,34c.46,7.55.69,13,.7,16.27,0,3.82-2,4.94-2.84,5.24a3.31,3.31,0,0,1-1.21.2,5.07,5.07,0,0,1-3.87-2.06c-2.26-2.83-3.08-8.39,1.39-15.54.95-1.53,1.92-3.14,2.88-4.8-.11-1.76-.22-3.48-.32-5.09a10.83,10.83,0,0,1-4.84,4.54,7,7,0,0,1-2.73.61,4.85,4.85,0,0,1-3.48-1.34c-1.75-1.7-2-4.57-.64-7.9a15.58,15.58,0,0,1,3.37-5.39,2.09,2.09,0,0,0-.33-.45c-.2.05-1,.41-3.75,2.77l-.09.08c-.31.22-.61.44-.91.63a13.09,13.09,0,0,1-1,8.87,6.87,6.87,0,0,1-6.17,3.68c-3.45,0-5.83-1.82-6.89-5.29a12.39,12.39,0,0,1-.29-1.23c-2.35,5.56-4.84,8.38-7.39,8.39a2.78,2.78,0,0,1-2.09-1c-1.16-1.26-1.9-4.26-2.22-8.91a55.47,55.47,0,0,1-5.58,7.75l-.44.55c.41,6.9.61,12,.62,15,0,3.76-2.06,4.82-3,5.1a3.7,3.7,0,0,1-1.19.18,5.79,5.79,0,0,1-4.59-2.67c-1-1.45-3.87-6.8,2.27-14.88,1.11-1.45,2.11-2.73,2.87-3.68-.12-2.05-.25-4.07-.37-5.94-1.24,3.18-3.73,7.89-7.59,7.9a3.73,3.73,0,0,1-2.92-1.38,6.63,6.63,0,0,1-1.26-2.68c-.23.45-.49.91-.77,1.39-.88,1.49-2.09,3.21-3.67,3.22a2.05,2.05,0,0,1-.49-.06c-1.52-.33-2.33-1.91-3-5.79a19,19,0,0,1-5.72,4.7,24,24,0,0,1,2.62,11.31,16.43,16.43,0,0,1-2.2,8.51A4.07,4.07,0,0,1,67.51,57"/></svg>