<svg id="Layer_1" data-name="Layer 1" xmlns="http://www.w3.org/2000/svg" viewBox="0 0 300 60"><defs><style>.cls-1{fill:#fff;}</style></defs><title>Sketchdeck-Logo-White</title><g id="Designs"><polygon class="cls-1" points="86.33 11.52 86.33 44.9 91.6 44.9 91.6 36.84 93.04 36.84 99.84 44.9 106.4 44.9 97.05 33.8 106.4 22.68 99.84 22.68 92.95 30.9 91.6 30.91 91.6 11.52 86.33 11.52"/><polygon class="cls-1" points="276.94 11.52 276.94 44.9 282.19 44.9 282.19 36.84 283.63 36.84 290.44 44.9 297 44.9 287.64 33.8 297 22.68 290.44 22.68 283.54 30.9 282.19 30.91 282.19 11.52 276.94 11.52"/><path class="cls-1" d="M82,38.7c0,4.63-4,6.78-9,6.78s-9.16-2.81-9.16-8.07h5.07c0,2.92,1.83,4,4.34,4,2.07,0,3.66-.67,3.66-2.57,0-2.1-2.26-2.25-7-4.06-3.13-1.19-5.35-2.34-5.35-6.2,0-4.2,3.86-6.41,8.44-6.41,4.78,0,8.58,3.19,8.58,7.54H76.55c0-2.1-1.07-3.44-3.67-3.44-1.78,0-3.23.86-3.23,2.44,0,1.9,2.08,2.14,6.17,3.72C79,33.58,82,34.67,82,38.73"/><path class="cls-1" d="M112.82,31.51H124A5.17,5.17,0,0,0,119.2,26c-.23,0-.46,0-.68,0-3.24,0-5.75,1.83-5.75,5.5m0,3.86c.24,3.2,1.64,5.77,6,5.77,3,0,4.15-1.34,4.77-2.91h5.3c-.62,3.82-4.34,7.25-10.07,7.25-7.57,0-11.24-5.15-11.24-11.68s4-11.69,11.09-11.69a10.08,10.08,0,0,1,10.42,10,17.61,17.61,0,0,1-.24,3.24Z"/><path class="cls-1" d="M146,44.91a25.54,25.54,0,0,1-3.91.29c-2.55,0-7.32-.34-7.32-7.82V27H131V22.68h1.15a2.65,2.65,0,0,0,2.72-2.56V16h5.26v6.72h5.15V27h-5.15v9.16c0,3.86,1.21,4.34,3.28,4.34a21.47,21.47,0,0,0,2.65-.19Z"/><path class="cls-1" d="M164.32,30.75c-.29-2.44-1.74-4.06-5.31-4.06-4,0-6,3.3-6,7.06s1.83,7.06,6.41,7.06c3.08,0,4.34-1.34,5-3.57h5.26c-.72,4.62-4.15,8.24-10.66,8.24-7.32,0-11.24-5.63-11.24-11.68s3.92-11.69,11.2-11.69,10.27,4.39,10.61,8.64Z"/><path class="cls-1" d="M173.87,11.52h5.26V25.78c1.4-2.39,4-3.66,7.33-3.66s5.49,1.14,6.75,3c1.1,1.67,1.44,3.54,1.44,6.59V44.9H189.4V33.41c0-3.82-1.11-6.73-4.88-6.73s-5.4,2.91-5.4,6.73V44.9h-5.25Z"/><path class="cls-1" d="M216.89,33.8c0-3.82-2.6-7.06-6.66-7.06s-6.56,3.24-6.56,7.06,2.63,7,6.56,7a6.76,6.76,0,0,0,6.66-7.06m0,8.11A8.46,8.46,0,0,1,210,45.48,11.4,11.4,0,0,1,198.44,34.2v-.4a11.41,11.41,0,0,1,11.11-11.7H210a8.5,8.5,0,0,1,6.95,3.58V11.52h5.25V44.91h-5.25Z"/><path class="cls-1" d="M231.6,31.51h11.2A5.17,5.17,0,0,0,238,26c-.23,0-.47,0-.7,0-3.23,0-5.74,1.83-5.74,5.5m0,3.86c.25,3.2,1.64,5.77,6,5.77,3,0,4.15-1.34,4.78-2.91h5.31c-.63,3.82-4.34,7.25-10.08,7.25-7.57,0-11.23-5.15-11.23-11.68s4-11.69,11.1-11.69a10.09,10.09,0,0,1,10.42,10,18.54,18.54,0,0,1-.25,3.24Z"/><path class="cls-1" d="M267.38,30.75c-.29-2.44-1.74-4.06-5.3-4.06-4.05,0-6,3.3-6,7.06s1.83,7.06,6.41,7.06c3.08,0,4.34-1.34,5-3.57h5.26c-.72,4.62-4.15,8.24-10.66,8.24-7.32,0-11.23-5.63-11.23-11.68s3.9-11.69,11.18-11.69,10.32,4.39,10.66,8.68Z"/><path class="cls-1" d="M19.57,48.48A16.5,16.5,0,0,1,3,32.09H8a11.62,11.62,0,0,0,23.24,0h4.94A16.47,16.47,0,0,1,19.57,48.48"/><path class="cls-1" d="M34.3,13.92a16.49,16.49,0,0,1,16.58,16.4h-5a11.62,11.62,0,0,0-23.23,0H17.73A16.5,16.5,0,0,1,34.3,13.92"/></g></svg>