<svg id="Layer_1" data-name="Layer 1" xmlns="http://www.w3.org/2000/svg" viewBox="0 0 300 60"><defs><style>.cls-1{fill:#fff;}</style></defs><title>Notarize-Logo-White</title><path class="cls-1" d="M133.65,27V39.61h-4V20.89h4.1L142.43,33V20.89h4V39.61h-3.84Z"/><path class="cls-1" d="M149.17,32.82a7.17,7.17,0,0,1,14.33,0,7.17,7.17,0,0,1-14.33,0Zm10.63,0c0-2.1-1.26-3.93-3.48-3.93s-3.45,1.83-3.45,3.93,1.23,4,3.45,4S159.8,35,159.8,32.82Z"/><path class="cls-1" d="M166.85,36.24V29.17H164.6V26.06h2.25V22.35h3.59v3.71h2.75v3.11h-2.75v6.12c0,.84.45,1.49,1.23,1.49a1.93,1.93,0,0,0,1.24-.4l.75,2.7a4.36,4.36,0,0,1-3,.87C168.19,40,166.85,38.66,166.85,36.24Z"/><path class="cls-1" d="M183.77,38.21a5.64,5.64,0,0,1-4.3,1.74,4.51,4.51,0,0,1-4.71-4.49c0-3.17,2.55-4.32,4.71-4.32a5.5,5.5,0,0,1,4.3,1.65V30.91c0-1.37-1.18-2.27-3-2.27a5.67,5.67,0,0,0-3.95,1.6l-1.35-2.39a8.89,8.89,0,0,1,5.92-2.13c3.09,0,5.92,1.24,5.92,5.14v8.75h-3.56Zm0-3.54a3.58,3.58,0,0,0-2.86-1.18c-1.41,0-2.56.73-2.56,2s1.15,2,2.56,2a3.57,3.57,0,0,0,2.86-1.17Z"/><path class="cls-1" d="M190.87,26.06h3.56v1.85a5.8,5.8,0,0,1,4.32-2.16v3.48a4.28,4.28,0,0,0-1-.11,4.54,4.54,0,0,0-3.34,1.54v9h-3.56Z"/><path class="cls-1" d="M200.61,22.19a2.13,2.13,0,1,1,4.26,0,2.13,2.13,0,0,1-4.26,0Zm.36,3.87h3.57V39.61H201Z"/><path class="cls-1" d="M207.48,37l6.12-7.78h-6.12V26.06h11v2.58l-6.21,7.86h6.32v3.11H207.48Z"/><path class="cls-1" d="M227.66,25.72c4,0,6.79,3,6.79,7.46V34H224.38a3.65,3.65,0,0,0,3.9,3.14,5.55,5.55,0,0,0,3.62-1.34l1.57,2.3A8.48,8.48,0,0,1,227.88,40a6.87,6.87,0,0,1-7.24-7.13A6.9,6.9,0,0,1,227.66,25.72Zm-3.34,5.84H231a3.14,3.14,0,0,0-3.34-3A3.25,3.25,0,0,0,224.32,31.56Z"/><polygon class="cls-1" points="82.12 18.13 82.12 41.87 86.47 41.87 86.47 24.37 98.89 41.87 103.28 41.87 103.28 18.13 98.93 18.13 98.93 35.03 86.84 18.13 82.12 18.13"/><path class="cls-1" d="M116.7,32.52,119.85,30l-3.15-2.52,2.55-3.12-3.6-1.82L117.5,19l-3.9-1L114.66,14l-4-.19.24-4-4,.66-.61-4L102.51,8l-1.42-3.77L97.72,6.4,95.54,3,92.7,5.87,89.86,3,87.68,6.4,84.31,4.18,82.88,8,79.13,6.49l-.62,4-4-.66.24,4-4,.19,1.06,3.89-3.9,1,1.85,3.58-3.61,1.82,2.56,3.12L65.55,30l3.15,2.52-2.56,3.12,3.61,1.82L67.9,41l3.9,1L70.74,46l4,.19-.24,4,4-.66.62,4,3.75-1.46,1.43,3.77,3.37-2.22L89.86,57l2.84-2.87L95.54,57l2.18-3.4,3.37,2.22,1.42-3.77,3.76,1.46.61-4,4,.66-.24-4,4-.19-1.06-3.89,3.9-1-1.85-3.58,3.6-1.82ZM104.17,42.76H98.43L87.37,27.18V42.76H81.23V17.24H87.3L98,32.24v-15h6.14Z"/></svg>