<svg id="Layer_1" data-name="Layer 1" xmlns="http://www.w3.org/2000/svg" viewBox="0 0 300 60"><defs><style>.cls-1{fill:#fff;}</style></defs><title>Xperiale-Logo-White</title><path class="cls-1" d="M118.08,48.13a9,9,0,0,1-8-5V57h-2.18V26.2h2.18v4.41a9.6,9.6,0,0,1,8.44-5c6.21,0,10,5.25,10,11.15C128.54,43.88,123.77,48.13,118.08,48.13Zm.32-20.55c-4.78,0-8.28,4.09-8.28,9.35,0,4.67,3.29,9.18,8.18,9.18s8-3.55,8-9.23C126.26,31.94,123.61,27.58,118.4,27.58Z"/><path class="cls-1" d="M139.64,36.56c.05,5.41,3.13,9.55,8.6,9.55a9.82,9.82,0,0,0,7.43-3.18l1.54,1.33a11.51,11.51,0,0,1-9.08,3.87c-7.27,0-10.77-5.52-10.77-11.63,0-5.52,3.39-10.93,10.46-10.93,6.79,0,9.61,5.52,9.87,11Zm8.07-9c-5,0-7.38,3.24-8,7.07H155C154.77,31.35,152.43,27.58,147.71,27.58Z"/><path class="cls-1" d="M178.61,28.81a4.25,4.25,0,0,0-3.13-1.33c-2.82,0-5.37,3.77-5.37,7.06v13h-2.17V26.2h2.17v3.19a6.28,6.28,0,0,1,5.58-3.82,5.42,5.42,0,0,1,4.19,1.59Z"/><path class="cls-1" d="M189.23,47.5V26.2h2.17V47.5Z"/><polygon class="cls-1" points="195.33 19.34 190.2 22.17 185.18 19.14 185.3 13.28 190.43 10.45 195.45 13.48 195.33 19.34"/><path class="cls-1" d="M204.2,36.56c.05,5.41,3.13,9.55,8.6,9.55a9.82,9.82,0,0,0,7.43-3.18l1.54,1.33a11.53,11.53,0,0,1-9.08,3.87c-7.27,0-10.78-5.52-10.78-11.63,0-5.52,3.4-10.93,10.46-10.93,6.8,0,9.61,5.52,9.88,11Zm8.07-9c-5,0-7.38,3.24-8,7.07h15.29C219.33,31.35,217,27.58,212.27,27.58Z"/><path class="cls-1" d="M232.49,47.5V8.74h2.18V47.5Z"/><path class="cls-1" d="M95.22,55,81.79,35.83,68.14,55H65.33L80.41,33.92,67.88,16.24h2.76L81.79,31.91,93,16.24h2.6L83.17,33.92,98.09,55Z"/><path class="cls-1" d="M95.22,41.76,81.79,22.59,68.14,41.76H65.33L80.41,20.68,67.88,3h2.76L81.79,18.66,93,3h2.6L83.17,20.68,98.09,41.76Z"/></svg>