<svg id="Layer_1" data-name="Layer 1" xmlns="http://www.w3.org/2000/svg" viewBox="0 0 300 60"><defs><style>.cls-1{fill:#fff;}</style></defs><title>Fatso-Logo-White</title><path class="cls-1" d="M94,3.5h16.52a.87.87,0,0,1,.87.87V10.3a.87.87,0,0,1-.87.87H102a.87.87,0,0,0-.87.87V24.23a.87.87,0,0,0,.87.87h6.36a.87.87,0,0,1,.87.87v6.29a.87.87,0,0,1-.87.87H102a.87.87,0,0,0-.87.87V55.49a.87.87,0,0,1-.87.87H94a.87.87,0,0,1-.87-.87V4.37A.87.87,0,0,1,94,3.5"/><path class="cls-1" d="M125,46.41h-4.33a.86.86,0,0,0-.86.79L119,55.58a.87.87,0,0,1-.86.78h-5.41a.87.87,0,0,1-.87-1l6.26-51.13A.87.87,0,0,1,119,3.5h8a.86.86,0,0,1,.86.76l6.67,51.12a.88.88,0,0,1-.87,1h-6a.87.87,0,0,1-.87-.77l-.89-8.4a.88.88,0,0,0-.87-.78m-3.3-7.88H124a.88.88,0,0,0,.87-1l-1.58-14.47a.44.44,0,0,0-.88,0l-1.53,14.48a.87.87,0,0,0,.86,1"/><path class="cls-1" d="M155.88,4.37V10.3a.87.87,0,0,1-.87.87h-5a.87.87,0,0,0-.87.87V55.49a.87.87,0,0,1-.87.87H142a.87.87,0,0,1-.87-.87V12a.87.87,0,0,0-.87-.87h-5a.87.87,0,0,1-.87-.87V4.37a.87.87,0,0,1,.87-.87H155a.87.87,0,0,1,.87.87"/><path class="cls-1" d="M171.51,3c6.61,0,9.17,2.91,9.17,9.17V20a.86.86,0,0,1-.87.86h-6a.86.86,0,0,1-.87-.86V13.23c0-1.77-.35-3.12-2.27-3.12s-2.35,1.2-2.35,3.69v1c0,3,.57,4.61,3.27,8.1l5.12,6.6c3.62,4.69,4.76,7.32,4.76,13.36v1.71c0,7.74-3.27,12.36-10.38,12.36h-1.56c-6.47,0-9.81-3.48-9.81-10V37.19a.87.87,0,0,1,.87-.87h6.22a.87.87,0,0,1,.87.87v8.37c0,2.49.85,3.7,2.63,3.7s2.63-1.21,2.63-4.55V43.5c0-3.84-.35-5-3.27-8.88l-5.12-6.54A18.78,18.78,0,0,1,160.14,15V13.3C160.14,6.2,163.69,3,170,3Z"/><path class="cls-1" d="M208.31,44.57C208.31,52,205.83,57,198.08,57h-1.35c-7.67,0-10.37-5-10.37-12.43V15.15c0-7.39,2.7-12.15,10.3-12.15H198c7.82,0,10.3,4.83,10.3,12.08Zm-8.17-29.85q0-4.05-2.77-4.05c-2.06,0-2.84,1.28-2.84,4.05V45.13c0,2.28.64,4,2.91,4s2.7-1.77,2.7-4Z"/><path class="cls-1" d="M109.08,3.5H108V4h1.08Zm-2.15,0h-1.08V4h1.08Zm-2.15,0H103.7V4h1.08Zm-2.16,0h-1.07V4h1.07Zm-2.15,0H99.39V4h1.08Zm-2.15,0H97.24V4h1.08Zm-2.15,0H95.09V4h1.08ZM94,3.5H92.94V4H94Zm-2.08.26a.83.83,0,0,0-.21.39h0v0h0v.4h.54v-.4a.32.32,0,0,1,.09-.23Zm.3,2.09h-.54V6.92h.54Zm0,2.15h-.54V9.08h.54Zm0,2.15h-.54v1.08h.54Zm0,2.15h-.54v1.08h.54Zm0,2.16h-.54v1.07h.54Zm0,2.15h-.54v1.07h.54Zm0,2.15h-.54v1.08h.54Zm0,2.15h-.54V22h.54Zm0,2.15h-.54v1.08h.54Zm0,2.16h-.54v1.07h.54Zm0,2.15h-.54v1.07h.54Zm0,2.15h-.54V30.6h.54Zm0,2.15h-.54v1.08h.54Zm0,2.15h-.54V34.9h.54Zm0,2.16h-.54v1.07h.54Zm0,2.15h-.54V39.2h.54Zm0,2.15h-.54v1.08h.54Zm0,2.15h-.54v1.08h.54Zm0,2.15h-.54v1.08h.54Zm0,2.16h-.54v1.07h.54Zm0,2.15h-.54V50h.54Zm0,2.15h-.54v1.08h.54Zm0,2.15h-.54v1.08h.54Zm0,2.15h-.54v.15h0v0h0s0,0,0,0l.06.09h.31l.26-.47a.32.32,0,0,1-.17-.29Zm2,.48H93.2v.54h1.07Zm2.15,0H95.35v.54h1.07Zm2.16,0H97.5v.54h1.08ZM99.72,55h-.54v.51a.34.34,0,0,1-.07.2l.43.33a1,1,0,0,0,.17-.44h0Zm0-2.15h-.54V53.9h.54Zm0-2.16h-.54v1.08h.54Zm0-2.15h-.54V49.6h.54Zm0-2.15h-.54v1.08h.54Zm0-2.15h-.54v1.07h.54Zm0-2.16h-.54v1.08h.54Zm0-2.15h-.54V41h.54Zm0-2.15h-.54v1.08h.54Zm0-2.15h-.54v1.07h.54Zm-.28-2.43a1.39,1.39,0,0,0-.26.81v.54h.54V34h.07l.09-.14Zm2.47-.59h-1.08v.54h1.08Zm2.15,0H103v.54h1.07Zm2.15,0h-1.07v.54h1.07Zm1.61-.39h-.54v.06a.33.33,0,0,1-.2.3l.2.5a1.18,1.18,0,0,0,.19-.11h.09a.87.87,0,0,0,.23-.42.06.06,0,0,0,0,0h0Zm0-2.15h-.54v1.08h.54Zm0-2.15h-.54V29h.54Zm0-2.15-.52.13a.28.28,0,0,1,0,.09v.85h.54V26h0a.88.88,0,0,0,0-.16M107,25.1h-1v.54h1l0-.54H107Zm-2.08,0h-1.08v.54h1.08Zm-2.16,0h-1.08v.54h1.08Zm-2.95-.61-.52.16a1.43,1.43,0,0,0,1.31,1V25.1h-.34a.86.86,0,0,1-.46-.53m0-2.15h-.54v1.08h.54Zm0-2.15h-.54v1.08h.54Zm0-2.15h-.54v1.07h.54Zm0-2.16h-.54V17h.54Zm0-2.15h-.54v1.08h.54Zm-.35-2.4a1.38,1.38,0,0,0-.19.71v.62h.54V12h0a.77.77,0,0,1,.12-.35Zm2.46-.7h-1.07v.54h1.07Zm2.15,0h-1.07v.54H104Zm2.16,0h-1.08v.54h1.08Zm2.15,0h-1.08v.54h1.08Zm1.12-.33a.34.34,0,0,1-.22.32l.17.51.14-.07h.07a.85.85,0,0,0,.38-.71ZM110,8.16h-.54V9.23H110ZM110,6h-.54V7.08H110Zm-.15-2.12-.45.3a.33.33,0,0,1,.06.19v.56H110V4.37h-.08l-.07-.11"/><path class="cls-1" d="M125.53,3.5h-1.08V4h1.08Zm-2.16,0H122.3V4h1.07Zm-2.15,0h-1.07V4h1.07Zm-2.15,0H118V4h1.08Zm-2.1.21a.84.84,0,0,0-.28.47h0l-.06.43.54.07,0-.43a.33.33,0,0,1,.11-.21Zm-.48,2.05,0,.35h0c0,.31-.09.72-.09.72l.53.06L117,5.83Zm-.26,2.14L116.1,9l.53.06L116.76,8ZM116,10s0,.21,0,.44v0l-.07.61.53.07.13-1.07Zm-.26,2.14-.13,1.07.53.06.13-1.06Zm-.26,2.14-.1.81h0c0,.14,0,.24,0,.24l.53.07.13-1.07Zm-.27,2.13,0,.38h0l-.09.68.54.07.13-1.07Zm-.26,2.14v0h0l-.13,1,.54.06.13-1.07Zm-.26,2.14-.06.55h0l-.06.49.54.07.13-1.07Zm-.26,2.13-.13,1.07.54.06.13-1.06ZM114.14,25l-.09.7h0c0,.2,0,.37,0,.37l.53.06.13-1.07Zm-.26,2.13,0,.35-.09.72.53.07.13-1.07Zm-.26,2.14h0l-.12,1,.53.06.13-1.07Zm-.26,2.14-.09.7h0l0,.35.54.07.13-1.07Zm-.27,2.13s-.09.82-.12,1h0v0l.54.07.13-1.07Zm-.26,2.14-.08.66h0c0,.21,0,.4,0,.4l.54.06.13-1.07Zm-.26,2.13,0,.24h0l-.1.82.54.07.13-1.07Zm-.26,2.14s0,.09,0,.23h0l-.1.83.53.06.14-1.07Zm-.26,2.14s0,.33-.08.63h0l0,.41.53.07.13-1.07Zm-.26,2.13-.13,1.07.53.07.13-1.07Zm-.26,2.14-.07.57h0l-.06.49.53.06.13-1.07Zm-.26,2.13,0,.23h0c0,.32-.1.84-.1.84l.53.07.13-1.07ZM111,50.62l0,.17h0l-.11.88.54.06.13-1.06Zm-.26,2.14s0,.39-.08.7h0l0,.35.54.07.13-1.07Zm-.26,2.13-.06.5h0a.82.82,0,0,0,.06.38h0l0,.06.46-.28a.26.26,0,0,1,0-.21L111,55Zm2.06.93h-1.07v.54h1.07Zm2.16,0h-1.08v.54h1.08Zm2,0h-1v.54h1.08Zm.37-1.32-.1,1v0l.53.09a.43.43,0,0,1,0-.05h0c0-.17.1-1,.1-1Zm.22-2.14-.11,1.07.54,0,.1-1h0v-.06Zm.21-2.14-.1,1.07.53.05s0-.25,0-.51h0l.06-.55Zm.22-2.14-.11,1.07.54.05V49h0v0h0c0-.31.08-.88.08-.88Zm1.38-2.2a1.39,1.39,0,0,0-1.25,1l.52.13a.86.86,0,0,1,.46-.56h.31Zm2.2,0h-1.08v.53h1.08Zm2.15,0h-1.08v.53h1.08Zm1.36.81-.48.22s0,0,0,.05h0l0,.14h0c0,.16.08.74.08.74l.53,0-.08-.79a1.39,1.39,0,0,0-.13-.44m.33,2.3-.54,0,0,.46.07.61.53,0Zm.23,2.14-.54,0,0,.14h0c0,.29.1.91.1.91l.53-.06Zm.23,2.14-.54,0a.18.18,0,0,0,0,0h0l.11,1,.53,0Zm.22,2.13-.53.06v.11h.12a.8.8,0,0,0,.27.28h.08l.08,0,.2-.5a.31.31,0,0,1-.21-.27Zm2.18.42H127v.54h1.08Zm2.15,0h-1.07v.54h1.07Zm2.05,0h-1v.54h1.07Zm.69-1.27-.53.07.11.83v.09l.53.08h0a.81.81,0,0,0,0-.22h0Zm-.27-2.13-.54.06.14,1.07.54-.07Zm-.28-2.14-.54.07.14,1.07.54-.07Zm-.28-2.13-.53.07.14,1.06.53-.07s0-.08,0-.2h0ZM131.83,46l-.53.07.14,1.07.53-.07-.09-.72h0c0-.19,0-.34,0-.34m-.28-2.13L131,44l.14,1.07.53-.07a.91.91,0,0,0,0-.16h0Zm-.27-2.14-.54.07.14,1.07.53-.07-.07-.56-.06-.51M131,39.61l-.53.07.13,1.07.54-.07s0-.23-.07-.47h0Zm-.28-2.13-.54.07.14,1.07.54-.07-.08-.57h0l-.06-.49m-.28-2.14-.53.07.14,1.07.53-.07-.09-.7h0Zm-.28-2.13-.53.07.14,1.07.53-.07-.05-.41h0l-.09-.66m-.27-2.13-.54.07.14,1.06.53-.07-.1-.81h0Zm-.28-2.14-.54.07.14,1.07.53-.07-.05-.41-.08-.66m-.28-2.13-.54.07.14,1.07.54-.07Zm-.28-2.14-.53.07.14,1.07.53-.07Zm-.28-2.13-.53.07.14,1.07.53-.07Zm-.28-2.13-.53.07.14,1.06.53-.07Zm-.27-2.14-.54.07.14,1.07.54-.07Zm-.28-2.13-.54.07.14,1.07.54-.07ZM127.66,14l-.53.07.14,1.07.53-.07Zm-.28-2.13-.53.07L127,13l.53-.07Zm-.28-2.13-.53.07.14,1.06.53-.07Zm-.28-2.14-.53.07.14,1.07.53-.07a.87.87,0,0,0,0-.11h0Zm-.27-2.13-.54.07.14,1.06.53-.06-.09-.74c0-.18,0-.33,0-.33m-.71-1.91-.19.5a.3.3,0,0,1,.2.26l0,.15.54-.07,0-.14h-.14a.87.87,0,0,0-.41-.32m-6.91,33.58,0,.37a1.41,1.41,0,0,0,.33,1.06l.41-.35h0a.89.89,0,0,1-.19-.39h0v0h0v0h0v0h0c0-.11,0-.29,0-.29Zm.23-2.14L119,36.07l.54.06.11-1.07Zm.22-2.14-.11,1.07.54.06s0-.26,0-.52h0l.06-.54Zm.23-2.14-.11,1.07.53.06.11-1.07Zm.22-2.14-.11,1.07.54.06.11-1.07Zm.23-2.14L120,27.51l.53.06.12-1.07Zm.23-2.14-.12,1.07.54.06.11-1.08Zm1.1-2.14a1,1,0,0,0-1,.88l0,.19.53.06,0-.2a.44.44,0,0,1,.44-.4h.22l.26-.48a1.13,1.13,0,0,0-.48-.11m1,1.52-.54.06.12,1.07.54-.06Zm.23,2.14-.53.06.11,1.07.54-.06Zm.24,2.14-.54.06.12,1.07L123,29Zm.23,2.14-.54.06.07.58v0h0c0,.24,0,.46,0,.46l.54-.06Zm.23,2.14-.53.06.11,1.07.54-.06Zm.24,2.14-.54.06.12,1.06.53,0Zm.23,2.14-.54,0v0a.34.34,0,0,0,0,.09v.08h0v0h0v0h0v0h0v0h0v0h0v0h0v0h0v.06h0v.08h0v.15H124a.49.49,0,0,1,0-.12Zm-1,1.95-.08,0h-1v.53h.77A1.31,1.31,0,0,0,123,39Zm-2.15.06h-.41v.54h.41Z"/><path class="cls-1" d="M153.56,3.5h-1.08V4h1.08Zm-2.16,0h-1.07V4h1.07Zm-2.15,0h-1.08V4h1.08Zm-2.15,0H146V4h1.08ZM145,3.5h-1.08V4H145Zm-2.16,0h-1.07V4h1.07Zm-2.15,0h-1.07V4h1.07Zm-2.15,0h-1.07V4h1.07Zm-2.15,0h-1.08V4h1.08Zm-2.15,0h-.47a.89.89,0,0,0-.53.28l.4.36a.34.34,0,0,1,.24-.1h.36Zm-.69,1.3H133V5.88h.53Zm0,2.15H133V8h.53Zm0,2.16H133v1.07h.53Zm.18,1.49-.24.48a.8.8,0,0,0,.31.09h.75v-.54h-.67a.4.4,0,0,1-.15,0m3,0h-1.07v.54h1.07Zm2.15,0h-1.07v.54h1.07Zm1.35.89-.49.2h0a.64.64,0,0,1,.05.23h0v.74h.53V12a1.3,1.3,0,0,0-.1-.52m.1,2.34h-.53v1.08h.53Zm0,2.15h-.53v1.08h.53Zm0,2.15h-.53v1.08h.53Zm0,2.16h-.53v1.07h.53Zm0,2.15h-.53v1.08h.53Zm0,2.15h-.53V25.7h.53Zm0,2.15h-.53v1.08h.53Zm0,2.15h-.53V30h.53Zm0,2.16h-.53v1.07h.53Zm0,2.15h-.53v1.08h.53Zm0,2.15h-.53v1.08h.53Zm0,2.15h-.53v1.08h.53Zm0,2.16h-.53v1.07h.53Zm0,2.15h-.53v1.07h.53Zm0,2.15h-.53v1.08h.53Zm0,2.15h-.53v1.08h.53Zm0,2.15h-.53v1.08h.53Zm0,2.15h-.53v1.08h.53Zm0,2.16h-.53v1.07h.53Zm0,2.15h-.53v.74h0v0h0v0a1.05,1.05,0,0,0,.05.19l.5-.2a.31.31,0,0,1,0-.13Zm1.46,1.07h-1.08v.54h1.08Zm2.15,0h-1.08v.54h1.08Zm2.15,0h-1.08v.54H146Zm1.13-.32a.32.32,0,0,1-.23.3l.17.52a.88.88,0,0,0,.59-.82Zm.53-2.15h-.53v1.08h.53Zm0-2.15h-.53v1.07h.53Zm0-2.16h-.53v1.08h.53Zm0-2.15h-.53V48h.53Zm0-2.15h-.53v1.08h.53Zm0-2.15h-.53v1.07h.53Zm0-2.15h-.53v1.07h.53Zm0-2.16h-.53v1.08h.53Zm0-2.15h-.53v1.08h.53Zm0-2.15h-.53v1.08h.53Zm0-2.15h-.53V32.9h.53Zm0-2.15h-.53v1.07h.53Zm0-2.16h-.53V28.6h.53Zm0-2.15h-.53v1.08h.53Zm0-2.15h-.53V24.3h.53Zm0-2.15h-.53v1.08h.53Zm0-2.16h-.53V20h.53Zm0-2.15h-.53v1.08h.53Zm0-2.15h-.53v1.08h.53Zm0-2.15h-.53v1.08h.53Zm1.24-1.83h-.37a1.38,1.38,0,0,0-1,.45l.39.36a1,1,0,0,1,.39-.24h.61Zm2.15,0H150v.54h1.07Zm2.15,0h-1.07v.54h1.07Zm1.21-.77h-.53v.44a.3.3,0,0,1-.09.22l.41.36a1.11,1.11,0,0,0,.17-.3h0Zm0-2.16h-.53V8.78h.53Zm0-2.15h-.53V6.63h.53Zm-.48-2-.24.48a.35.35,0,0,1,.19.3v.11h.53V4.37h-.33l-.15-.09"/><path class="cls-1" d="M170.06,3H169v.54h1.08ZM167.9,3h-.44l-.35,0h-.28l.06.53c.33,0,.68-.06,1-.07Zm-2.13.24-.15,0h-.09l-.06,0h0l-.72.19.15.51c.32-.09.65-.17,1-.24Zm-2.06.6a8.63,8.63,0,0,0-1,.49l.27.46a7.55,7.55,0,0,1,.9-.45ZM161.86,5a3.11,3.11,0,0,0-.28.23h0l0,0h-.25l0,0h0s0,0,0,0h0l0,0h0v0h0l0,0h0l0,0h0l.4.36a6.75,6.75,0,0,1,.73-.68ZM160.4,6.52v0h-.07c-.13.2-.25.4-.36.61h0l0,0h0l0,.08.48.24a6.2,6.2,0,0,1,.51-.87Zm-1,1.91a10.32,10.32,0,0,0-.31,1l.52.13c.09-.33.19-.66.3-1Zm-.53,2.08c-.05.31-.09.63-.13,1h0l.54.05c0-.35.08-.7.13-1Zm-.2,2.15v.08h0v.43h.54V13.3c0-.21,0-.42,0-.63Zm.53,2.15h-.54V15h0v0h0v.37h0v0h0v.26h.54c0-.28,0-.57,0-.86Zm.05,2.12-.54,0c0,.17,0,.35,0,.52h0c0,.17,0,.34.05.51l.53-.05c0-.34-.06-.69-.08-1.05m.21,2.09-.53.08c.06.36.12.71.19,1.06l.53-.11c-.07-.34-.13-.68-.19-1m.44,2-.52.14.12.41h0v0h0q.08.27.18.54l.5-.18c-.11-.33-.22-.66-.31-1m.69,2-.49.21c0,.06.05.11.07.17h0v0c.11.26.23.52.36.77l.48-.24c-.15-.31-.3-.63-.44-.94m.94,1.86-.46.27,0,.08h0l.49.79.45-.29c-.19-.3-.38-.61-.55-.9m1.14,1.77-.44.31.56.76h0l.05.07.43-.33c-.22-.29-.43-.57-.63-.85M164,28.34l-.42.34.66.84.43-.33Zm1.33,1.7-.42.33.4.52h0l.25.33.42-.33Zm1.32,1.69-.42.34.4.5h0l.26.33.43-.33Zm1.33,1.7-.42.33.38.49h0l.27.35.42-.33Zm1.32,1.72-.43.32.06.09h0c.1.15.21.29.3.42h0l.19.27.44-.31c-.19-.28-.4-.57-.63-.89M170.51,37l-.46.28c.14.23.26.44.37.66h0l.13.25.48-.23a11.06,11.06,0,0,0-.54-1m1,2-.51.18a4,4,0,0,1,.17.59h0c0,.14.07.28.1.42l.52-.11a8.22,8.22,0,0,0-.29-1.11m.45,2.23-.54,0a.38.38,0,0,1,0,.1h0v0h0v0h0s0,0,0,0h0v0c0,.22,0,.44,0,.67h0l.54,0c0-.41,0-.77-.06-1.11m.07,2.2h-.53v.05h0v1H172V43.44Zm-.55,2.15c0,.28,0,.55-.06.79h0v0h0v0h0a1.1,1.1,0,0,1,0,.18l.53.07a11.18,11.18,0,0,0,.11-1.12Zm-.34,2.12a2.54,2.54,0,0,1-.54.93L171,49a3,3,0,0,0,.66-1.12Zm-1.46,1.45a2.7,2.7,0,0,1-.6.09h-.47l0,.53h.29a3.54,3.54,0,0,0,1-.11Zm-2.87-.93-.45.29a2.67,2.67,0,0,0,1,.92l.26-.47,0,0h-.19l0,0h-.41l-.1-.14m-.55-2.06-.54,0a7.68,7.68,0,0,0,.17,1.16l.52-.13a6.4,6.4,0,0,1-.13-.82v0h0s0-.1,0-.15m0-2.15h-.54V45.1h.54Zm0-2.15h-.54V43h.54Zm0-2.15h-.54V40.8h.54Zm0-2.15h-.54v1.07h.54Zm-.87-1.25h-.41v.54h.41a.32.32,0,0,1,.23.09l.37-.39a1,1,0,0,0-.24-.16h-.36Zm-1.49,0h-1.07v.54h1.07Zm-2.15,0h-1.08v.54h1.08Zm-2.15,0h-1l0,0,.37.39a.31.31,0,0,1,.22-.09h.43Zm-.76,1.23h-.54v1.08h.54Zm0,2.16h-.54v1.07h.54Zm0,2.15h-.54v1.07h.54Zm0,2.15h-.54v1.07h.54Zm0,2.15h-.54v.75h0a1.55,1.55,0,0,0,0,.22h.53V46.16Zm0,2.11-.53,0h0v.08h0c0,.22,0,.44.08.65h0v.08l.53-.08c-.05-.33-.09-.68-.12-1m.33,2-.53.13.09.33h0a.09.09,0,0,1,0,.05h0l.18.56.51-.19a9.92,9.92,0,0,1-.29-1m.69,1.9-.48.24.12.24h0v0h.08l0,0a2.61,2.61,0,0,0,.17.28h0l0,0h.06l0,0h0l0,0,.45-.3a6.2,6.2,0,0,1-.51-.87M161,53.86l-.4.36.24.25h0v0h.51l0,0,.33-.42a6.64,6.64,0,0,1-.72-.68m1.54,1.25-.27.46.52.28h.44l.21-.5a6.87,6.87,0,0,1-.9-.45m1.85.8-.15.51h.24l.7.17h.1l.11-.53a9.75,9.75,0,0,1-1-.24m2,.4-.06.53h.21c.28,0,.57,0,.86.06l0-.54c-.35,0-.7,0-1-.07m3.16.08H168.5v.54h1.07Zm2.07-.14c-.33,0-.68.09-1,.11l0,.54.78-.08h.09l.2,0Zm2-.49a9.34,9.34,0,0,1-1,.29l.13.52h.07l.09,0h.74l.13-.05Zm1.79-.91c-.27.18-.56.35-.86.51l.24.48.34-.19h.18c.14-.08.27-.17.4-.26Zm1.49-1.34a7.82,7.82,0,0,1-.7.71l.36.41.27-.26h0l0,0H177l0,0h.15l.16-.18ZM178,51.82a8.42,8.42,0,0,1-.51.88l.45.3h0l0,0v0h.2l0-.08h0v0h0c.06-.11.12-.21.17-.32Zm.76-1.9a10.09,10.09,0,0,1-.34,1l.5.2c.06-.14.12-.29.17-.44h0a.08.08,0,0,1,0,0h0c0-.13.08-.26.13-.4Zm.45-2c-.06.35-.12.69-.19,1l.52.12,0-.12h0v0h0v0h0a.06.06,0,0,0,0,0h0v0h0c0-.16.06-.33.09-.51Zm.21-2.09c0,.36-.05.71-.08,1.05l.53,0c0-.32.06-.66.08-1h0v0Zm.56-2.12h-.53v1.07H180v-.14h0Zm0-2.15-.53,0c0,.34,0,.69,0,1.06H180v-.31h0c0-.2,0-.41,0-.61h0v-.06m-.15-2.15-.53.06q.06.51.09,1.05l.54,0c0-.37-.06-.72-.1-1.07m-.37-2.12-.52.13q.12.49.21,1l.53-.09c-.05-.3-.11-.6-.17-.88h0l0-.12m-.66-2-.49.2c.13.32.25.65.35,1l.51-.16c0-.08,0-.16-.07-.23v0h0v0h0v0h0v0h0v0h0v0h0v0h0v0h0v0l0,0c-.06-.16-.12-.32-.19-.48m-1-1.93-.46.27c.18.3.34.61.49.92l.48-.24-.22-.44,0,0h0v0h-.06v0h0l0,0h0v0h-.07l-.08-.13m-1.15-1.82-.44.31c.21.3.4.6.58.88l.46-.29-.14-.21h-.06l-.4-.59m-1.28-1.73-.42.33.64.85.43-.32-.28-.38h0l-.34-.44M174.11,28l-.43.32.66.86.43-.33-.05-.07h0l-.59-.77m-1.32-1.71-.43.33.66.85.43-.32-.39-.5Zm-1.32-1.7-.42.33.66.85.42-.33-.46-.59h0l-.2-.25m-1.31-1.7-.43.33.66.85.42-.33-.2-.27h-.05Zm-1.28-1.73-.44.3c.19.28.4.58.63.89l.43-.32-.26-.36h-.05v0h0v0H169l-.09-.12m-1.09-1.85-.49.23c.16.32.33.64.54,1l.46-.28c-.13-.21-.24-.41-.35-.62h0l-.14-.29m-.71-2-.53.11a8.14,8.14,0,0,0,.31,1.1l.51-.17q-.1-.28-.18-.57h0c0-.14-.07-.28-.1-.42m-.22-2.14h-.53c0,.41,0,.77,0,1.12l.54,0h0q0-.33,0-.69M166.34,13c0,.24,0,.5,0,.79v.31h.54V13.8h0c0-.16,0-.32,0-.47h0a.76.76,0,0,1,0-.15Zm.55-2.34a3.85,3.85,0,0,0-.43,1.19l.53.1c0-.12,0-.24.08-.35h.18c0-.07.07-.13.1-.19Zm2.31-1.1a3.13,3.13,0,0,0-1.24.21l.2.49a2.25,2.25,0,0,1,.63-.14h.41Zm1.28.23-.21.5h.08a1.66,1.66,0,0,1,.34.22h.07a1.57,1.57,0,0,1,.3.38l.46-.27a2.29,2.29,0,0,0-1-.93m1.45,2.13-.53.09c0,.13,0,.26,0,.4h0a6.13,6.13,0,0,1,0,.62H172a7.68,7.68,0,0,0-.08-1.15m.08,2.23h-.53v1.08H172Zm0,2.16h-.53v1.07H172Zm0,2.15h-.53v1.07H172Zm.1,1.72-.4.37a1.08,1.08,0,0,0,.24.18h0l0,0h.73V20.3h-.36a.3.3,0,0,1-.24-.11m2.75.11h-1.07v.54h1.07Zm2.16,0h-1.08v.54H177Zm1.6-.14a.32.32,0,0,1-.27.14h-.26v.53h.36a.87.87,0,0,0,.6-.35Zm.6-1.79h-.54v1.07h.54Zm0-2.16h-.54v1.08h.54Zm0-2.15h-.54v1.08h.54Zm0-2.15h-.54V13h.54v-.82h0V12h0v0h0Zm-.15-2.15-.53.08c0,.32.08.67.1,1l.54,0c0-.28,0-.55-.08-.82h0a.77.77,0,0,0,0-.15m-.49-2.09-.5.18c.1.31.2.63.28,1l.52-.13-.09-.35h0v0h0v0h0a.06.06,0,0,1,0,0l-.14-.41m-1-1.89-.43.32a6,6,0,0,1,.53.84l.48-.25c-.07-.14-.15-.26-.22-.39h0a0,0,0,0,1,0,0h-.13v0h0V6h0l-.18-.25M176,4.34l-.29.45a5.9,5.9,0,0,1,.78.59l.36-.39-.22-.2h-.25l0,0-.18-.12H176l0,0m-2-.86-.15.52a6.23,6.23,0,0,1,1,.33l.22-.49-.43-.17H174m-2.11-.39-.06.53c.36,0,.7.09,1,.15l.09-.53-.33-.06h-.37l-.36,0M170.06,3v.54h.77V3l-.67,0h-.11Z"/><path class="cls-1" d="M196.56,3h-1.08v.54h1.08ZM194.4,3h-.19c-.3,0-.6,0-.88.08l.07.53c.33,0,.68-.07,1-.08Zm-2.13.26c-.36.08-.71.17-1,.27l.16.51c.32-.09.65-.18,1-.25Zm-2,.65h-.08l-.39.19h-.38l-.07,0h0l.29.45a7.48,7.48,0,0,1,.89-.47ZM188.4,5.06l-.13.11h-.19l0,0h0l-.39.4.4.37a6.69,6.69,0,0,1,.72-.69ZM187,6.65l-.13.18h0l-.05.08h0l0,.06h0c-.09.14-.17.29-.25.44l.48.25A7.41,7.41,0,0,1,187.4,7Zm-1,1.9h0a10.28,10.28,0,0,0-.34,1l.52.15c.1-.33.21-.66.33-1Zm-.62,2a.77.77,0,0,1,0,.15h0a.64.64,0,0,0,0,.07h0a.13.13,0,0,0,0,.06h0c-.05.25-.09.5-.13.75l.54.08q.07-.53.18-1ZM185,12.73s0,.1,0,.15h0v0h0v0h0v0h0v.09h0v0h0v.09c0,.13,0,.26,0,.38l.53,0c0-.36.05-.71.08-1.05Zm-.1,2.15s0,0,0,0h0v0h0v0h0V16h.54V14.89Zm.53,2.15h-.54v1.08h.54Zm0,2.15h-.54v1.08h.54Zm0,2.16h-.54v1.07h.54Zm0,2.15h-.54v1.08h.54Zm0,2.15h-.54v1.08h.54Zm0,2.15h-.54v1.08h.54Zm0,2.15h-.54V31h.54Zm0,2.16h-.54v1.07h.54Zm0,2.15h-.54v1.08h.54Zm0,2.15h-.54v1.08h.54Zm0,2.15h-.54v1.08h.54Zm0,2.16h-.54v1.07h.54Zm0,2.15h-.54v1.07h.54Zm0,2.14h-.53c0,.16,0,.32,0,.49h0v0h0c0,.15,0,.3,0,.45l.54,0c0-.34,0-.69,0-1m.12,2.1-.53.06h0v0h0v0h0v0h0v0h0a.09.09,0,0,1,0,.05c0,.26.07.52.11.77l.53-.08c-.06-.33-.1-.68-.14-1m.33,2.06-.52.12a.36.36,0,0,0,0,.1h0v0h0c.06.25.13.49.2.73h0v0l.51-.15c-.09-.32-.18-.66-.26-1m.6,2-.5.2.15.37h.18l.12.24.47-.25q-.22-.45-.42-.93m.94,1.8-.44.3.07.11h0l0,0h.07l0,0h.07l0,0h.07s0,0,0,0h.05c.06.08.13.15.19.22l.4-.36a7,7,0,0,1-.62-.79m1.34,1.49-.35.41h.06c.17.14.35.28.54.41h.09l0,0h.14l.29-.45a6.68,6.68,0,0,1-.8-.6m1.68,1.09-.23.48.07,0h.14c.25.11.51.21.79.31l.17-.52a7.06,7.06,0,0,1-.94-.37m1.92.65-.12.52c.26.06.52.11.79.15h.15l.12,0,.07-.53c-.35-.05-.69-.11-1-.18m2,.27,0,.54h1.08v-.54h-.18c-.3,0-.59,0-.87,0m3.17,0-1,0h-.09V57h1.07Zm2-.29a10.05,10.05,0,0,1-1,.19l.07.53.67-.11h.26a.31.31,0,0,0,.13,0Zm1.91-.66a8.61,8.61,0,0,1-.93.38l.17.51.44-.16h.15l.41-.18Zm1.66-1.12a6,6,0,0,1-.79.62l.3.44.1-.06h.09s0,0,0,0H203l.08-.06h0l.21-.16h0a.23.23,0,0,1,.07-.07h.07v0h.09Zm1.29-1.52a8,8,0,0,1-.59.81l.41.34h0l0,0h.05a.1.1,0,0,0,0,0h0l.05-.06h0l.05-.06h0l0,0h0l0,0h.05l0,0h0l.05-.07h0l0,0Zm.9-1.83c-.13.33-.26.65-.4.94l.48.24c.06-.13.12-.25.17-.38l0,0v0h0v0h.14l.07-.19Zm.55-2c-.07.35-.15.69-.24,1l.52.14s0-.11,0-.17h0l.12-.5h0v0h0a1.16,1.16,0,0,1,0-.18Zm.29-2.07c0,.36-.07.71-.12,1l.54.07.09-.78h0v0h0c0-.07,0-.14,0-.2Zm.1-2.11c0,.36,0,.72,0,1.06l.54,0c0-.35,0-.71,0-1.07Zm.54-2.15h-.54v1.08h.54Zm0-2.15h-.54v1.08h.54Zm0-2.15h-.54v1.08h.54Zm0-2.15h-.54v1.07h.54Zm0-2.15h-.54v1.07h.54Zm0-2.15h-.54V33h.54Zm0-2.16h-.54v1.08h.54Zm0-2.15h-.54v1.08h.54Zm0-2.15h-.54v1.08h.54Zm0-2.15h-.54v1.07h.54Zm0-2.16h-.54v1.08h.54Zm0-2.15h-.54v1.08h.54Zm0-2.15h-.54V18h.54Zm0-2.15h-.54V15.8h.54v-.72h0v-.26m-.11-2.15-.54.05c0,.34.06.69.08,1l.53,0a1.62,1.62,0,0,0,0-.22h0v0h0l-.06-.69h0m-.33-2.13-.52.12q.1.5.18,1l.54-.08h0v0h0a0,0,0,0,0,0,0h0v0h0s0,0,0,0h0c0-.11,0-.23-.07-.35h0v0l0-.12m-.62-2-.5.2c.12.31.24.63.34,1l.51-.16a10,10,0,0,0-.35-1m-1-1.89-.43.31a8.25,8.25,0,0,1,.53.86l.47-.26c-.07-.13-.14-.26-.22-.39h0l0,0h0l0,0h0l0-.06h0l-.06-.09h0l-.05-.06h0M203.3,5l-.33.42a6.68,6.68,0,0,1,.73.68l.39-.37h0l0,0h0l-.34-.33h0s0,0,0,0h-.13l0,0h0L203.3,5m-1.85-1.09-.21.5a6.3,6.3,0,0,1,.9.45l.27-.47-.3-.16h-.28l-.38-.18m-2.06-.61-.1.53c.34.06.68.15,1,.24l.15-.52h0l-.06,0L200,3.39h-.37l-.26,0M197.26,3l0,.54c.36,0,.71,0,1,.08l.06-.54L197.26,3m-2.68,45.87-.25.47a3.2,3.2,0,0,0,1.23.35l.05-.53a2.78,2.78,0,0,1-1-.28h0Zm-1.25-1.68-.52.16a3.65,3.65,0,0,0,.54,1.12l.43-.31a3.47,3.47,0,0,1-.45-1m-.25-2.13h-.54v.07c0,.38,0,.74.05,1.06l.53-.05a8.38,8.38,0,0,1,0-.88v0h0Zm0-2.15h-.54V44h.54Zm0-2.15h-.54v1.07h.54Zm0-2.15h-.54v1.07h.54Zm0-2.16h-.54v1.08h.54Zm0-2.15h-.54v1.08h.54Zm0-2.15h-.54v1.08h.54Zm0-2.15h-.54v1.08h.54Zm0-2.15h-.54v1.07h.54Zm0-2.15h-.54v1.07h.54Zm0-2.16h-.54v1.08h.54Zm0-2.15h-.54v1.08h.54Zm0-2.15h-.54v1.07h.54Zm0-2.15h-.54v1.07h.54Zm0-2.16h-.54V16h.54Zm-.35-2.26a7.42,7.42,0,0,0-.16,1.15l.53,0,0-.29h0c0-.17,0-.33.07-.48h0v0l0-.11Zm1.37-2.1a2.57,2.57,0,0,0-.93.95l.46.27h.09a2.07,2.07,0,0,1,.59-.59h.07Zm1.82-.44a5.74,5.74,0,0,0-.6,0l.07.54h.7l.37,0,.09-.53a3.22,3.22,0,0,0-.63,0m1.85.55-.32.43a2.31,2.31,0,0,1,.62.69h.06v0h0l.47-.26a2.9,2.9,0,0,0-.85-1M199,12.82l-.53.12a5.64,5.64,0,0,1,.15,1.06l.54,0a7.42,7.42,0,0,0-.16-1.15m.19,2.26h-.54v1.08h.54Zm0,2.15h-.54v1.08h.54Zm0,2.15h-.54v1.08h.54Zm0,2.15h-.54v1.08h.54Zm0,2.16h-.54v1.07h.54Zm0,2.15h-.54v1.08h.54Zm0,2.15h-.54v1.08h.54Zm0,2.15h-.54v1.08h.54Zm0,2.16h-.54v1.07h.54Zm0,2.15h-.54v1.07h.54Zm0,2.15h-.54v1.08h.54Zm0,2.15h-.54v1.08h.54Zm0,2.15h-.54V42h.54Zm0,2.15h-.54v1.08h.54Zm-.54,2.16a2.72,2.72,0,0,1,0,.28v0h0v0c0,.2,0,.39,0,.58l.53.06c0-.34.05-.71.06-1.13Zm-.25,2.13a3.82,3.82,0,0,1-.25.62h-.09l-.12.18.43.33a3.9,3.9,0,0,0,.55-1.14ZM197.15,49a2.29,2.29,0,0,1-.37.12h-.19a2.46,2.46,0,0,1-.49,0l0,.54a3.22,3.22,0,0,0,1.24-.26Z"/></svg>