<svg id="Layer_1" data-name="Layer 1" xmlns="http://www.w3.org/2000/svg" viewBox="0 0 300 60"><defs><style>.cls-1{fill:#fff;}</style></defs><title>Dyspatch-Logo-White</title><path class="cls-1" d="M43.52,29.55a34.53,34.53,0,0,1-9.28,2.61v7.23h-1.9a20.17,20.17,0,0,1-3.43-.32,49,49,0,0,1-13.79-4.88C11.39,32.23,5.87,28.7,3,23.94V48.16H59.23V18.36l-2.06,2.35C52.85,25.24,46.55,28.27,43.52,29.55Z"/><path class="cls-1" d="M54.42,8.05H7.87A4.87,4.87,0,0,0,3,12.92v4.69c0,5.94,6.06,11.26,13,14.91A46.83,46.83,0,0,0,29.23,37.2a18.45,18.45,0,0,0,3.11.3V30.38a29.05,29.05,0,0,0,10.44-2.57c6.28-2.66,13.4-7.16,16-12.52a9.92,9.92,0,0,0,.53-2.43A4.85,4.85,0,0,0,54.42,8.05Z"/><path class="cls-1" d="M116.15,26.65a20.32,20.32,0,0,1-1.46,7.77,18,18,0,0,1-4.08,6.15,18.62,18.62,0,0,1-6.36,4A22.42,22.42,0,0,1,96,46.07H81.55a.62.62,0,0,1-.62-.62V7.88a.62.62,0,0,1,.62-.62H96a22.21,22.21,0,0,1,8.24,1.46,18.93,18.93,0,0,1,6.36,4,17.85,17.85,0,0,1,4.08,6.14,20.24,20.24,0,0,1,1.46,7.74m-9.22,0a17.07,17.07,0,0,0-.74-5.19A11.11,11.11,0,0,0,104,17.53a9.25,9.25,0,0,0-3.42-2.48A11.59,11.59,0,0,0,96,14.18h-5.4a.63.63,0,0,0-.62.63V38.52a.62.62,0,0,0,.62.62H96a11.59,11.59,0,0,0,4.61-.86A9.25,9.25,0,0,0,104,35.8a11.11,11.11,0,0,0,2.15-3.93,17.18,17.18,0,0,0,.74-5.22"/><path class="cls-1" d="M145.53,18.45a.62.62,0,0,1,.57.86L132.76,51.14a2.35,2.35,0,0,1-2.61,1.6H125a.62.62,0,0,1-.56-.89l3.73-8a.61.61,0,0,0,0-.51L117.6,19.32a.62.62,0,0,1,.57-.87h6.34a2.29,2.29,0,0,1,1.48.42,2.55,2.55,0,0,1,.76,1l4.53,11.91s0,0,0,0l.62,1.59a.51.51,0,0,0,.94,0l.63-1.59,0-.09,4.1-11.86a2.18,2.18,0,0,1,.85-1,2.32,2.32,0,0,1,1.33-.41Z"/><path class="cls-1" d="M179.44,20.87a.62.62,0,0,0,1,.27,14.1,14.1,0,0,1,3-2.12,10.23,10.23,0,0,1,4.91-1.11,8.53,8.53,0,0,1,4,1,9.27,9.27,0,0,1,3.17,2.77,13.85,13.85,0,0,1,2.09,4.44,21.26,21.26,0,0,1,.76,6,18.31,18.31,0,0,1-.87,5.76,14.4,14.4,0,0,1-2.42,4.58,11.14,11.14,0,0,1-3.73,3,10.66,10.66,0,0,1-4.81,1.09,9.57,9.57,0,0,1-3.62-.61,10.29,10.29,0,0,1-1.7-.92.62.62,0,0,0-1,.52v6.63a.63.63,0,0,1-.63.62h-7a.62.62,0,0,1-.62-.62v-33a.62.62,0,0,1,.62-.62h4.49a2,2,0,0,1,2,1.38Zm.81,17.43a.66.66,0,0,0,.17.45A5.46,5.46,0,0,0,182.27,40a6.33,6.33,0,0,0,2.29.42,4.93,4.93,0,0,0,2.11-.45,4.28,4.28,0,0,0,1.66-1.45,7.83,7.83,0,0,0,1.11-2.6,16.56,16.56,0,0,0,.4-3.89,18.06,18.06,0,0,0-.32-3.67,7.7,7.7,0,0,0-.9-2.41,3.38,3.38,0,0,0-1.37-1.32,3.88,3.88,0,0,0-1.78-.4,6,6,0,0,0-3,.66,8,8,0,0,0-2.08,1.77.61.61,0,0,0-.15.41Z"/><path class="cls-1" d="M205.25,20.37A16.43,16.43,0,0,1,208.19,19a19.42,19.42,0,0,1,6.54-1.08,11.82,11.82,0,0,1,4.52.82A9.73,9.73,0,0,1,222.66,21a10,10,0,0,1,2.14,3.45,12.34,12.34,0,0,1,.75,4.37V45.45a.63.63,0,0,1-.63.62h-3.16a3.78,3.78,0,0,1-1.77-.32,2.42,2.42,0,0,1-1-1.33l-.27-.71a.62.62,0,0,0-1-.26c-.46.36-.91.7-1.34,1a12.7,12.7,0,0,1-2,1.13,9.73,9.73,0,0,1-2.18.69,13.49,13.49,0,0,1-2.57.23,11.26,11.26,0,0,1-3.44-.49,7.31,7.31,0,0,1-2.62-1.45,6.49,6.49,0,0,1-1.67-2.39,8.62,8.62,0,0,1-.58-3.29,6.78,6.78,0,0,1,.74-3,7.38,7.38,0,0,1,2.59-2.8,16.19,16.19,0,0,1,4.95-2.12,32.31,32.31,0,0,1,7.25-.94.63.63,0,0,0,.61-.62v-.57a5,5,0,0,0-1-3.5,3.66,3.66,0,0,0-2.84-1.08,7.31,7.31,0,0,0-2.39.32,10,10,0,0,0-1.67.72c-.49.26-1,.5-1.42.72a4,4,0,0,1-1.66.31,2.39,2.39,0,0,1-1.43-.42,3.54,3.54,0,0,1-1-1l-1.23-2.13a.62.62,0,0,1,.13-.8,17.53,17.53,0,0,1,2.22-1.57M217.5,35.49a.63.63,0,0,0-.66-.63,24.65,24.65,0,0,0-3.42.4,9.56,9.56,0,0,0-2.53.8,3.06,3.06,0,0,0-1.29,1.09,2.58,2.58,0,0,0-.36,1.33,2.32,2.32,0,0,0,.77,2,3.73,3.73,0,0,0,2.27.58,6.63,6.63,0,0,0,2.8-.56,8.58,8.58,0,0,0,2.23-1.62.66.66,0,0,0,.19-.46Z"/><path class="cls-1" d="M238.23,46.5a9.77,9.77,0,0,1-3.48-.57,6.91,6.91,0,0,1-2.53-1.63,6.79,6.79,0,0,1-1.56-2.54,9.78,9.78,0,0,1-.53-3.33l.26-11.36a10.25,10.25,0,0,0-1.15-5l-1.61-2.76a.56.56,0,0,1,.5-.82l1.86,0a.63.63,0,0,0,.63-.62l.14-6.2a1.63,1.63,0,0,1,1.81-1.28h5.19a.62.62,0,0,1,.62.62v6.83a.63.63,0,0,0,.63.62h5.6a.62.62,0,0,1,.62.62v4.4a.63.63,0,0,1-.62.63H239a.63.63,0,0,0-.63.62v13.1a2.58,2.58,0,0,0,.47,1.58,1.57,1.57,0,0,0,1.35.63A2.78,2.78,0,0,0,241,40a3.86,3.86,0,0,0,.53-.22h0a1.93,1.93,0,0,1,2.65.83l1.49,3a.62.62,0,0,1-.19.86,11.51,11.51,0,0,1-3.09,1.44,14.21,14.21,0,0,1-4.12.6"/><path class="cls-1" d="M280.22,19.59a.62.62,0,0,0,1,.5,13.48,13.48,0,0,1,2.24-1.28,10,10,0,0,1,4.17-.79,9.57,9.57,0,0,1,4,.79A8.26,8.26,0,0,1,294.58,21a9.4,9.4,0,0,1,1.81,3.33,13.8,13.8,0,0,1,.61,4.2V45.45a.62.62,0,0,1-.62.62h-7a.63.63,0,0,1-.63-.62V28.52a4.84,4.84,0,0,0-.93-3.16,3.34,3.34,0,0,0-2.75-1.13,5.79,5.79,0,0,0-2.54.57,9.94,9.94,0,0,0-2.08,1.37.62.62,0,0,0-.22.48v18.8a.63.63,0,0,1-.63.62h-7a.62.62,0,0,1-.62-.62V11.05a.62.62,0,0,1,.62-.62h7a.63.63,0,0,1,.63.62Z"/><path class="cls-1" d="M267.23,39a.7.7,0,0,0-1.12-.55h0l-1.07.82a7.35,7.35,0,0,1-1.43.8,6.11,6.11,0,0,1-2.28.36,4.92,4.92,0,0,1-4.22-2.14,10.35,10.35,0,0,1-1.53-6.1,15.19,15.19,0,0,1,.34-3.39A7.24,7.24,0,0,1,257,26.25a5,5,0,0,1,1.82-1.6,5.83,5.83,0,0,1,2.63-.56,6,6,0,0,1,2.05.3,8.06,8.06,0,0,1,1.44.65l1.06.68a.81.81,0,0,0,1.25-.68V20a1.06,1.06,0,0,0-.63-1h0a14.6,14.6,0,0,0-5.7-1,15.13,15.13,0,0,0-6,1.09,12.27,12.27,0,0,0-4.31,3,12.51,12.51,0,0,0-2.64,4.5,16.91,16.91,0,0,0-.89,5.58,16.92,16.92,0,0,0,1,6.08,13.28,13.28,0,0,0,2.77,4.48,12,12,0,0,0,4.05,2.79,12.48,12.48,0,0,0,4.84,1,22.33,22.33,0,0,0,2.9-.2,14.29,14.29,0,0,0,3-.72l.73-.28a1.41,1.41,0,0,0,.85-1.3Z"/><path class="cls-1" d="M167.28,34.22a6.15,6.15,0,0,0-1.45-2,8.48,8.48,0,0,0-2.05-1.41,18.49,18.49,0,0,0-2.34-1c-.8-.29-1.58-.54-2.35-.77a19.15,19.15,0,0,1-2.05-.74,4.79,4.79,0,0,1-1.45-.89,1.65,1.65,0,0,1-.55-1.28,1.92,1.92,0,0,1,.84-1.66,4.12,4.12,0,0,1,2.41-.6,6.83,6.83,0,0,1,2,.25,12.79,12.79,0,0,1,1.53.55l.34.14h0L164,25.87a1.65,1.65,0,0,0,2.34-.81l1.33-3.27a.63.63,0,0,0-.26-.76l-2.11-1.21h0A12.9,12.9,0,0,0,161,18.29a15.15,15.15,0,0,0-2.89-.27,14.74,14.74,0,0,0-4.79.7,10.08,10.08,0,0,0-3.41,1.91,7.74,7.74,0,0,0-2,2.78,8.47,8.47,0,0,0-.68,3.35,8.36,8.36,0,0,0,.56,3.22,6.86,6.86,0,0,0,1.47,2.25,8.14,8.14,0,0,0,2.06,1.52,19.61,19.61,0,0,0,2.36,1c.8.28,1.58.53,2.36.76a16.89,16.89,0,0,1,2.06.72,5,5,0,0,1,1.47.91,1.81,1.81,0,0,1,.55,1.36,2.23,2.23,0,0,1-.18.88,2.15,2.15,0,0,1-.59.77,2.65,2.65,0,0,1-1.06.55,5.9,5.9,0,0,1-1.63.2,6.62,6.62,0,0,1-2.25-.32,10.4,10.4,0,0,1-1.56-.69l-.64-.36-2-1.14a1.71,1.71,0,0,0-2.44.84l-1.39,3.42a.64.64,0,0,0,.26.79l1.56.94,0,0a14.64,14.64,0,0,0,2.44,1.08,18.87,18.87,0,0,0,2.73.72,15,15,0,0,0,2.82.27,16.51,16.51,0,0,0,5-.69,10.59,10.59,0,0,0,3.65-2,7.88,7.88,0,0,0,2.22-3,9.46,9.46,0,0,0,.75-3.79,6.77,6.77,0,0,0-.55-2.87"/></svg>