<svg id="Layer_1" data-name="Layer 1" xmlns="http://www.w3.org/2000/svg" viewBox="0 0 300 60"><defs><style>.cls-1,.cls-2{fill:#fff;}.cls-2{fill-rule:evenodd;}</style></defs><title>Adhawk-Logo-White</title><path class="cls-1" d="M146.51,45l-3-7.5H127.35l-3,7.5h-3l12.48-30.51H137L149.52,45ZM135.44,17.26l-7.22,17.83h14.4ZM168.63,45V41.47A9.39,9.39,0,0,1,161,45.52c-5.85,0-9.84-4.48-9.84-11.56s4-11.62,9.84-11.62a9.3,9.3,0,0,1,7.68,4.12v-12h2.42V45Zm0-5.54V28.51a8.81,8.81,0,0,0-7.27-4.05c-4.89,0-7.73,4.12-7.73,9.45s2.84,9.45,7.73,9.45a8.85,8.85,0,0,0,7.27-3.91Z"/><path class="cls-2" d="M201,45V30.48H181.62V45H179V14.47h2.61V28.1H201V14.47h2.61V45Z"/><path class="cls-1" d="M222.88,45V42.37a9.6,9.6,0,0,1-7.5,3.15c-3.79,0-7.73-2.6-7.73-7.36s3.88-7.32,7.73-7.32a9.55,9.55,0,0,1,7.5,3.15V29.52c0-3.29-2.65-5.08-5.91-5.08A8.65,8.65,0,0,0,210,27.69L208.67,26a10.73,10.73,0,0,1,8.51-3.7c4.48,0,8,2.14,8,7.09V45Zm0-4.35V35.78a8.18,8.18,0,0,0-6.69-3.08c-3.61,0-6,2.33-6,5.49s2.41,5.44,6,5.44A8.26,8.26,0,0,0,222.88,40.63Z"/><path class="cls-2" d="M251.2,45,245,26.08,238.81,45h-2.3l-7.2-22.09h2.56l5.85,18.75L244,22.89h2l6.3,18.75,5.85-18.76h2.56L253.5,45Zm28.86,0-8.82-10.52-4.14,3.88V45h-2.37V14.47h2.37v21l13-12.63h3.21L273,32.85,283.27,45Z"/><path class="cls-1" d="M110.77,5.33A1.35,1.35,0,0,0,109.84,3H18a1.35,1.35,0,0,0-.93,2.33L27.84,15.55a1.35,1.35,0,0,1,.29,1.56,18.79,18.79,0,0,0-2,8.92A19.18,19.18,0,0,0,45.45,44.44h9.63a1.34,1.34,0,0,1,1.17.68l6.52,11.2a1.35,1.35,0,0,0,2.34,0l6.52-11.21a1.36,1.36,0,0,1,1.17-.67h9.63A19.16,19.16,0,0,0,101.73,26a18.9,18.9,0,0,0-2-8.92,1.33,1.33,0,0,1,.29-1.55ZM51.14,29.09a7.59,7.59,0,0,1-8.25,2,7.93,7.93,0,0,1-5.39-6.79,7.52,7.52,0,0,1-.11-1A9,9,0,0,1,39.17,18c.21-.31.36-.4.67-.08.74.72,1.5,1.43,2.27,2.11.27.24.25.4,0,.67a4.4,4.4,0,0,0,.56,5.64,4,4,0,0,0,5.47,0c.28-.29.43-.24.68,0,.73.73,1.49,1.43,2.27,2.11C51.42,28.7,51.39,28.85,51.14,29.09Zm17.71,8.22-4.32,7.84a.65.65,0,0,1-.26.26.68.68,0,0,1-.92-.26L59,37.31a.65.65,0,0,1,0-.56L63.31,25a.68.68,0,0,1,.64-.43.69.69,0,0,1,.62.45l4.32,11.76A.69.69,0,0,1,68.85,37.31Zm16.78-6.44a7.87,7.87,0,0,1-8.78-1.72c-.32-.31-.34-.48,0-.78.75-.67,1.51-1.35,2.18-2,.28-.28.43-.28.73,0a4,4,0,0,0,6.67-2.2,4.17,4.17,0,0,0-.68-3.47c-.21-.3-.2-.45.07-.68.77-.68,1.52-1.39,2.26-2.11.3-.28.44-.24.67.06a8.65,8.65,0,0,1,1.75,5A8.49,8.49,0,0,1,85.63,30.87Z"/></svg>