<svg id="Layer_1" data-name="Layer 1" xmlns="http://www.w3.org/2000/svg" viewBox="0 0 300 60"><defs><style>.cls-1{fill:#fff;fill-rule:evenodd;}</style></defs><title>Elgiible-Logo-White</title><path class="cls-1" d="M25.89,41.58C25.09,40.79,11.7,26,11.7,26l3.55-3.63c3.35,3.36,8.5,7.91,8.5,7.91A80.25,80.25,0,0,1,43.5,10.68a7.35,7.35,0,0,0-4.15-1.32H10a7,7,0,0,0-7,6.85V44.75a7,7,0,0,0,7,6.85H39.35a7,7,0,0,0,7-6.86V16.21A6.75,6.75,0,0,0,44.91,12c-10.25,9.16-19,29.58-19,29.58M67.2,10H90.89a20,20,0,0,1,.34,3.49,21.58,21.58,0,0,1-.34,3.63H75.7V26h12a22,22,0,0,1,.33,3.55,21.68,21.68,0,0,1-.33,3.63h-12V44H91.29a20,20,0,0,1,.34,3.49,21.58,21.58,0,0,1-.34,3.63H67.2Zm32.26,0a30.28,30.28,0,0,1,4.15-.33,31.57,31.57,0,0,1,4.22.33V43.82h14.46a9.49,9.49,0,0,1,.2,1.85,14,14,0,0,1,.07,1.71,15.05,15.05,0,0,1-.07,1.78c-.07.59-.14,1.19-.2,1.85H99.46V10Zm30.06,0a29.85,29.85,0,0,1,4.21-.33A31.71,31.71,0,0,1,138,10V51a33.32,33.32,0,0,1-4.22.33,32.46,32.46,0,0,1-4.28-.33Zm41,19.77a26.7,26.7,0,0,1,8.37,0V49.89a28.91,28.91,0,0,1-6.3,1.45,49.21,49.21,0,0,1-5.68.39,23.7,23.7,0,0,1-9-1.58,16.88,16.88,0,0,1-6.36-4.42A18.49,18.49,0,0,1,147.79,39a26.24,26.24,0,0,1-1.27-8.43,26.94,26.94,0,0,1,1.34-8.5,19.4,19.4,0,0,1,3.88-6.79A17.82,17.82,0,0,1,158,10.81a20.88,20.88,0,0,1,8.36-1.58,42,42,0,0,1,5.22.33,18.92,18.92,0,0,1,5,1.45,14.91,14.91,0,0,1-.66,3.36,34.31,34.31,0,0,1-1.28,3.29,24.69,24.69,0,0,0-3.61-1,21.27,21.27,0,0,0-3.68-.26c-3.69,0-6.56,1.19-8.57,3.56s-3,5.93-3,10.61,1,8.17,2.94,10.48,4.89,3.42,8.7,3.42a11.8,11.8,0,0,0,1.74-.13c.54-.07,1-.13,1.41-.2V29.72ZM187.89,10a30,30,0,0,1,4.22-.33,31.69,31.69,0,0,1,4.28.33V51a33.32,33.32,0,0,1-4.22.33,32.46,32.46,0,0,1-4.28-.33Zm18.21-.07c1.2-.19,2.67-.32,4.28-.46,2-.14,4.06-.21,6.09-.19a34.81,34.81,0,0,1,6,.52,15.72,15.72,0,0,1,4.95,1.72,8.82,8.82,0,0,1,3.35,3.29A10.15,10.15,0,0,1,232,19.9a11.36,11.36,0,0,1-.53,3.43A9.3,9.3,0,0,1,230,26.1,7.89,7.89,0,0,1,227.92,28a5,5,0,0,1-2.41.92,14.77,14.77,0,0,1,2.94.79,10.51,10.51,0,0,1,3,1.85,9.9,9.9,0,0,1,2.34,3.16,11.05,11.05,0,0,1,.94,4.68,11.62,11.62,0,0,1-1.41,6.06,10.36,10.36,0,0,1-3.82,3.76A17.91,17.91,0,0,1,224,51.14a43.41,43.41,0,0,1-6.63.53c-1.81,0-3.55-.07-5.29-.14s-3.68-.26-5.89-.52V9.89h-.06Zm11,16.74a11.4,11.4,0,0,0,2.68-.26,6.64,6.64,0,0,0,2.21-.92,5.61,5.61,0,0,0,1.47-1.78,6.84,6.84,0,0,0,.54-2.84,5.42,5.42,0,0,0-.6-2.7,4.57,4.57,0,0,0-1.54-1.64,5.67,5.67,0,0,0-2.14-.8,15.41,15.41,0,0,0-2.35-.19,16.31,16.31,0,0,0-2.74.19V26.62Zm-2.61,18.13c.54.06,1.14.13,1.88.19a19.21,19.21,0,0,0,1.94.07,17.45,17.45,0,0,0,2.54-.2A7.76,7.76,0,0,0,223.3,44a5.81,5.81,0,0,0,1.94-1.85,5.21,5.21,0,0,0,.74-3,6.41,6.41,0,0,0-.61-3,5.11,5.11,0,0,0-1.67-1.91,7.51,7.51,0,0,0-2.54-1,17.66,17.66,0,0,0-3.28-.26h-3.42Zm28-34.8a30.41,30.41,0,0,1,4.15-.33,31.57,31.57,0,0,1,4.22.33V43.82h14.46a9.49,9.49,0,0,1,.2,1.85,16.29,16.29,0,0,1,.06,1.71,17.54,17.54,0,0,1-.06,1.78c-.07.59-.14,1.19-.2,1.85H242.51Zm30.06,0h23.69a20,20,0,0,1,.34,3.49,21.58,21.58,0,0,1-.34,3.63H281.07V26h12.05a22,22,0,0,1,.33,3.55,21.68,21.68,0,0,1-.33,3.63H281.07V44h15.59a19.12,19.12,0,0,1,.34,3.49,20.59,20.59,0,0,1-.34,3.63H272.57Z"/></svg>