<svg id="Layer_1" data-name="Layer 1" xmlns="http://www.w3.org/2000/svg" viewBox="0 0 300 60"><defs><style>.cls-1{fill:#fff;}</style></defs><title>Petnet-Logo-White</title><path class="cls-1" d="M66.7,18.88H85.45c8.42,0,13,5.67,13,12.46s-4.61,12.3-13,12.3H76.36V56.33H66.7ZM84.16,27h-7.8v8.42h7.8c2.58,0,4.49-1.63,4.49-4.16A4.18,4.18,0,0,0,84.16,27Z"/><path class="cls-1" d="M114.2,28.53c8,0,13.87,5.9,13.87,15.11v1.85H108.76c.5,2.53,2.86,4.83,6.9,4.83a10.79,10.79,0,0,0,6.63-2.3l3.65,5.39c-2.7,2.41-7.19,3.59-11.34,3.59-8.37,0-14.83-5.45-14.83-14.26A14,14,0,0,1,114.2,28.53Zm-5.56,11.35h11.18a5.22,5.22,0,0,0-5.62-4.67A5.37,5.37,0,0,0,108.64,39.88Z"/><path class="cls-1" d="M134.14,49V36.73h-4.49V29.21h4.49V21.8h8.59v7.41h5.5v7.52h-5.5v9.88a2.46,2.46,0,0,0,2.41,2.75,3.33,3.33,0,0,0,2.19-.67L149,55.2c-1.07,1-3.2,1.8-6.4,1.8C137.11,57,134.14,54.25,134.14,49Z"/><path class="cls-1" d="M170.92,40.66c0-3.31-1.75-4.49-4.44-4.49a6.69,6.69,0,0,0-5.28,2.64V56.33h-8.64V29.21h8.64v3.31a12.26,12.26,0,0,1,9.38-4c6.17,0,9,3.6,9,8.59V56.33h-8.64Z"/><path class="cls-1" d="M198.49,28.53c8,0,13.86,5.9,13.86,15.11v1.85H193c.51,2.53,2.86,4.83,6.91,4.83a10.76,10.76,0,0,0,6.62-2.3l3.65,5.39C207.53,55.82,203,57,198.88,57c-8.37,0-14.82-5.45-14.82-14.26A14,14,0,0,1,198.49,28.53Zm-5.56,11.35H204.1a5.21,5.21,0,0,0-5.61-4.67A5.36,5.36,0,0,0,192.93,39.88Z"/><path class="cls-1" d="M218.42,49V36.73h-4.49V29.21h4.49V21.8H227v7.41h5.51v7.52H227v9.88a2.46,2.46,0,0,0,2.42,2.75,3.35,3.35,0,0,0,2.19-.67l1.68,6.51c-1.07,1-3.2,1.8-6.4,1.8C221.4,57,218.42,54.25,218.42,49Z"/><path class="cls-1" d="M181.59,12a1.36,1.36,0,0,1-1-.4,20,20,0,0,0-28.21,0,1.37,1.37,0,1,1-1.94-1.94,22.72,22.72,0,0,1,32.08,0,1.38,1.38,0,0,1,0,1.94A1.41,1.41,0,0,1,181.59,12Z"/><path class="cls-1" d="M173.69,22.39a1.36,1.36,0,0,1-1-.4,8.78,8.78,0,0,0-12.39,0,1.37,1.37,0,0,1-1.94-1.93,11.52,11.52,0,0,1,16.26,0,1.35,1.35,0,0,1,0,1.93A1.32,1.32,0,0,1,173.69,22.39Z"/><path class="cls-1" d="M177.58,17.23a1.36,1.36,0,0,1-1-.4,14.28,14.28,0,0,0-20.17,0,1.37,1.37,0,0,1-1.94-1.93,17,17,0,0,1,24,0,1.37,1.37,0,0,1-1,2.33Z"/></svg>