<svg id="Layer_1" data-name="Layer 1" xmlns="http://www.w3.org/2000/svg" viewBox="0 0 300 60"><defs><style>.cls-1{fill:#fff;}</style></defs><title>GoFetchHealth-Logo-White</title><path class="cls-1" d="M25.39,36.68a6.46,6.46,0,1,1,6.46-6.46A6.47,6.47,0,0,1,25.39,36.68Zm0-10.41a3.95,3.95,0,1,0,3.95,3.95A4,4,0,0,0,25.39,26.27Z"/><path class="cls-1" d="M31.77,14.19A4.93,4.93,0,1,1,36.7,9.26,4.93,4.93,0,0,1,31.77,14.19Zm0-7.36A2.43,2.43,0,1,0,34.2,9.26,2.43,2.43,0,0,0,31.77,6.83Z"/><path class="cls-1" d="M43.1,23A4.93,4.93,0,1,1,48,18.08,4.93,4.93,0,0,1,43.1,23Zm0-7.35a2.43,2.43,0,1,0,2.43,2.42A2.43,2.43,0,0,0,43.1,15.66Z"/><path class="cls-1" d="M19.26,14.19a4.93,4.93,0,1,1,4.93-4.93A4.93,4.93,0,0,1,19.26,14.19Zm0-7.36a2.43,2.43,0,1,0,2.43,2.43A2.43,2.43,0,0,0,19.26,6.83Z"/><path class="cls-1" d="M7.93,23a4.93,4.93,0,1,1,4.93-4.93A4.93,4.93,0,0,1,7.93,23Zm0-7.35a2.43,2.43,0,1,0,2.43,2.42A2.42,2.42,0,0,0,7.93,15.66Z"/><path class="cls-1" d="M25.39,55.67a1.92,1.92,0,0,1-1.56-.78C20.76,50.81,10.76,37,10.76,30.22a14.64,14.64,0,0,1,29.27,0C40,37,30,50.81,27,54.89a1.92,1.92,0,0,1-1.56.78Zm0-37.57A12.15,12.15,0,0,0,13.26,30.22c0,4.65,6.44,14.93,12.13,22.58,5.7-7.65,12.13-17.93,12.13-22.58A12.14,12.14,0,0,0,25.39,18.1Z"/><path class="cls-1" d="M77.74,18.9a10.7,10.7,0,0,1,9.49,4.92l-4,2.22a6.48,6.48,0,0,0-5.43-2.83c-4.14,0-7.12,3.25-7.09,7.56s3.08,7.46,7.22,7.43a7.69,7.69,0,0,0,4.91-1.79l0-2.77-6.09,0,0-4.17,10.88-.1.08,8.73A12.66,12.66,0,0,1,78,42.54C71.28,42.6,65.76,38,65.7,30.81S71.07,19,77.74,18.9Z"/><path class="cls-1" d="M90.28,33.71a8.75,8.75,0,0,1,17.49-.15,8.75,8.75,0,0,1-17.49.15Zm13-.11c0-2.57-1.58-4.78-4.28-4.75s-4.19,2.25-4.17,4.82,1.55,4.81,4.25,4.79S103.27,36.2,103.25,33.6Z"/><path class="cls-1" d="M111,19l16.15-.14,0,4.17-11.29.1,0,5,11-.09,0,4.17-11,.09.08,9.52-4.86,0Z"/><path class="cls-1" d="M137.93,24.64c4.92,0,8.31,3.62,8.35,9v.95L134,34.73a4.44,4.44,0,0,0,4.79,3.79,6.71,6.71,0,0,0,4.4-1.68l1.94,2.79A10.28,10.28,0,0,1,138.35,42c-5,.05-8.86-3.31-8.9-8.61A8.41,8.41,0,0,1,137.93,24.64Zm-4,7.15,8.14-.07a3.84,3.84,0,0,0-4.1-3.63A4,4,0,0,0,133.92,31.79Z"/><path class="cls-1" d="M150.32,37.36l-.08-8.62-2.74,0,0-3.79,2.74,0,0-4.51,4.38,0,0,4.51,3.35,0,0,3.8-3.35,0,.06,7.46c0,1,.57,1.81,1.53,1.8a2.41,2.41,0,0,0,1.5-.49l.95,3.27a5.37,5.37,0,0,1-3.62,1.1C152,41.86,150.34,40.3,150.32,37.36Z"/><path class="cls-1" d="M168.61,24.37a7.72,7.72,0,0,1,6.56,2.92L172.35,30a4,4,0,0,0-3.5-1.74c-2.64,0-4.47,2-4.44,4.82s1.88,4.81,4.52,4.79A4.16,4.16,0,0,0,172.4,36l2.87,2.61a7.63,7.63,0,0,1-6.51,3.07,8.4,8.4,0,0,1-8.84-8.62A8.39,8.39,0,0,1,168.61,24.37Z"/><path class="cls-1" d="M189.22,31.07c0-2.29-1.22-3-3.1-3a4.81,4.81,0,0,0-3.75,2l.1,11.12-4.35,0-.2-22.82,4.35,0,.07,8.45a7.66,7.66,0,0,1,5.8-2.62c3.62,0,5.39,1.94,5.41,5.15l.11,11.74-4.35,0Z"/><path class="cls-1" d="M223.73,30l-14.47.13L209.35,41l-1.95,0-.2-22.82,2,0,.09,10.2,14.48-.13L223.63,18l2,0,.2,22.82-2,0Z"/><path class="cls-1" d="M238.25,23.77c5-.05,7.83,3.93,7.87,8.68v.48l-13.82.12c.2,3.6,2.62,6.55,6.52,6.52a7.24,7.24,0,0,0,5.38-2.34l.94,1.15a8.54,8.54,0,0,1-6.44,2.73c-4.83,0-8.32-3.52-8.36-8.62C230.31,27.7,233.66,23.8,238.25,23.77Zm-6,7.88,12-.1c-.06-2.81-1.94-6.28-6.07-6.24C234.33,25.34,232.4,28.78,232.29,31.65Z"/><path class="cls-1" d="M261.26,38.55A7.21,7.21,0,0,1,255.67,41a5.53,5.53,0,0,1-5.83-5.46c0-3.59,2.86-5.5,5.73-5.52a7.15,7.15,0,0,1,5.64,2.31l0-3.35c0-2.47-2-3.78-4.48-3.76a6.44,6.44,0,0,0-5.15,2.47l-1-1.22a8,8,0,0,1,6.34-2.83c3.35,0,6,1.56,6.06,5.25l.11,11.64h-1.78Zm0-4.93a6.25,6.25,0,0,0-5-2.25c-2.74,0-4.5,1.79-4.48,4.15s1.82,4.06,4.55,4a6.17,6.17,0,0,0,5-2.3Z"/><path class="cls-1" d="M267.14,17.62l1.78,0,.2,22.82-1.78,0Z"/><path class="cls-1" d="M275,37.19l-.1-11.77-2.74,0V23.87l2.74,0,0-4.52,1.81,0,0,4.52,3.35,0,0,1.57-3.36,0,.1,11.5c0,1.33.57,2.25,1.74,2.24a2.63,2.63,0,0,0,1.84-.8l.69,1.36a3.69,3.69,0,0,1-2.79,1C276.07,40.77,275,39.45,275,37.19Z"/><path class="cls-1" d="M295.12,28.94c0-3.18-1.64-4.06-4-4a7,7,0,0,0-5.34,2.89l.11,12.49h-1.78l-.2-22.82h1.78l.07,8.79a8.39,8.39,0,0,1,5.93-3c3.35,0,5.22,1.53,5.25,5.26l.1,11.63h-1.78Z"/></svg>