<svg id="Layer_1" data-name="Layer 1" xmlns="http://www.w3.org/2000/svg" viewBox="0 0 300 60"><defs><style>.cls-1{fill:#fff;}</style></defs><title>Uppercase-Logo-White</title><path class="cls-1" d="M71.93,38.36a8,8,0,0,1-8.13-8.21c0-5.31,3.78-8.45,8.13-8.45s8,3.41,8,8.45a7.8,7.8,0,0,1-8,8.21m.75-22.44c-3.61,0-7.28,1.66-8.94,4.56v-4H57.83V57h5.91V39.63c1.66,3,5.33,4.45,8.94,4.45,7.22,0,13.3-5.43,13.3-14S79.9,15.94,72.68,15.94m30.55,22.42a8,8,0,0,1-8.14-8.21c0-5.31,3.78-8.45,8.14-8.45s8,3.41,8,8.45a7.8,7.8,0,0,1-8,8.21M104,15.92c-3.61,0-7.28,1.66-8.94,4.56v-4h-5.9V57H95V39.63c1.66,3,5.33,4.45,8.94,4.45,7.22,0,13.3-5.43,13.3-14S111.19,15.94,104,15.94m21.79,11.85c.57-4.14,3.78-6.63,7.9-6.63a7.28,7.28,0,0,1,7.62,6.63Zm7.9-11.85c-7.62,0-13.75,5.43-13.75,14S126,44.1,133.66,44.1c5.05,0,10-2.2,12.39-6.94-1.55-.69-3.32-1.45-4.82-2.14A8.24,8.24,0,0,1,134,38.89c-4.3,0-7.62-2.6-8.19-6.76H147c.06-.58.06-1.56.06-2.2,0-8.56-5.8-14-13.42-14Zm34.71,0h-4c-3.31,0-5.87,2-7.25,6.76V16.5H151.2v27h5.91V33.79c0-7.17,2.2-12.26,7.24-12.26h4ZM207.93,38.3a8.12,8.12,0,0,1-8.2-8.38,8,8,0,0,1,8.2-8.22,8.07,8.07,0,0,1,8.25,8.22A8,8,0,0,1,207.93,38.3Zm8.31-18c-1.83-3.06-5.8-4.39-9-4.39-7.22,0-13.58,5.43-13.58,14.05S200,44.08,207.24,44.08c3.32,0,7.22-1.51,9-4.46V43.5h5.85v-27h-5.85Zm22.88,7.73L235,27c-1.43-.41-2.92-1-3.27-2.07a2.82,2.82,0,0,1,.23-2.42c.58-.93,2.3-1.51,3.79-1.51,1.83,0,3.67.87,3.89,2.9h5.62c-.34-5.8-5-8-9.74-8-4.93,0-9.23,3.12-9.57,7.11-.35,4.33,1.72,7.22,7.39,8.79l3.61.87c2,.46,3.73,1.44,3.73,3.17,0,2-2.07,3.24-4.76,3.24-3.09,0-5-1.56-5.27-3.87h-5.43c.11,5.66,5.27,8.85,10.26,8.85,6.13,0,10.66-3,10.66-8.16,0-2.72-1.2-6.42-7-7.87m15.31-.29c.57-4.14,3.78-6.63,7.91-6.63A7.29,7.29,0,0,1,270,27.79Zm21.32,2.14c0-8.56-5.8-14-13.41-14s-13.76,5.43-13.76,14,6.14,14.17,13.76,14.17c5,0,10-2.2,12.38-6.94-1.55-.69-3.32-1.45-4.81-2.14a8.23,8.23,0,0,1-7.28,3.87c-4.3,0-7.63-2.6-8.2-6.76h21.25c.06-.58.06-1.56.06-2.2Zm-93.24,8.42A8.32,8.32,0,0,1,174.19,30v-.13a8,8,0,0,1,2.17-5.61c.14-.16.28-.3.42-.44a8.63,8.63,0,0,1,11.42,0,4.27,4.27,0,0,1,.41.44l.21.23,3.73-4.61a13.89,13.89,0,0,0-10-4h-.23a13.85,13.85,0,0,0-9.6,3.62,13.59,13.59,0,0,0-4.44,10.36,14,14,0,0,0,3.41,9.41h0a13.77,13.77,0,0,0,10.66,4.74h.23a13.89,13.89,0,0,0,10-4l-3.78-4.65a8.47,8.47,0,0,1-6.33,2.93m-135-8.65a8.48,8.48,0,1,1-17,0V3H24.25V29.68c0,8.73,6.76,14.4,14.67,14.4s14.62-5.67,14.62-14.4V3H47.4Z"/></svg>