<svg id="Layer_1" data-name="Layer 1" xmlns="http://www.w3.org/2000/svg" viewBox="0 0 300 60"><defs><style>.cls-1,.cls-2{fill:#fff;}.cls-2{fill-rule:evenodd;}</style></defs><title>CareGuide-Logo-White</title><path class="cls-1" d="M22.5,19.39A8.45,8.45,0,0,1,31,25.2l9.92-3.45A18.08,18.08,0,0,0,22.37,9.93C10.47,10,2,19,2,31.53s8.47,21.59,20.5,21.59A17.89,17.89,0,0,0,40.89,41.39L31.1,37.94a8.45,8.45,0,0,1-8.47,5.77c-6.06,0-9.36-5-9.36-12.18s3.17-12.14,9.23-12.14Z"/><path class="cls-2" d="M72.48,43c0,1.09.43,1.74,1.15,1.74a7.39,7.39,0,0,0,2.2-.12v6.54a24.69,24.69,0,0,1-7.54,1.58c-2.58,0-4.4-.81-5-3.49A18.59,18.59,0,0,1,52.58,53a9.26,9.26,0,0,1-7-2.39A8.45,8.45,0,0,1,42.87,44c0-6.78,5.77-8.64,10-9.17.54-.07,1.19-.13,1.89-.19,3.33-.31,7.81-.72,7.81-2.94,0-2-1.44-2.84-3.81-2.84a5.27,5.27,0,0,0-5.17,3.33L45.42,29.3c1.48-3.9,4-7.75,13.85-7.75S72.48,25.89,72.48,31.9V43ZM57.74,46.55a13.49,13.49,0,0,0,4.79-1.79l0-6a17.1,17.1,0,0,1-4.24.93c-3.3.32-4.74,1.66-4.74,4.06S55.46,46.91,57.74,46.55Z"/><path class="cls-1" d="M89.89,26.38a4.91,4.91,0,0,0-2-3.36A5.4,5.4,0,0,0,84,22a24.65,24.65,0,0,0-7.54,1.59v6.94a7.37,7.37,0,0,1,2.2,0c.72,0,1.1.65,1.1,1.74V52.19H90V33.77a6.15,6.15,0,0,1,4.74-2.72,9,9,0,0,1,4.24.81L102.47,23a8.74,8.74,0,0,0-7.12-1.14,8.38,8.38,0,0,0-5.46,4.55Z"/><path class="cls-2" d="M105.42,26.13a15.76,15.76,0,0,1,11.46-4.54,15.56,15.56,0,0,1,11.24,4.61,14.22,14.22,0,0,1,4.09,11.05L111,42a5.56,5.56,0,0,0,5.72,3,7.53,7.53,0,0,0,6.9-4.06l8.18,2.84a16.26,16.26,0,0,1-15.13,9.3,15.65,15.65,0,0,1-11.43-4.61,14.27,14.27,0,0,1-4.11-11.22A14.45,14.45,0,0,1,105.42,26.13Zm11,3.37a6.52,6.52,0,0,0-6.27,6.09l12.58-2.76A6.11,6.11,0,0,0,116.37,29.5Z"/><path class="cls-1" d="M163,42.77a29.54,29.54,0,0,1-5.63.57c-6.19,0-10.8-4.06-10.8-11.85s4.53-12.18,11-12.18a11.59,11.59,0,0,1,9.06,4.06l6.74-6.74a20.84,20.84,0,0,0-16-6.82,21.89,21.89,0,0,0-16,6.43,20.05,20.05,0,0,0-5.8,15.66,19.46,19.46,0,0,0,5.91,15.27,21.29,21.29,0,0,0,15.82,6,27.78,27.78,0,0,0,16.57-5V32.75H163Zm45.75,1.59c-.72,0-1.1-.65-1.1-1.75V22.52H197.4V42a9,9,0,0,1-5.21,2.16c-4.74,0-5.17-3.33-5.17-7.27V22.52H176.81V42c0,7.76,4.75,11.13,10,11.13a15.08,15.08,0,0,0,10.76-4.75,4.81,4.81,0,0,0,1.91,3.34,5.27,5.27,0,0,0,3.85,1,25,25,0,0,0,7.54-1.58V44.07A7.5,7.5,0,0,1,208.71,44.36ZM220.15,22a24.65,24.65,0,0,0-7.54,1.59v6.94a7.37,7.37,0,0,1,2.2,0c.72,0,1.1.65,1.1,1.74V52.19h10.21V27.84a5,5,0,0,0-1.46-4.36A5.52,5.52,0,0,0,220.15,22Z"/><path class="cls-2" d="M262.08,42.73c0,1.1.38,1.75,1.1,1.75a7.54,7.54,0,0,0,2.12-.12v7a24.69,24.69,0,0,1-7.54,1.58,4.32,4.32,0,0,1-3.27-1,4,4,0,0,1-1.39-3,13.34,13.34,0,0,1-9.66,4.06c-8.47,0-14.19-7-14.19-15.79s5.93-15.75,14.4-15.75a12.75,12.75,0,0,1,8.26,2.93V8.55h10.17V42.73Zm-17.2,1.34a6.43,6.43,0,0,0,7-5.23l0-5.24a9.09,9.09,0,0,0-7.11-3.86c-3.82,0-6.19,2.44-6.19,7.11s2.37,7.22,6.31,7.22ZM276.78,42a5.56,5.56,0,0,0,5.72,3,7.53,7.53,0,0,0,6.82-4.1l8.17,2.84a16.24,16.24,0,0,1-15.12,9.3,15.66,15.66,0,0,1-11.44-4.61,14.34,14.34,0,0,1-4.11-11.22,14.48,14.48,0,0,1,4.26-11.17,15.77,15.77,0,0,1,11.46-4.54,15.58,15.58,0,0,1,11.32,4.59A14.27,14.27,0,0,1,298,37.25L276.78,42Zm11.56-9.21A6.11,6.11,0,0,0,282,29.46a6.51,6.51,0,0,0-6.14,6.13l12.45-2.8Z"/><path class="cls-1" d="M223.15,6.93a3.71,3.71,0,0,0-3.09,1.62,3.73,3.73,0,0,0-4.7-1.39,3.43,3.43,0,0,0-1.86,4.36c1,3.37,6.39,7,6.56,7.1,0,0,5.55-3.77,6.57-7.1a3.42,3.42,0,0,0-.51-3.15A3.71,3.71,0,0,0,223.15,6.93Z"/></svg>