<svg id="Layer_1" data-name="Layer 1" xmlns="http://www.w3.org/2000/svg" viewBox="0 0 300 60"><defs><style>.cls-1{fill:#fff;}</style></defs><title>Otter-Logo-White</title><rect class="cls-1" x="161.51" y="4.23" width="13.77" height="52.99" rx="6.87"/><rect class="cls-1" x="141.63" y="4.23" width="13.77" height="52.99" rx="6.87"/><rect class="cls-1" x="181.39" y="20.8" width="13.77" height="19.88" rx="6.87"/><rect class="cls-1" x="201.28" y="14.17" width="13.77" height="33.14" rx="6.87"/><path class="cls-1" d="M110,44.24c6.68,0,12.08-5.82,12.08-13s-5.4-13-12.08-13S98,24,98,31.23,103.36,44.24,110,44.24Zm0,14C96.2,58.23,85,46.15,85,31.23s11.25-27,25.09-27,25.09,12.08,25.09,27S123.91,58.23,110,58.23Z"/></svg>