<svg id="Layer_1" data-name="Layer 1" xmlns="http://www.w3.org/2000/svg" viewBox="0 0 300 60"><defs><style>.cls-1{fill:#fff;}</style></defs><title>Superplastic-Logo-White</title><path class="cls-1" d="M143.56,48.71h-5.73a.49.49,0,0,1-.53-.46V13.83a.5.5,0,0,1,.48-.52h8.31c6.41,0,10.35,3.07,10.35,11.14s-4.09,11.14-10.35,11.14h-1.7a.29.29,0,0,0-.32.23V48.2a.48.48,0,0,1-.45.51Zm2-19.17c2.65,0,3.78-1.14,3.78-5.15s-1.13-5.16-3.78-5.16h-1.49a.27.27,0,0,0-.31.23.14.14,0,0,0,0,.09v9.68a.26.26,0,0,0,.22.31h1.58ZM160,48.2V13.83a.49.49,0,0,1,.46-.52h5.8a.49.49,0,0,1,.52.46V42.26a.26.26,0,0,0,.22.31h9a.49.49,0,0,1,.51.45V48.2a.48.48,0,0,1-.45.51H160.47a.48.48,0,0,1-.52-.45V48.2Zm18.25,0,7.65-34.37c.1-.31.26-.52.57-.52h6.1a.56.56,0,0,1,.57.52l7.55,34.4c.05.32-.1.52-.41.52h-5.74a.53.53,0,0,1-.57-.47v-.05l-1.14-6.4h-6.67l-1.19,6.4a.53.53,0,0,1-.55.52h-5.76a.4.4,0,0,1-.45-.32.37.37,0,0,1,0-.23Zm8.6-11.85h4.69l-2.23-12.28h-.15Zm34.75,1.86c0,7.24-2.75,10.95-9.73,10.95-6.37,0-9.38-3.39-9.52-9.48,0-.31.1-.52.42-.57l5.53-.9c.36-.05.57.1.57.41.11,3.28,1,4.59,3.05,4.59s2.79-1,2.79-4.22-.62-4.22-3.26-5.26l-2.12-.83c-5-1.93-6.67-4.58-6.67-10.26,0-6.4,3-9.84,9.31-9.84S221,16,221.23,21.6a.52.52,0,0,1-.47.57l-5.27.83a.43.43,0,0,1-.57-.41c0-2.55-.93-3.86-2.79-3.86s-2.7,1.17-2.7,3.56c0,2.66.56,3.49,3.3,4.58l2.17.84C219.68,29.61,221.55,32.18,221.55,38.21ZM236.1,48.75h-5.74a.48.48,0,0,1-.52-.45V19.76a.28.28,0,0,0-.23-.31H224a.47.47,0,0,1-.51-.45V13.83a.48.48,0,0,1,.46-.52h18.52a.49.49,0,0,1,.52.46v5.17a.49.49,0,0,1-.45.51h-5.6a.29.29,0,0,0-.32.23V48.2a.48.48,0,0,1-.45.51h-.06Zm10.12-.52V13.83a.49.49,0,0,1,.46-.52h5.8a.48.48,0,0,1,.51.46.06.06,0,0,1,0,.06v34.4a.48.48,0,0,1-.45.52h-5.8a.48.48,0,0,1-.52-.45v-.07Zm11.55-4.91c-.46-1.52-.67-3.13-.67-12.3s.21-10.77.67-12.28c1.24-3.8,4.09-5.89,8.74-5.89,5.64,0,9,3,9.26,9,0,.32-.1.57-.46.63l-5.43.91a.45.45,0,0,1-.56-.3.47.47,0,0,1,0-.17c-.1-2.8-1-3.91-2.69-3.91a2.17,2.17,0,0,0-2.34,1.62c-.21.78-.31,1.4-.31,10.41s.1,9.63.31,10.42A2.17,2.17,0,0,0,266.61,43c1.72,0,2.59-1.1,2.69-3.91a.45.45,0,0,1,.41-.49.52.52,0,0,1,.17,0l5.43.94c.36,0,.46.31.46.62-.3,5.93-3.62,8.95-9.26,8.95-4.65,0-7.5-2.08-8.74-5.88Zm26.85-18.2L297,10.84l-5.06,11.43,3.5,1.26-5.3,8.55,4.07,1.33-12.4,14.24,5.07-11.44L283.37,35l5.29-8.53Zm-269.24,0-4,1.35L16.63,35l-3.51,1.25,5.07,11.44L5.8,33.41l4.07-1.33L4.56,23.53l3.49-1.26L3,10.84ZM44.44,37.68c0,7.23-2.74,11-9.73,11-6.35,0-9.38-3.39-9.51-9.48,0-.31.1-.53.41-.57l5.54-.85c.36,0,.57.1.57.42.1,3.27,1,4.58,3.05,4.58s2.79-1,2.79-4.22-.64-4.21-3.28-5.26l-2.12-.83c-5-1.93-6.67-4.58-6.67-10.25,0-6.41,3.05-9.85,9.3-9.85s9.06,3.21,9.32,8.81a.54.54,0,0,1-.47.57l-5.27.82c-.32.06-.57-.1-.57-.41-.06-2.55-.94-3.85-2.8-3.85s-2.69,1.18-2.69,3.53c0,2.66.57,3.49,3.31,4.58l2.12.84C42.56,29.09,44.44,31.69,44.44,37.68Zm13,11c-5.85,0-9.47-3.39-9.47-10.05V13.31a.49.49,0,0,1,.46-.52h5.8a.51.51,0,0,1,.52.47V39.45c0,1.87,1,3.07,2.69,3.07s2.74-1.2,2.74-3.07V13.31a.49.49,0,0,1,.46-.52h5.8a.49.49,0,0,1,.51.47V38.62c0,6.63-3.64,10-9.54,10Zm20.33-.47H72a.49.49,0,0,1-.51-.47V13.31a.49.49,0,0,1,.46-.52h8.33c6.42,0,10.35,3.07,10.35,11.14S86.58,35.08,80.32,35.08H78.61a.26.26,0,0,0-.3.24.11.11,0,0,0,0,.08V47.67a.51.51,0,0,1-.48.53h0Zm2.34-19.11c2.64,0,3.78-1.15,3.78-5.16s-1.14-5.15-3.78-5.15H78.61a.26.26,0,0,0-.3.24.09.09,0,0,0,0,.07v9.72a.27.27,0,0,0,.23.31h.07ZM94.24,47.67V13.31a.5.5,0,0,1,.48-.52h15.4a.51.51,0,0,1,.53.48v5.14a.51.51,0,0,1-.48.53h-8.84a.26.26,0,0,0-.31.22V27a.27.27,0,0,0,.23.31h7.68a.49.49,0,0,1,.52.47v5.16a.49.49,0,0,1-.46.52h-7.66a.27.27,0,0,0-.31.23v8.1a.27.27,0,0,0,.23.31h8.87a.51.51,0,0,1,.53.48v5.14a.51.51,0,0,1-.48.53H94.77a.5.5,0,0,1-.53-.48Zm40.09.53h-6.22a.51.51,0,0,1-.57-.42l-4-13.43h-2a.27.27,0,0,0-.31.23.19.19,0,0,0,0,.08v13a.51.51,0,0,1-.48.53H115a.49.49,0,0,1-.51-.47V13.31a.48.48,0,0,1,.46-.52h8.43c6.26,0,10.29,3,10.29,10.83,0,4.48-1.5,7.4-3.9,9.06l4.8,15c.09.27,0,.53-.24.53ZM123.2,28.46c2.64,0,3.78-1.09,3.78-4.84s-1.14-4.84-3.78-4.84h-1.5a.27.27,0,0,0-.31.23v9.14a.27.27,0,0,0,.23.31h1.58Z"/></svg>