<svg id="Layer_1" data-name="Layer 1" xmlns="http://www.w3.org/2000/svg" xmlns:xlink="http://www.w3.org/1999/xlink" viewBox="0 0 300 60"><defs><style>.cls-1{fill:#fff;}.cls-2{clip-path:url(#clip-path);}.cls-3{clip-path:url(#clip-path-2);}</style><clipPath id="clip-path"><path id="SVGID" class="cls-1" d="M70.31,17a3.63,3.63,0,0,0,3.61,3.68,3.71,3.71,0,1,0,0-7.42A3.64,3.64,0,0,0,70.31,17"/></clipPath><clipPath id="clip-path-2"><path id="SVGID-2" data-name="SVGID" class="cls-1" d="M73.92,3a3.64,3.64,0,0,0-3.61,3.74,3.63,3.63,0,0,0,3.61,3.68,3.71,3.71,0,1,0,0-7.42Z"/></clipPath></defs><title>Switchboard-Logo-White</title><path class="cls-1" d="M276.85,57a11.36,11.36,0,0,0,8.06-3.55l.5,1.83c.19.64.57,1.08,1.15,1.08h1.9a1.24,1.24,0,0,0,1.2-1.2v-42a1.25,1.25,0,0,0-1.2-1.21h-3.68a1.25,1.25,0,0,0-1.21,1.21V31.77a15,15,0,0,0-6.09-1.4c-7,0-12.48,5.9-12.48,13.31S270.13,57,276.85,57m1.27-21.12a10.49,10.49,0,0,1,5.52,1.53V47.74a6.83,6.83,0,0,1-6,3.81c-4.06,0-6.73-3.62-6.73-7.87s3-7.8,7.23-7.8"/><path class="cls-1" d="M248.06,56.36h3c1,0,1.71-.12,1.71-1.2V39.06A6.68,6.68,0,0,1,258.52,36a5.86,5.86,0,0,1,2.16.44,1.08,1.08,0,0,0,1.52-.57l1.52-3.11c.69-1.71-2.22-2.34-4.63-2.34a9,9,0,0,0-7.42,3.68L251,31.89A1.21,1.21,0,0,0,249.9,31h-1.84a1.25,1.25,0,0,0-1.21,1.21V55.16a1.25,1.25,0,0,0,1.21,1.2"/><path class="cls-1" d="M227.7,57a11,11,0,0,0,7.79-3.23l.64,1.71c.25.63.5.88,1.08.88H239a1.25,1.25,0,0,0,1.21-1.2V41.65c0-6.34-.76-11.28-8.88-11.28a26.13,26.13,0,0,0-8.75,1.46,1.12,1.12,0,0,0-.82,1.45l.5,2.35c.19.7.64,1.2,1.4,1a26.44,26.44,0,0,1,7.1-1.15c3.23,0,4,1.59,3.93,5.58a18.31,18.31,0,0,0-5-.76c-6.47,0-10.14,3.55-10.14,8.18,0,5.27,3.42,8.5,8.18,8.5m2.47-12.75a9.45,9.45,0,0,1,4.44,1v4.06a7.53,7.53,0,0,1-5.71,3.17A3.82,3.82,0,0,1,225,48.44c0-2.6,2.1-4.19,5.14-4.19"/><path class="cls-1" d="M203.53,57c7.1,0,12.8-6.09,12.8-13.38s-5.7-13.25-12.8-13.25-12.81,6.08-12.81,13.25S196.43,57,203.53,57m0-21.12c4,0,7.16,3.49,7.16,7.74s-3.17,7.93-7.16,7.93-7.17-3.55-7.17-7.93a7.46,7.46,0,0,1,7.17-7.74"/><path class="cls-1" d="M164.08,56.36H166c.57,0,1-.44,1.15-1.08l.5-1.83A11.36,11.36,0,0,0,175.69,57c6.71,0,11.85-6,11.85-13.32s-5.45-13.31-12.49-13.31A15.4,15.4,0,0,0,169,31.76V13.19a1.24,1.24,0,0,0-1.2-1.21h-3.68a1.25,1.25,0,0,0-1.2,1.21v42a1.24,1.24,0,0,0,1.2,1.2m4.82-19a10.84,10.84,0,0,1,5.52-1.46c4.24,0,7.23,3.49,7.23,7.8s-2.67,7.87-6.73,7.87a6.83,6.83,0,0,1-6-3.81Z"/><path class="cls-1" d="M131.94,56.36h3.61a1.15,1.15,0,0,0,1.27-1.2V39.88c.32-1.08,3-4,6.85-4,3.29,0,5.39,2.29,5.39,6.41V55.16a1.2,1.2,0,0,0,1.2,1.2h3.55a1.25,1.25,0,0,0,1.21-1.2V42.42c0-6.92-3.43-12-10.59-12a13.09,13.09,0,0,0-7.61,2.72V13.19A1.25,1.25,0,0,0,135.61,12h-3.67a1.25,1.25,0,0,0-1.21,1.21v42a1.25,1.25,0,0,0,1.21,1.2"/><path class="cls-1" d="M115.89,57a11.25,11.25,0,0,0,9.82-5.33c.45-.63.19-1.27-.44-1.78l-1.71-1.39a1.17,1.17,0,0,0-1.72.13c-1.33,1.26-2.66,2.92-5.89,2.92-4.12,0-7.29-3.49-7.29-7.87a7.54,7.54,0,0,1,7.35-7.8,7.07,7.07,0,0,1,5.07,2.41c.51.45,1,1,1.72.26l2.09-1.9a1.24,1.24,0,0,0,.25-1.78,11.21,11.21,0,0,0-9.19-4.5,13.5,13.5,0,0,0-13.32,13.38A13.21,13.21,0,0,0,115.89,57"/><path class="cls-1" d="M82.91,36.27h2.66V49.45C85.57,54,87,57,92,57a19.19,19.19,0,0,0,7.42-1.91,1,1,0,0,0,.57-1.52l-1.14-2.79a1,1,0,0,0-1.46-.57,10.3,10.3,0,0,1-3.86,1.14c-1.21,0-2-.37-2-2.53V36.27H98a1.21,1.21,0,0,0,1.21-1.21V32.21A1.17,1.17,0,0,0,98,31H91.53V23.9a1.2,1.2,0,0,0-1.14-1.21l-3.62.07a1.24,1.24,0,0,0-1.2,1.2v7H82.91a1.17,1.17,0,0,0-1.21,1.21v2.85a1.21,1.21,0,0,0,1.21,1.21"/><path class="cls-1" d="M72.18,56.36h3.61A1.25,1.25,0,0,0,77,55.16V32.21A1.25,1.25,0,0,0,75.79,31H72.18A1.25,1.25,0,0,0,71,32.21V55.16a1.24,1.24,0,0,0,1.2,1.2"/><path class="cls-1" d="M38.57,56.36a1.09,1.09,0,0,0,1.07.64H40a1,1,0,0,0,1-.57L48.71,39.5h.06l7.8,16.93a1.17,1.17,0,0,0,1.08.57h.25a1.14,1.14,0,0,0,1.15-.64l7.41-23.9A1,1,0,0,0,65.51,31H63c-.7,0-1.65,0-2,.76L56.89,45.84h-.06L50.11,31A1.12,1.12,0,0,0,49,30.37h-.38a1.18,1.18,0,0,0-1.08.63L40.79,45.78h-.07l-4.25-14A1.24,1.24,0,0,0,35.33,31H31.91c-.89,0-1.27.64-.89,1.46Z"/><path class="cls-1" d="M17.57,45.65c3.49,1.58,4.88,2.41,4.88,4.12,0,1.4-1.2,2.15-3.1,2.15a13.19,13.19,0,0,1-5.9-1.64,1.1,1.1,0,0,0-1.59.31l-1.33,2.48a1.07,1.07,0,0,0,.38,1.33A13.28,13.28,0,0,0,19.28,57c5.65,0,9.38-3.49,9.38-7.42,0-4.75-3.8-6.72-8.43-8.75-2.47-1.08-4.05-1.77-4.05-3.43,0-.94.69-1.9,2.85-1.9a14.51,14.51,0,0,1,5.2,1.33,1.31,1.31,0,0,0,1.64-.5L27,34.17a1.42,1.42,0,0,0-.51-1.84,14.27,14.27,0,0,0-7.48-2c-6.09,0-8.69,3.8-8.69,7,0,4.19,3.3,6.6,7.23,8.31"/><path id="SVGID-3" data-name="SVGID" class="cls-1" d="M70.31,17a3.63,3.63,0,0,0,3.61,3.68,3.71,3.71,0,1,0,0-7.42A3.64,3.64,0,0,0,70.31,17"/><g class="cls-2"><rect class="cls-1" x="69.65" y="12.64" width="8.68" height="8.74"/></g><path id="SVGID-4" data-name="SVGID" class="cls-1" d="M73.92,3a3.64,3.64,0,0,0-3.61,3.74,3.63,3.63,0,0,0,3.61,3.68,3.71,3.71,0,1,0,0-7.42Z"/><g class="cls-3"><rect class="cls-1" x="69.65" y="2.34" width="8.68" height="8.74"/></g></svg>