<svg id="Layer_1" data-name="Layer 1" xmlns="http://www.w3.org/2000/svg" viewBox="0 0 300 60"><defs><style>.cls-1{fill:#fff;}</style></defs><title>Checkfront-Logo-White</title><path class="cls-1" d="M85.66,43.06H93a13,13,0,0,1-4.72,10.53,12.73,12.73,0,0,1-8.47,2.94A11.74,11.74,0,0,1,70,51.89a14,14,0,0,1-3-8.83V16.85a13.61,13.61,0,0,1,3.21-9A12,12,0,0,1,79.87,3.2a12.45,12.45,0,0,1,8.56,3.3A13.1,13.1,0,0,1,93,16.85H85.66V16a6.29,6.29,0,0,0-1.34-3.92A5.2,5.2,0,0,0,80,9.89a5.28,5.28,0,0,0-5,3A6.26,6.26,0,0,0,74.25,16V43.87a6,6,0,0,0,1.34,4A5.35,5.35,0,0,0,80,50a5.47,5.47,0,0,0,3.12-1,6.59,6.59,0,0,0,2.14-2.68,11.15,11.15,0,0,0,.44-3.3"/><path class="cls-1" d="M103.76,3.92v16.4A8.82,8.82,0,0,1,109.83,18a9.5,9.5,0,0,1,4.1,1,8.74,8.74,0,0,1,3.21,2.76,9.34,9.34,0,0,1,1.78,5.8V55.82h-6.51V28.71a5,5,0,0,0-1.07-3.12A4.09,4.09,0,0,0,108,24a4,4,0,0,0-3.65,2.14,5.79,5.79,0,0,0-.63,2.59V55.82H97.25V3.92Z"/><path class="cls-1" d="M129.09,38.43v6.68a6.17,6.17,0,0,0,1.16,4,4.08,4.08,0,0,0,3.3,1.6A3.79,3.79,0,0,0,137.38,48a7.54,7.54,0,0,0,.36-2.59v-.27h6.51c-.09,1.07-.09,2-.18,2.59a9.94,9.94,0,0,1-3.21,6.06,10.33,10.33,0,0,1-7.49,2.86,10.08,10.08,0,0,1-8.65-4.37,12,12,0,0,1-2.14-7.14V29.42a11.36,11.36,0,0,1,2.59-7.22,10.14,10.14,0,0,1,8.11-4,11.17,11.17,0,0,1,6.78,2.32c2.76,2.05,4.1,5.09,4.1,8.92v9Zm8.65-6V28.62a4.7,4.7,0,0,0-.89-2.77,3.79,3.79,0,0,0-3.39-1.78,4.13,4.13,0,0,0-3.92,2.5,4,4,0,0,0-.45,2.05v3.83Z"/><path class="cls-1" d="M162.08,45.2h6.69a11.94,11.94,0,0,1-.62,4.19A12.3,12.3,0,0,1,165,54,10.56,10.56,0,0,1,158,56.62a10.73,10.73,0,0,1-5.08-1.25,9.54,9.54,0,0,1-3.84-3.48,12,12,0,0,1-1.87-6.69v-16a11.1,11.1,0,0,1,2.41-7.13,10.07,10.07,0,0,1,8.2-4,11,11,0,0,1,7.31,2.67c2.23,1.87,3.39,4.73,3.66,8.47h-6.69v-.8a3.76,3.76,0,0,0-1.25-3,4.11,4.11,0,0,0-6.59.71,4.46,4.46,0,0,0-.72,2.41V46.1a4.9,4.9,0,0,0,1.07,3.29,4.09,4.09,0,0,0,3.12,1.43,4,4,0,0,0,3.66-2,4.79,4.79,0,0,0,.62-2.59l.09-1Z"/><polygon class="cls-1" points="172.25 55.81 172.25 3.92 178.76 3.92 178.76 31.74 187.68 18.81 194.99 18.81 182.95 36.38 194.99 55.81 187.68 55.81 178.76 41.28 178.76 55.81 172.25 55.81"/><path class="cls-1" d="M205.51,25V55.9H199V25h-3.21V19h3.3V11.23a9.1,9.1,0,0,1,1.6-4.82,5.81,5.81,0,0,1,4.91-2.58,8.13,8.13,0,0,1,6,2.76l-2.85,4.64a1.76,1.76,0,0,0-1.69-1c-1,.09-1.43.8-1.43,2.05v6.6h4.64v6l-4.73.09Z"/><path class="cls-1" d="M212.38,55.82V19h6.51v2.94a4.91,4.91,0,0,1,4.63-3.12,7.8,7.8,0,0,1,6.07,2.76l-3.48,5.26a3.15,3.15,0,0,0-2.68-1.6,4.16,4.16,0,0,0-3.39,1.6A6.82,6.82,0,0,0,219,30.76V55.82Z"/><path class="cls-1" d="M230.12,45.29v-16a11.34,11.34,0,0,1,1.78-6.15,10.86,10.86,0,0,1,9.1-5,10,10,0,0,1,8.38,4.1,11.28,11.28,0,0,1,2.41,7.13V45.38A12,12,0,0,1,250,51.8a10.44,10.44,0,0,1-9.37,4.91,9.76,9.76,0,0,1-8.38-4.28,12.23,12.23,0,0,1-2.14-7.14m15.16.72V28.44a4.2,4.2,0,0,0-1.43-3.3A4.26,4.26,0,0,0,240.91,24a3.7,3.7,0,0,0-3.48,2.14,5.06,5.06,0,0,0-.71,2.41V46.1a4.69,4.69,0,0,0,1.07,3,4.16,4.16,0,0,0,6.69-.18,6.33,6.33,0,0,0,.8-2.94"/><path class="cls-1" d="M255.8,55.82V18.72h6.51v1.69a9.23,9.23,0,0,1,6.07-2.4,8.44,8.44,0,0,1,6.95,3.3,9.23,9.23,0,0,1,2.14,6V55.9H271V28.53a4.88,4.88,0,0,0-.89-2.85,4.14,4.14,0,0,0-3.39-1.61,4,4,0,0,0-3.48,1.78,4.79,4.79,0,0,0-.8,2.68V55.9l-6.6-.08Z"/><path class="cls-1" d="M290.49,25.05v23a1.93,1.93,0,0,0,.54,1.51,2.71,2.71,0,0,0,1.69.45h3.48V55.9h-5.71a6.77,6.77,0,0,1-4.73-1.78A5.49,5.49,0,0,1,284,49.93V25.05h-3.3v-6H284V6.41l6.51-2.49V19.08H297V25l-6.51.09Z"/><path class="cls-1" d="M56.77,7.48,26.27,49,8.62,31.65h0l-.27-.27,3.92-3.83L24.4,31.83,51.69,3H8.62A5.65,5.65,0,0,0,3,8.64V51.36A5.65,5.65,0,0,0,8.62,57H51.33A5.65,5.65,0,0,0,57,51.36V8.64A5.27,5.27,0,0,0,56.77,7.48Z"/></svg>