<svg id="Layer_1" data-name="Layer 1" xmlns="http://www.w3.org/2000/svg" viewBox="0 0 300 60"><defs><style>.cls-1{fill:#fff;fill-rule:evenodd;}</style></defs><title>Woven-Logo-White</title><path class="cls-1" d="M61.55,31.37,53.67,44.94a2.63,2.63,0,0,1-2.28,1.32l-15.71,0a2.65,2.65,0,0,1-2.28-1.32L25.58,31.26a2.64,2.64,0,0,1,0-2.61l7.76-13.57a2.62,2.62,0,0,1,2.29-1.33l15.8.05a2.67,2.67,0,0,1,2.28,1.32l7.84,13.62A2.63,2.63,0,0,1,61.55,31.37ZM16.44,31c2.91-5.07,7.84-13.52,8.8-15.17S29,14.06,29,14.33a.39.39,0,0,1-.05.25L17.91,34a5.53,5.53,0,0,0,0,5.52l7.86,13.44c1.44,2.48,4.92,4,8.14,4a5,5,0,0,1-2.45-2.28c-3.2-5.45-8.62-14.77-9.55-16.37-.38-.88.4-3.77.75-3.73a.47.47,0,0,1,.31.25L34.13,54.17A5.54,5.54,0,0,0,38.91,57l15.34,0c5.3-.14,7.92-5,7.92-5a8.38,8.38,0,0,1-3.93,1l-18.36-.05c-.93,0-3-2.21-2.8-2.52a.53.53,0,0,1,.42-.17l22.31.07a5.53,5.53,0,0,0,4.82-2.77l7.81-13.37c1.39-2.41,1.4-6.12-.36-9.36a4.55,4.55,0,0,1-.73,3.55c-3.2,5.48-8.58,14.48-9.79,16.36-.61.94-3.27,1.58-3.46,1.2a.87.87,0,0,1,.15-.84l11-19a5.51,5.51,0,0,0,0-5.54L61.48,7.2c-1.43-2.48-3.88-3.6-8.12-4.05a5.54,5.54,0,0,1,2.47,2.24l9.32,16c.64,1.13-.38,3.67-.77,3.62a.68.68,0,0,1-.48-.41L52.94,5.8A5.54,5.54,0,0,0,48.16,3L32.71,3c-2.87,0-6.06,2.44-7.5,4.92A9.61,9.61,0,0,1,29.09,7L47,7.07c1.87,0,3.06,2.08,2.84,2.43-.09.16-.32.26-.69.26L27.37,9.69a5.53,5.53,0,0,0-4.82,2.77L14.87,25.68c-1.43,2.48-.92,6.6.53,9.08A7.33,7.33,0,0,1,16.44,31Z"/><path class="cls-1" d="M135.39,14l-8,24-8.73-24a1,1,0,0,0-1-.68h-5.6a1,1,0,0,0-1,.67l-8.87,24L94.56,14a1,1,0,0,0-1-.72l-4.93,0a1,1,0,0,0-1,1.36L98.25,46.51a1,1,0,0,0,1,.71h5.5a1,1,0,0,0,1-.67l9.13-24.1,9,24.09a1,1,0,0,0,1,.68h5.38a1,1,0,0,0,1-.7l11.11-31.85a1,1,0,0,0-1-1.37h-4.92A1,1,0,0,0,135.39,14Z"/><path class="cls-1" d="M161,41.36a10.92,10.92,0,0,1-10.67-11.13,10.71,10.71,0,1,1,21.41,0A11,11,0,0,1,161,41.36Zm0-28.77a17.44,17.44,0,0,0-17.61,17.64A17.44,17.44,0,0,0,161,47.87a17.68,17.68,0,0,0,17.68-17.64A17.48,17.48,0,0,0,161,12.59Z"/><path class="cls-1" d="M205.36,14,196.5,38.33,187.5,14a1,1,0,0,0-1-.68h-5.17a1,1,0,0,0-1,1.4l12.26,31.86a1,1,0,0,0,1,.66h5.68a1,1,0,0,0,1-.67l12.07-31.85a1,1,0,0,0-1-1.4h-5A1,1,0,0,0,205.36,14Z"/><path class="cls-1" d="M220.69,26.48a10.83,10.83,0,0,1,10.59-7.79c5.46,0,9.22,2.84,10.33,7.8l0,.21h-21Zm10.87,21.39c6.62,0,12-2.88,15.29-8.14a1,1,0,0,0-.38-1.45l-3.91-2.18a1,1,0,0,0-1.39.37,10.87,10.87,0,0,1-9.61,5.23c-5.92,0-10.22-3.41-11.22-8.9l0-.2h27.42a1,1,0,0,0,1-1V29.89c0-10-7.35-17.3-17.48-17.3A17.54,17.54,0,0,0,213.6,30.37C213.6,40.51,221.15,47.87,231.56,47.87Z"/><path class="cls-1" d="M285,47.53a1,1,0,0,0,1-1V27.7c0-9.25-5.15-14.77-13.77-14.77A12.6,12.6,0,0,0,261.78,18l-.31.41V14.64a1,1,0,0,0-1-1h-4.87a1,1,0,0,0-1,1V46.5a1,1,0,0,0,1,1h4.94a1,1,0,0,0,1-1V28.86c0-5.83,3.65-9.9,8.89-9.9s8.47,3.41,8.47,9.35V46.5a1,1,0,0,0,1,1Z"/></svg>