<?xml version="1.0" encoding="utf-8"?>
<!-- Generator: Adobe Illustrator 23.0.6, SVG Export Plug-In . SVG Version: 6.00 Build 0)  -->
<svg version="1.1" id="Layer_1" xmlns="http://www.w3.org/2000/svg" xmlns:xlink="http://www.w3.org/1999/xlink" x="0px" y="0px"
	 viewBox="0 0 300 60" style="enable-background:new 0 0 300 60;" xml:space="preserve">
<style type="text/css">
	.st0{fill:#FFFFFF;}
</style>
<title>The Logic</title>
<g>
	<g>
		<path class="st0" d="M30.7,32L30.7,32c-2.3,0-4.3-2-4.3-4.3V7.3c0-2.3,2-4.3,4.3-4.3l0,0c2.3,0,4.3,2,4.3,4.3v20.4
			C35.1,30.2,33.1,32,30.7,32z"/>
		<path class="st0" d="M30.7,57L30.7,57c-2.3,0-4.3-2-4.3-4.3V40.2c0-2.3,2-4.3,4.3-4.3l0,0c2.3,0,4.3,2,4.3,4.3v12.5
			C35.1,55,33.1,57,30.7,57z"/>
		<path class="st0" d="M42.7,28L42.7,28c2.3,0,4.3,2,4.3,4.3v20.4c0,2.3-2,4.3-4.3,4.3l0,0c-2.3,0-4.3-2-4.3-4.3V32.3
			C38.4,29.8,40.4,28,42.7,28z"/>
		<path class="st0" d="M42.7,3L42.7,3C45.1,3,47,5,47,7.3v12.5c0,2.3-2,4.3-4.3,4.3l0,0c-2.3,0-4.3-2-4.3-4.3V7.3
			C38.4,5,40.4,3,42.7,3z"/>
		<path class="st0" d="M54.9,57L54.9,57c-2.3,0-4.3-2-4.3-4.3v-7.5c0-2.3,2-4.3,4.3-4.3l0,0c2.3,0,4.3,2,4.3,4.3v7.5
			C59.3,55,57.3,57,54.9,57z"/>
		<path class="st0" d="M66.8,57L66.8,57c-2.3,0-4.3-2-4.3-4.3V40.2c0-2.3,2-4.3,4.3-4.3l0,0c2.3,0,4.3,2,4.3,4.3v12.5
			C71.1,55,69.2,57,66.8,57z"/>
	</g>
	<g>
		<path class="st0" d="M245.5,27.5c0,0.2-0.1,0.4-0.1,0.5c-0.4,1-1.4,1.5-2.2,1c-0.9-0.5-1.7-1.1-2.6-1.6c-0.2-0.1-0.5-0.4-0.7-0.5
			l-0.1,0.1c0.1,0.2,0.2,0.4,0.4,0.6c1,1.5,1.4,3.1,1,4.8c-0.5,2.3-1.9,3.7-4,4.4c-2.2,0.7-4.4,0.9-6.8,0.6c-0.5-0.1-1.1,0-1.7,0.1
			c-0.9,0.2-1.4,1-1.4,1.7c0,0.7,0.5,1.5,1.4,1.6c0.7,0.1,1.6,0.4,2.5,0.4c2.5,0.1,4.9,0,7.4,0.1c3.5,0.1,5.9,2.8,5.8,6.3
			c-0.1,2.5-1.4,4.3-3.2,5.7c-2.3,1.7-5.2,2.3-8,2.3c-1.9,0-3.7-0.1-5.4-0.6c-0.9-0.2-1.7-0.6-2.5-1.1c-2.1-1.2-2.8-4.3-0.2-6.3
			c0.9-0.6,1.9-1.1,2.8-1.7c0.1-0.1,0.4-0.2,0.6-0.4c-0.6-0.2-1.1-0.4-1.6-0.5c-1.5-0.6-2.5-1.6-2.7-3.3c-0.1-1.4,0.5-2.5,1.5-3.3
			c0.9-0.7,1.9-1.2,3-1.4c0.1,0,0.1,0,0.2-0.1c0,0,0.1-0.1,0.2-0.1c-0.2-0.1-0.4-0.2-0.5-0.2c-3.2-1.5-4.1-5.1-2.7-7.8
			c0.9-1.6,2.2-2.7,4-3.3c1.7-0.6,3.6-0.7,5.3-0.6c1.4,0.1,2.6,0.4,3.8,1c1.1,0.5,2.2,0.6,3.5,0c0.4-0.1,0.7-0.2,1.1-0.4
			c1.5-0.5,2.3,0,2.7,1.5L245.5,27.5z M233.6,45.4c-1.4,0.1-2.6,0.2-3.8,0.4c-0.4,0-0.9,0.1-1.2,0.4c-1.4,0.9-1.6,2.2-1.5,3.6
			c0.1,2.2,1.5,3.6,3.3,4.4c1.9,0.9,3.8,0.9,5.8,0.5c2-0.4,3.2-1.6,3.8-3.5c1-2.6-0.2-4.9-2.8-5.4C236,45.6,234.7,45.5,233.6,45.4z
			 M236.7,31.2c0-1.5-0.2-2.7-0.9-4c-1.2-2.2-4.2-2.3-5.7-0.4c-1.5,2.1-1.6,6.1-0.2,8.3c1.4,2.1,4.1,2.2,5.6,0.2
			C236.5,34.3,236.7,32.7,236.7,31.2z"/>
		<path class="st0" d="M130.7,45.3c-3,0-5.9,0-8.9,0c0,0,0-0.1-0.1-0.1c0.1-0.1,0.2-0.2,0.5-0.2c0.5-0.1,0.9-0.2,1.4-0.5
			c0.5-0.2,0.7-0.6,0.7-1.1c0-7.7,0-15.4,0-23.1c0-0.6-0.2-1.1-0.7-1.4c-0.4-0.2-0.7-0.4-1.2-0.6c-0.2-0.1-0.4-0.4,0-0.5
			c2.1-1,4-1.7,6.1-2.7c0,0,0.1,0,0.2,0c0,4.8,0,9.5,0,14.3h0.1c0.2-0.2,0.4-0.6,0.6-0.9c1.9-2.2,4.1-3.6,7.2-3.3
			c1.7,0.1,3.2,1.2,3.6,2.8c0.4,1.2,0.5,2.6,0.5,4c0.1,3.7,0,7.4,0,11.2c0,1.1,0.2,1.4,1.4,1.6c0.2,0.1,0.6,0.1,0.9,0.1
			c0.1,0,0.2,0.1,0.2,0.2c-0.1,0-0.2,0.1-0.4,0.1h-0.1c-2.8,0-5.7,0-8.4,0c-0.1,0-0.4-0.1-0.5-0.2c0.1-0.1,0.4-0.2,0.5-0.4
			c0.1,0,0.2,0,0.5,0c1.4-0.4,1.7-0.5,1.7-1.9c0-3.1,0-6.2,0-9.3c0-1.4,0-2.6-0.6-3.8c-0.5-1-1.4-1.6-2.6-1.7
			c-1.6-0.1-3,0.1-4.1,1.5c-0.2,0.4-0.5,0.9-0.5,1.2c0,4.3,0,8.5,0,12.9c0,0.7,0.4,1.1,1.2,1.2c0.2,0,0.5,0,0.7,0.1
			C130.7,44.9,130.7,45,130.7,45.3C130.8,45.1,130.8,45.3,130.7,45.3z"/>
		<path class="st0" d="M90.7,14.7c3.7,0.9,7.4,0.6,11,0.6c3.2,0,6.4,0,9.8,0c1.9,0,3.6,0,5.4-0.1c1,0,1.9-0.4,2.8-0.5
			c0.4-0.1,0.6,0,0.7,0.4c0.4,2.2,0.7,4.4,1.1,6.5c0,0.2,0.1,0.5,0.1,0.6c0,0.2,0,0.4-0.1,0.6c-0.1-0.1-0.4-0.2-0.5-0.4
			c-0.7-1.1-1.4-2.3-2.1-3.5c-1-1.5-2.2-2.7-4.1-2.8c-0.7-0.1-1.6-0.1-2.3-0.1c-1.2,0-2.5,0-3.7,0c-0.4,0-0.5,0.1-0.5,0.5
			c0,7.7,0,15.4,0,23.1c0,0.7,0.1,1.6,0.1,2.3c0.1,0.9,0.6,1.6,1.4,2c0.7,0.2,1.5,0.5,2.2,0.7c0.2,0.1,0.5,0.2,0.6,0.4
			c-0.2,0.1-0.5,0.2-0.7,0.2c-4.4,0-8.8,0-13.2,0c-0.1,0-0.2,0-0.4,0s-0.2-0.1-0.4-0.1c0.1-0.1,0.2-0.2,0.4-0.2
			c0.5-0.1,1.1-0.2,1.6-0.4c0.9-0.2,1.6-0.7,2.1-1.4c0.2-0.2,0.4-0.6,0.4-1c0.1-1,0.2-1.9,0.2-2.8c0-1.5,0-3,0-4.4
			c0-6.1,0-12,0.1-18c0-0.5-0.1-0.7-0.6-0.7c-1.7,0.1-3.5,0.1-5.2,0.1c-2,0.1-3.5,1-4.4,2.5c-0.9,1.2-1.7,2.6-2.6,4
			c-0.1,0.1-0.2,0.2-0.4,0.4c0-0.1-0.1-0.4-0.1-0.5c0.4-2.6,0.9-5.1,1.2-7.7C90.7,14.9,90.7,14.9,90.7,14.7z"/>
		<path class="st0" d="M171.6,45c0.1-0.1,0.4-0.2,0.5-0.4c0.9-0.2,1.6-0.5,2.5-0.9c0.7-0.2,1.1-0.9,1.2-1.6c0.1-1.4,0.4-2.8,0.4-4.2
			c0.1-5.9,0.1-12,0.1-17.9c0-0.7-0.1-1.4-0.2-2c-0.2-1.2-1.1-1.7-2.1-2.1c-0.5-0.2-1-0.2-1.5-0.4c-0.1,0-0.2-0.2-0.5-0.4
			c0.1-0.1,0.4-0.2,0.5-0.2c4.4,0,8.9,0,13.5,0c0.1,0,0.2,0.1,0.5,0.2c-0.1,0.1-0.2,0.2-0.4,0.2c-0.9,0.2-1.7,0.5-2.5,0.9
			c-1.1,0.6-1.5,1.6-1.5,2.8c0,2-0.1,4.1-0.1,6.1c0,4.6,0,9.3,0,13.8c0,1,0.1,2.1,0.2,3.1c0.1,1.2,0.4,1.5,1.6,1.9
			c2.1,0.6,4.1,0.5,6.2,0.4c1.9-0.1,3.7-0.5,5.4-1.5c1.7-1,3-2.6,3.8-4.3c0.4-0.6,0.6-1.4,1-2c0.1-0.1,0.2-0.2,0.4-0.4
			c0,0.1,0.1,0.4,0.1,0.5c-0.2,1.5-0.5,3-0.7,4.4c-0.2,1.2-0.5,2.6-0.6,3.8c-9.1,0-18.3,0-27.4,0C171.7,45.1,171.7,45.1,171.6,45z"
			/>
		<path class="st0" d="M201.7,35.1c-0.1-4.8,3.2-9.1,8-10c5.1-1,9.9,1.6,11.5,6.3c2.1,6.1-1.4,12.6-7.5,13.8
			c-4.6,1-9.6-1.9-11.4-6.3C202,37.8,201.7,36.5,201.7,35.1z M217.2,34.5c-0.1-0.7-0.2-2.1-0.5-3.5c-0.4-1.6-1-3.2-2.2-4.4
			c-1.5-1.4-3.7-1.5-5.2,0c-1,1-1.6,2.2-2,3.6c-0.9,2.8-0.9,5.8-0.4,8.8c0.2,1.4,0.7,2.7,1.5,4c1.5,2.2,4.6,2.8,6.5,0.4
			c0.2-0.4,0.6-0.9,0.7-1.2C216.8,39.8,217.1,37.5,217.2,34.5z"/>
		<path class="st0" d="M161.3,31.9c-0.2,0-0.5,0-0.6,0c-4,0-7.8,0-11.7,0c-0.5,0-0.6,0.1-0.6,0.6c0,2.1,0.2,4.2,1.4,6.1
			c2.2,3.8,7.4,4.7,10.6,1.7c0.4-0.4,0.6-0.9,1-1.4c0.1-0.1,0.2-0.2,0.4-0.4c0,0,0.1,0,0.1,0.1c0,0.2,0,0.4-0.1,0.6
			c-1,3.5-4.2,6.4-8.3,6.3c-4.7-0.1-8.2-3.5-9.1-7.9c-0.6-2.8-0.4-5.7,1.2-8.2c2.1-3.5,5.7-4.9,9.6-4.2c2.3,0.4,4.2,1.5,5.4,3.6
			C161.1,29.6,161.5,30.9,161.3,31.9z M148.4,31.2c1,0,2,0,2.8,0c1.2,0,2.5,0,3.7-0.1c1,0,1.4-0.5,1.4-1.5c0-0.7-0.1-1.5-0.5-2.1
			c-0.9-1.9-3.2-2.5-4.7-1.2C149.6,27.5,148.9,29.2,148.4,31.2z"/>
		<path class="st0" d="M260.2,33.9c0,1.9,0.4,3.7,1.5,5.4c1.5,2.2,3.7,3,6.4,2.7c2.2-0.2,4-1.2,5.1-3c0.1-0.1,0.2-0.1,0.4-0.2
			c0,0.1,0.1,0.2,0,0.4c-1,3-3.5,5.7-6.8,6.3c-4,0.6-7.2-0.7-9.4-4.2c-2.5-3.8-2.1-9.4,0.9-12.9c2.5-2.8,5.6-3.8,9.3-3.2
			c1.7,0.2,3.2,0.9,4.4,2.1c0.7,0.7,1.1,1.6,1.1,2.6c0.1,1.1-0.6,2.2-1.6,2.6c-1,0.4-2.2,0.1-2.8-0.6c-0.4-0.4-0.6-0.9-0.4-1.5
			c0.4-1.1,0.2-2.1-0.1-3.2c-0.6-1.5-2.5-2.1-4.1-1.2c-1.4,0.6-2.1,1.7-2.7,3C260.4,30.4,260.2,32,260.2,33.9z"/>
		<path class="st0" d="M249.8,19.4c1.5,0,2.6,1.1,2.6,2.6c0,1.5-1.2,2.7-2.6,2.7c-1.5,0-2.6-1.2-2.6-2.7
			C247.2,20.5,248.3,19.4,249.8,19.4z"/>
		<path class="st0" d="M247.8,28.2l4.3-1.5c0,0,0.1,10.4,0.1,16.2c0,1.2,0.7,1.7,1.7,1.9c0.4,0,0.9-0.1,1,0.5c-3.3,0-6.5,0-9.8,0
			l-0.1-0.1c0.1-0.1,0.2-0.2,0.4-0.4c0.4-0.1,0.7-0.1,1.1-0.2c1-0.2,1.4-0.7,1.4-1.7L247.8,28.2z"/>
	</g>
</g>
</svg>
