<svg width="90" height="80" viewBox="0 0 90 80" fill="none" xmlns="http://www.w3.org/2000/svg">
<rect width="90" height="80" fill="white"/>
<path d="M83.6729 43.1409C81.5373 39.4283 76.1013 38.4418 71.7418 37.6706C70.1534 37.3837 68.6355 37.1146 67.5236 36.7559C63.9584 35.6081 60.4638 33.9401 57.0751 32.3259C52.0803 29.9405 46.9266 27.4834 41.2082 26.479C30.5656 24.5958 23.6999 27.7524 15.74 31.3933C13.3396 32.4873 10.8687 33.6173 8.15069 34.6754C6.35044 35.3749 4.95613 35.6439 3.82656 35.8412C2.30871 36.1461 1.09089 36.3614 0.437859 37.6527C-0.0739767 38.675 -0.126925 40.1995 0.226065 43.6789C0.843797 49.6873 4.03836 53.3102 9.22731 53.8662C9.26261 53.8662 9.29791 53.8662 9.33321 53.8662C9.82739 53.8662 10.251 53.4895 10.3039 52.9873C10.3569 52.4493 9.96859 51.965 9.4391 51.8933C5.13263 51.427 2.67935 48.5932 2.16751 43.4637C1.95572 41.3474 1.79687 39.3027 2.18516 38.5495C2.3793 38.1549 2.83819 38.0473 4.21485 37.7782C5.34442 37.563 6.89758 37.2761 8.87432 36.5048C11.6453 35.4287 14.1515 34.2809 16.5695 33.1689C24.2294 29.6536 30.848 26.6225 40.9082 28.3981C46.3619 29.3666 51.392 31.7699 56.2809 34.0836C59.7225 35.7157 63.2877 37.4195 66.9588 38.6033C68.1943 38.9978 69.7651 39.2848 71.4242 39.5897C75.3953 40.3071 80.3372 41.1859 82.0139 44.1094C83.0728 45.9567 83.3376 47.4991 82.7728 48.6649C82.0139 50.2432 79.7194 51.3732 76.2954 51.8574C75.7659 51.9292 75.3953 52.4313 75.4659 52.9694C75.5365 53.5075 76.0307 53.8841 76.5602 53.8124C79.4547 53.3999 83.1787 52.3417 84.5201 49.5258C85.3673 47.7682 85.0849 45.598 83.6729 43.1409Z" fill="#1502FF"/>
<path d="M29.6478 53.5611C29.6478 54.0992 30.089 54.5476 30.6185 54.5476H55.116C55.6455 54.5476 56.0867 54.0992 56.0867 53.5611C56.0867 53.0231 55.6455 52.5747 55.116 52.5747H30.6185C30.0714 52.5747 29.6478 53.0052 29.6478 53.5611Z" fill="#1502FF"/>
<path d="M77.8133 46.3691C78.131 46.405 78.5722 46.4409 78.9781 46.4409H78.9958C79.5253 46.4409 79.9489 46.0104 79.9665 45.4724C79.9842 44.9343 79.5606 44.468 79.0134 44.468C78.7487 44.468 78.3781 44.4321 77.9898 44.3963C75.2188 44.1452 74.9011 43.5533 74.301 42.3875C74.0539 41.9033 73.4715 41.7239 72.995 41.975C72.5184 42.2261 72.3419 42.818 72.589 43.3022C73.5774 45.2034 74.5128 46.0642 77.8133 46.3691Z" fill="#1502FF"/>
<path d="M11.0805 40.1278C10.8158 39.7691 10.4098 39.5718 9.98624 39.5718H5.60917C4.90319 39.5718 4.28545 40.1098 4.17956 40.8272C3.84422 43.2485 4.53255 44.3426 5.18558 44.8447C5.52092 45.0958 5.99746 45.329 6.66814 45.329C7.12702 45.329 7.67416 45.2214 8.32719 44.9344C9.59795 44.3784 10.8334 42.9615 11.2217 41.6343C11.257 41.5267 11.2747 41.437 11.31 41.3474C11.4159 40.9169 11.3453 40.4685 11.0805 40.1278ZM7.55061 43.123C6.98583 43.3741 6.54459 43.4279 6.35045 43.2664C6.121 43.0871 5.96216 42.4952 6.0504 41.5267H9.17437C8.80373 42.1903 8.15069 42.8719 7.55061 43.123Z" fill="#1502FF"/>
<path d="M36.637 38.6749L56.3691 40.0021C56.4044 40.0021 56.4397 40.0021 56.475 40.0021C57.1634 40.0021 57.7634 39.5358 57.9399 38.8184C58.1341 38.0651 57.7987 37.2939 57.1104 36.9711C55.6808 36.2895 54.5689 35.7515 53.8629 35.3748C49.8565 33.3482 46.5207 31.9133 41.2965 30.6399C39.6021 30.2274 35.9487 29.9943 35.5427 30.0122C35.2603 30.0301 35.0132 30.1557 34.8367 30.3709C34.6602 30.5861 34.5896 30.8731 34.6426 31.1601L35.7545 37.8499C35.8251 38.3162 36.1958 38.657 36.637 38.6749ZM40.8552 32.559C45.9206 33.7965 49.0269 35.1237 52.9804 37.1504C53.3687 37.3477 53.8805 37.5988 54.4806 37.9037L37.5371 36.7738L36.7429 32.0568C37.9607 32.1465 39.8492 32.3258 40.8552 32.559Z" fill="#1502FF"/>
<path d="M32.2776 31.1604C32.2423 30.9093 32.1011 30.6582 31.8893 30.5147C31.6775 30.3533 31.4127 30.2995 31.1656 30.3353C28.6594 30.7478 26.1002 31.5011 23.0998 32.7387C22.8527 32.8283 22.3232 33.0974 21.5643 33.4561C21.176 33.6354 20.7348 33.8506 20.2935 34.0479C19.4817 34.4246 19.0404 35.2855 19.1993 36.1822C19.3581 37.079 20.0641 37.7247 20.9642 37.7785L32.1893 38.4959C32.207 38.4959 32.2246 38.4959 32.2423 38.4959C32.507 38.4959 32.7718 38.3883 32.9659 38.173C33.16 37.9578 33.2483 37.6529 33.213 37.366L32.2776 31.1604ZM21.176 35.8056C21.5996 35.6083 22.0232 35.411 22.3938 35.2317C23.0645 34.9088 23.647 34.6398 23.8411 34.5681C26.312 33.5457 28.4653 32.8642 30.5126 32.4696L31.1127 36.4513L21.176 35.8056Z" fill="#1502FF"/>
<path d="M79.3488 58.0272H69.7122C71.6889 56.7 73.0126 54.4222 73.0126 51.8395C73.0126 47.7682 69.7475 44.4502 65.741 44.4502C61.7346 44.4502 58.4694 47.7682 58.4694 51.8395C58.4694 54.4222 59.7755 56.7 61.7699 58.0272H23.947C25.9237 56.7 27.2475 54.4222 27.2475 51.8395C27.2475 47.7682 23.9823 44.4502 19.9759 44.4502C15.9694 44.4502 12.7043 47.7682 12.7043 51.8395C12.7043 54.4222 14.0103 56.7 16.0047 58.0272H4.5855C4.05601 58.0272 3.61478 58.4756 3.61478 59.0136C3.61478 59.5517 4.05601 60.0001 4.5855 60.0001H79.3311C79.8606 60.0001 80.3019 59.5517 80.3019 59.0136C80.3019 58.4756 79.8783 58.0272 79.3488 58.0272ZM60.3932 51.8575C60.3932 48.8623 62.7936 46.441 65.7234 46.441C68.6532 46.441 71.0535 48.8802 71.0535 51.8575C71.0535 54.8347 68.6532 57.2739 65.7234 57.2739C62.7936 57.2739 60.3932 54.8347 60.3932 51.8575ZM14.6281 51.8575C14.6281 48.8623 17.0284 46.441 19.9582 46.441C22.9057 46.441 25.2884 48.8802 25.2884 51.8575C25.2884 54.8347 22.888 57.2739 19.9582 57.2739C17.0107 57.2739 14.6281 54.8347 14.6281 51.8575Z" fill="#1502FF"/>
<path d="M3.56185 28.362H11.8748C12.4042 28.362 12.8455 27.9137 12.8455 27.3756C12.8455 26.8375 12.4042 26.3892 11.8748 26.3892H3.56185C3.03236 26.3892 2.59113 26.8375 2.59113 27.3756C2.59113 27.9137 3.01471 28.362 3.56185 28.362Z" fill="#1502FF"/>
<path d="M12.8984 22.031H19.1287C19.6582 22.031 20.0994 21.5826 20.0994 21.0445C20.0994 20.5065 19.6582 20.0581 19.1287 20.0581H12.8984C12.3689 20.0581 11.9277 20.5065 11.9277 21.0445C11.9277 21.5826 12.3689 22.031 12.8984 22.031Z" fill="#1502FF"/>
<path d="M62.723 27.3039H75.1835C75.713 27.3039 76.1542 26.8556 76.1542 26.3175C76.1542 25.7794 75.713 25.3311 75.1835 25.3311H62.723C62.1935 25.3311 61.7522 25.7794 61.7522 26.3175C61.7522 26.8556 62.1935 27.3039 62.723 27.3039Z" fill="#1502FF"/>
<path d="M54.4277 20.9729H60.658C61.1875 20.9729 61.6287 20.5245 61.6287 19.9864C61.6287 19.4484 61.1875 19 60.658 19H54.4277C53.8982 19 53.457 19.4484 53.457 19.9864C53.457 20.5245 53.8806 20.9729 54.4277 20.9729Z" fill="#1502FF"/>
</svg>
