<svg width="90" height="80" viewBox="0 0 90 80" fill="none" xmlns="http://www.w3.org/2000/svg">
<rect width="90" height="80" fill="white"/>
<path d="M41.1051 34.8429L40.5046 34.4543C41.2111 33.7124 41.5998 32.8468 41.5998 31.9813C41.5998 30.9744 41.0698 30.0735 40.1336 29.4553C37.7313 27.9008 35.3466 28.5544 33.1032 29.6319L29.1994 27.0882C30.1709 26.7879 31.2308 26.6996 32.1317 26.8763C32.6616 26.9822 33.1739 26.629 33.2622 26.099C33.3682 25.5691 33.0149 25.0568 32.4849 24.9685C30.8068 24.6505 28.8108 24.9862 27.221 25.8164L26.0198 25.0392C25.5782 24.7389 24.9599 24.8802 24.6773 25.3218C24.377 25.7634 24.5183 26.3817 24.9599 26.6643L25.5605 27.0529C24.8539 27.7948 24.4653 28.6604 24.4653 29.5259C24.4653 30.5328 24.9953 31.4337 25.9315 32.0342C27.8039 33.2354 30.1003 33.1824 32.9619 31.8576L36.8834 34.4013C35.8765 34.7192 34.7813 34.8075 33.8451 34.5956C33.3152 34.4719 32.8029 34.8075 32.6969 35.3375C32.5733 35.8674 32.9089 36.3797 33.4388 36.4857C33.9158 36.5916 34.428 36.6446 34.9403 36.6446C36.2828 36.6446 37.6783 36.309 38.8618 35.6731L40.063 36.4503C40.2219 36.5563 40.4162 36.6093 40.5929 36.6093C40.9108 36.6093 41.2288 36.4503 41.4054 36.1677C41.6704 35.7438 41.5468 35.1432 41.1051 34.8429ZM39.0737 31.1157C39.4624 31.363 39.6567 31.6633 39.6567 31.9989C39.6567 32.4229 39.3564 32.9351 38.8264 33.3767L35.0463 30.9214C36.5477 30.3738 37.8196 30.3031 39.0737 31.1157ZM26.9737 30.4268C26.5851 30.1795 26.3907 29.8792 26.3907 29.5436C26.3907 29.1196 26.691 28.6074 27.221 28.1658L30.9658 30.6034C29.323 31.151 27.9982 31.098 26.9737 30.4268Z" fill="#1502FF"/>
<path d="M65.6056 30.5152C66.0472 30.2149 66.1886 29.6143 65.8883 29.1727C65.588 28.7311 64.9874 28.5898 64.5458 28.8901L56.8265 33.8891V31.4337L65.6056 25.7458C65.8883 25.5692 66.0472 25.2512 66.0472 24.9332C66.0472 24.6153 65.8883 24.2973 65.6056 24.1207L48.7538 13.1865L42.5537 9.15898C42.2357 8.94701 41.8117 8.94701 41.4938 9.15898L10.1926 29.473L6.6067 31.787L0.441844 35.7968C0.159214 35.9735 0.000234835 36.2914 0.000234835 36.6094C0.000234835 36.9273 0.159214 37.2453 0.441844 37.4219L23.4938 52.3836C23.6528 52.4896 23.8471 52.5426 24.0237 52.5426C24.2004 52.5426 24.3947 52.4896 24.5537 52.3836L32.6616 47.1197V49.575L24.0237 55.1746L1.5017 40.5662C1.0601 40.2659 0.441844 40.4072 0.159214 40.8488C-0.14108 41.2904 0.000234834 41.9087 0.441844 42.1913L23.4938 57.153C23.6528 57.259 23.8471 57.312 24.0237 57.312C24.2004 57.312 24.3947 57.259 24.5537 57.153L32.6616 51.889V54.3444L24.0237 59.944L1.5017 45.3356C1.04243 45.0353 0.441844 45.1766 0.159214 45.6182C-0.14108 46.0598 0.000234834 46.6781 0.441844 46.9607L23.4938 61.9224C23.6528 62.0284 23.8471 62.0814 24.0237 62.0814C24.2004 62.0814 24.3947 62.0284 24.5537 61.9224L32.6616 56.6584V59.1138L24.0237 64.7134L1.5017 50.1049C1.0601 49.8046 0.441844 49.946 0.159214 50.3876C-0.14108 50.8292 0.000234834 51.4474 0.441844 51.7301L23.4938 66.6918C23.6528 66.7978 23.8471 66.8507 24.0237 66.8507C24.2004 66.8507 24.3947 66.7978 24.5537 66.6918L32.6616 61.4278V63.8831L24.0237 69.4827L1.5017 54.8743C1.04243 54.574 0.441844 54.7153 0.159214 55.1569C-0.14108 55.5986 0.000234834 56.2168 0.441844 56.4994L23.4938 71.4611C23.6528 71.5671 23.8471 71.6201 24.0237 71.6201C24.2004 71.6201 24.3947 71.5671 24.5537 71.4611L65.6056 44.8233C66.0472 44.523 66.1886 43.9224 65.8883 43.4808C65.588 43.0392 64.9874 42.8979 64.5458 43.1982L56.8265 48.1972V45.7418L65.6056 40.0539C66.0472 39.7536 66.1886 39.153 65.8883 38.7114C65.588 38.2698 64.9874 38.1285 64.5458 38.4288L56.8265 43.4278V40.9725L65.6056 35.2846C66.0472 34.9843 66.1886 34.3837 65.8883 33.9421C65.588 33.5005 64.9874 33.3591 64.5458 33.6594L56.8265 38.6584V36.2031L65.6056 30.5152ZM33.7745 44.0814L12.5066 30.2855L32.9442 17.0196L54.2121 30.8155L33.7745 44.0814ZM30.1886 46.4131C26.6027 44.417 21.4448 44.417 17.8589 46.4131L8.83241 40.5485C10.0336 39.418 10.6872 38.0579 10.6872 36.6094C10.6872 35.1609 10.0336 33.8007 8.83241 32.6702L10.7225 31.4337L31.9904 45.2296L30.1886 46.4131ZM35.8589 15.1295C37.643 16.1364 39.8333 16.631 42.0237 16.631C44.2141 16.631 46.4045 16.1364 48.1886 15.1295L57.2151 20.9941C56.0139 22.1246 55.3603 23.4848 55.3603 24.9332C55.3603 26.3817 56.0139 27.7419 57.2151 28.8724L55.9962 29.6673L34.7283 15.8538L35.8589 15.1295ZM58.9108 27.7595C57.8686 26.9293 57.3034 25.9401 57.3034 24.9156C57.3034 23.891 57.8686 22.9018 58.9108 22.0716L63.2916 24.9156L58.9108 27.7595ZM42.0237 11.1374L46.2808 13.893C43.6842 14.9529 40.3633 14.9529 37.7666 13.893L42.0237 11.1374ZM7.13663 33.7654C8.17883 34.5956 8.74409 35.5848 8.74409 36.6094C8.74409 37.6339 8.17883 38.6231 7.13663 39.4533L2.75587 36.6094L7.13663 33.7654ZM24.0237 50.4052L19.7666 47.6496C22.3633 46.5897 25.6842 46.5897 28.2809 47.6496L24.0237 50.4052ZM34.6047 62.6113V59.6437V54.8743V45.8478L54.8834 32.6879V35.5848C54.8834 35.6555 54.8834 35.7085 54.8834 35.7792V40.4249V45.1943V49.4514L34.6047 62.6113Z" fill="#1502FF"/>
</svg>
