<svg width="90" height="80" viewBox="0 0 90 80" fill="none" xmlns="http://www.w3.org/2000/svg">
<rect width="90" height="80" fill="white"/>
<g clip-path="url(#clip0)">
<path d="M23.3008 24.3767C23.4427 24.6601 23.5846 24.9435 23.7264 25.2446C23.9392 25.6875 24.684 27.0337 26.014 29.3718C26.1913 29.6907 26.5282 29.8678 26.8651 29.8678C27.0247 29.8678 27.1843 29.8324 27.3439 29.7438C27.805 29.4781 27.9823 28.8936 27.7163 28.4153C26.1026 25.5812 25.6061 24.6601 25.482 24.3767C25.3401 24.0755 25.1805 23.7744 25.0387 23.491C24.4003 22.1979 23.8328 21.082 23.691 20.3203C23.5846 19.7358 23.7264 19.5941 24.0811 19.4169C24.4712 19.2221 26.8119 18.7792 35.5187 28.557C35.8734 28.9644 36.494 28.9999 36.9019 28.6456C37.3097 28.2913 37.3452 27.6714 36.9905 27.2639C34.2065 24.1818 31.7948 21.7728 29.791 20.1432C26.8119 17.7164 24.7195 16.9371 23.1944 17.6987C22.361 18.1239 21.4212 18.9741 21.7581 20.71C21.9709 21.7374 22.5561 22.9065 23.3008 24.3767Z" fill="#1502FF"/>
<path d="M83.7163 41.0627C82.9538 38.8486 79.957 36.475 75.506 34.5088C71.0019 32.5426 65.8062 31.4089 61.2844 31.4089C47.9671 31.4089 26.3686 33.0563 17.715 33.7648C15.1083 33.9774 12.5725 33.1271 10.5333 31.3558C5.24891 26.7503 2.57127 26.3252 1.24131 26.768C0.744794 26.9452 0.354673 27.3172 0.159613 27.8131C-0.336904 29.1239 0.390139 31.4267 2.60673 35.4122L0.709328 36.1561C0.336941 36.2978 0.0886821 36.6698 0.0886821 37.0595V41.6296C0.0886821 42.0547 0.372406 42.4444 0.780259 42.5684C0.904388 42.6038 13.8138 46.483 33.7277 48.0772C29.8265 54.5603 25.1273 62.4073 23.7442 65.2415C23.6023 65.5426 23.4427 65.826 23.3186 66.1094C22.5738 67.5796 22.0064 68.7487 21.7936 69.7761C21.4566 71.512 22.3787 72.3799 23.2299 72.7874C23.4959 72.9114 23.7796 72.9999 24.152 72.9999C26.1558 72.9999 30.1634 70.4846 40.5725 58.8824C44.0127 55.0563 47.3287 51.1239 49.7404 48.2012H63.767C78.9994 48.2012 82.2799 46.0756 83.4326 44.4637C84.4079 43.082 83.8936 41.6118 83.7163 41.0627ZM78.2192 38.14C69.4946 39.8759 65.0792 38.512 62.9158 36.9887C61.2312 35.8196 60.5396 34.3494 60.2736 33.3574C60.6105 33.3574 60.9475 33.3574 61.2666 33.3574C67.7036 33.3574 74.2647 35.6424 78.2192 38.14ZM81.8189 43.3477C80.0102 45.8808 69.7252 46.2705 63.7492 46.2705H51.3363C52.684 44.6231 53.5174 43.578 53.5352 43.5603C53.8721 43.1352 53.8012 42.5329 53.3756 42.1964C52.95 41.8598 52.3471 41.9307 52.0102 42.3558C51.957 42.4267 45.8569 50.0788 39.278 57.4299C35.43 61.7342 32.1672 65.082 29.596 67.4025C25.1805 71.388 24.1166 71.0869 24.0811 71.0692C23.7264 70.892 23.5846 70.7503 23.691 70.1658C23.8328 69.4041 24.4003 68.2882 25.0387 66.9951C25.1805 66.7117 25.3224 66.4105 25.482 66.1094C26.8651 63.293 31.7594 55.1271 35.696 48.5909C36.9551 46.483 38.1609 44.4814 39.083 42.9226C39.349 42.4621 39.2071 41.8598 38.7461 41.5941C38.285 41.3284 37.6821 41.4701 37.4161 41.9307C36.6891 43.1529 35.8024 44.6231 34.8449 46.2173C19.4174 45.0482 7.07538 42.3558 2.03928 40.921V37.7503L4.34454 36.8469C4.61053 36.7407 4.82333 36.5281 4.91199 36.2624C5.00065 35.9967 4.98292 35.6956 4.84106 35.4476C1.96835 30.417 1.87969 28.9468 1.95062 28.5925C2.92592 28.3977 5.55037 29.6199 9.23878 32.826C11.6682 34.9339 14.7182 35.9613 17.8569 35.7133C25.8721 35.0579 44.988 33.5877 58.2875 33.3928C58.5535 34.6682 59.3692 36.9001 61.8164 38.6006C64.033 40.1416 67.0653 40.921 70.8601 40.921C73.6086 40.921 76.7828 40.5136 80.3471 39.6988C81.1451 40.4073 81.677 41.0982 81.8898 41.7181C82.1381 42.4621 82.1204 42.9226 81.8189 43.3477Z" fill="#1502FF"/>
<path d="M18.6017 53.1079H8.35213C7.82015 53.1079 7.37683 53.5507 7.37683 54.0821C7.37683 54.6135 7.82015 55.0564 8.35213 55.0564H18.6017C19.1336 55.0564 19.577 54.6135 19.577 54.0821C19.577 53.5507 19.1514 53.1079 18.6017 53.1079Z" fill="#1502FF"/>
<path d="M62.703 62.3188H49.368C48.836 62.3188 48.3927 62.7617 48.3927 63.2931C48.3927 63.8245 48.836 64.2673 49.368 64.2673H62.703C63.235 64.2673 63.6783 63.8245 63.6783 63.2931C63.6783 62.7617 63.2527 62.3188 62.703 62.3188Z" fill="#1502FF"/>
<path d="M10.4091 60.2817H4.23815C3.70617 60.2817 3.26285 60.7246 3.26285 61.256C3.26285 61.7874 3.70617 62.2302 4.23815 62.2302H10.3914C10.9234 62.2302 11.3667 61.7874 11.3667 61.256C11.3667 60.7246 10.9411 60.2817 10.4091 60.2817Z" fill="#1502FF"/>
<path d="M36.0862 17.2027C36.0862 17.7342 36.5295 18.177 37.0615 18.177H43.2147C43.7467 18.177 44.19 17.7342 44.19 17.2027C44.19 16.6713 43.7467 16.2285 43.2147 16.2285H37.0615C36.5295 16.2285 36.0862 16.6536 36.0862 17.2027Z" fill="#1502FF"/>
<path d="M11.4199 24.324H15.5162C16.0482 24.324 16.4915 23.8811 16.4915 23.3497C16.4915 22.8183 16.0482 22.3755 15.5162 22.3755H11.4199C10.8879 22.3755 10.4446 22.8183 10.4446 23.3497C10.4446 23.8811 10.8879 24.324 11.4199 24.324Z" fill="#1502FF"/>
<path d="M29.064 8.94847H41.3705C41.9025 8.94847 42.3458 8.50564 42.3458 7.97424C42.3458 7.44283 41.9025 7 41.3705 7H29.064C28.532 7 28.0887 7.44283 28.0887 7.97424C28.0887 8.50564 28.532 8.94847 29.064 8.94847Z" fill="#1502FF"/>
<path d="M71.9417 55.1626H62.703C62.171 55.1626 61.7277 55.6054 61.7277 56.1368C61.7277 56.6682 62.171 57.1111 62.703 57.1111H71.9417C72.4737 57.1111 72.917 56.6682 72.917 56.1368C72.917 55.6054 72.4737 55.1626 71.9417 55.1626Z" fill="#1502FF"/>
<path d="M32.4509 39.3623H31.9367C31.4047 39.3623 30.9614 39.8051 30.9614 40.3365C30.9614 40.8679 31.4047 41.3108 31.9367 41.3108H32.4509C32.9829 41.3108 33.4262 40.8679 33.4262 40.3365C33.4262 39.8051 32.9829 39.3623 32.4509 39.3623Z" fill="#1502FF"/>
<path d="M27.3262 39.3623H26.8119C26.2799 39.3623 25.8366 39.8051 25.8366 40.3365C25.8366 40.8679 26.2799 41.3108 26.8119 41.3108H27.3262C27.8581 41.3108 28.3015 40.8679 28.3015 40.3365C28.3015 39.8051 27.8581 39.3623 27.3262 39.3623Z" fill="#1502FF"/>
<path d="M22.2014 39.3623H21.6872C21.1552 39.3623 20.7119 39.8051 20.7119 40.3365C20.7119 40.8679 21.1552 41.3108 21.6872 41.3108H22.2014C22.7334 41.3108 23.1767 40.8679 23.1767 40.3365C23.1767 39.8051 22.7334 39.3623 22.2014 39.3623Z" fill="#1502FF"/>
<path d="M52.0988 20.9935H64.228C66.2141 20.9935 67.81 19.3816 67.81 17.4154C67.81 15.4492 66.1963 13.8373 64.228 13.8373C64.1039 13.8373 63.9798 13.8373 63.8556 13.855C63.2172 11.3751 60.9829 9.56836 58.323 9.56836C56 9.56836 53.9253 10.9854 53.0564 13.0579C52.7372 12.987 52.418 12.9339 52.0988 12.9339C49.8822 12.9339 48.0558 14.7407 48.0558 16.9725C48.0558 19.1867 49.8822 20.9935 52.0988 20.9935ZM52.0988 14.8824C52.4712 14.8824 52.8259 14.9886 53.1628 15.1835C53.4288 15.3429 53.7657 15.3783 54.0672 15.2366C54.3509 15.1126 54.5637 14.8469 54.6346 14.5281C54.9893 12.7745 56.532 11.4991 58.3407 11.4991C60.3623 11.4991 62.0114 13.0933 62.1001 15.1126C62.1178 15.4492 62.2951 15.7503 62.5789 15.9097C62.8626 16.0692 63.2172 16.0869 63.5187 15.9452C63.767 15.8212 63.9975 15.768 64.2457 15.768C65.1501 15.768 65.8772 16.4943 65.8772 17.3977C65.8772 18.301 65.1501 19.0273 64.2457 19.0273H52.1166C50.9639 19.0273 50.0241 18.0885 50.0241 16.9371C50.0064 15.8212 50.9462 14.8824 52.0988 14.8824Z" fill="#1502FF"/>
</g>
<defs>
<clipPath id="clip0">
<rect width="84" height="66" fill="white" transform="translate(0 7)"/>
</clipPath>
</defs>
</svg>
