<?xml version="1.0" encoding="utf-8"?>
<!-- Generator: Adobe Illustrator 24.0.1, SVG Export Plug-In . SVG Version: 6.00 Build 0)  -->
<svg version="1.1" id="Layer_1" xmlns="http://www.w3.org/2000/svg" xmlns:xlink="http://www.w3.org/1999/xlink" x="0px" y="0px"
	 viewBox="0 0 300 60" style="enable-background:new 0 0 300 60;" xml:space="preserve">
<style type="text/css">
	.st0{fill-rule:evenodd;clip-rule:evenodd;fill:#FFFFFF;}
</style>
<title>1QBit-Logo-White</title>
<g id="Artboard-Copy-50">
	<path id="Makerpad" class="st0" d="M56.2,4.4v40.4h-9.3l-0.1-18.5l-7.7,18.5h-6.8l-7.7-18.3v18.3h-9.2V4.4h8.3l12.1,27.6L48,4.4
		H56.2z M92.3,15.9v28.8H82.2v-3.9c-0.8,1.4-2,2.4-3.6,3.2c-1.6,0.8-3.3,1.2-5.2,1.2c-2.5,0-4.7-0.6-6.6-1.8
		c-1.9-1.2-3.4-2.9-4.5-5.2s-1.6-4.8-1.6-7.8c0-3,0.5-5.6,1.6-7.9c1.1-2.3,2.6-4.1,4.5-5.4c1.9-1.3,4.1-1.9,6.5-1.9
		c1.9,0,3.6,0.4,5.2,1.2c1.6,0.8,2.8,1.9,3.7,3.3v-3.7H92.3z M76.5,37.5c1.8,0,3.2-0.6,4.2-1.9c1-1.2,1.5-3,1.5-5.4
		c0-2.4-0.5-4.2-1.5-5.5c-1-1.3-2.4-1.9-4.2-1.9c-1.8,0-3.2,0.7-4.2,2s-1.5,3.1-1.5,5.5c0,2.3,0.5,4.1,1.5,5.3
		C73.3,36.9,74.7,37.5,76.5,37.5z M117.4,44.7l-9.8-12.4v12.4H97.3V3h10.3v25l9.6-12h12.1L118,29.8l11.8,15H117.4z M156.5,31.4
		h-18.1c0.2,2.2,0.8,3.8,1.9,4.8c1.1,1,2.7,1.5,4.8,1.5c1.4,0,2.9-0.2,4.3-0.7c1.4-0.5,2.7-1.1,3.9-2l2.6,6.8
		c-1.4,1.1-3.2,1.9-5.2,2.5c-2,0.6-4.1,0.9-6.1,0.9c-3.3,0-6.1-0.6-8.6-1.8c-2.4-1.2-4.3-2.9-5.6-5.2s-1.9-4.9-1.9-8
		c0-2.9,0.6-5.5,1.8-7.8s2.9-4.1,5.1-5.4c2.2-1.3,4.7-1.9,7.5-1.9c2.7,0,5.1,0.6,7.1,1.8c2,1.2,3.6,2.9,4.7,5.2
		c1.1,2.3,1.6,4.9,1.6,7.9V31.4z M143.2,22.2c-2.5,0-4.1,1.5-4.8,4.4h9.2C147.3,23.6,145.8,22.2,143.2,22.2z M178.3,15.3
		c1.4,0,2.5,0.2,3.2,0.6v9.4c-1.6-0.8-3.2-1.1-4.7-1.1c-4.3,0-6.5,2.1-6.5,6.2v14.5h-10.3V24.2c0-3.1-0.2-5.9-0.5-8.3h9.6l0.6,4.8
		c0.7-1.8,1.8-3.1,3.3-4.1C174.7,15.7,176.4,15.3,178.3,15.3z M202.4,15.1c2.5,0,4.7,0.6,6.6,1.9c1.9,1.3,3.4,3.1,4.5,5.4
		c1.1,2.3,1.6,5,1.6,7.9c0,2.9-0.5,5.5-1.6,7.8c-1.1,2.3-2.6,4-4.5,5.2c-1.9,1.2-4.1,1.8-6.6,1.8c-1.9,0-3.6-0.4-5.2-1.1
		s-2.7-1.8-3.6-3.1v16h-10.3V24.2c0-3.1-0.2-5.9-0.5-8.3h9.6l0.6,4.5c0.7-1.6,1.9-2.9,3.6-3.8C198.3,15.6,200.2,15.1,202.4,15.1z
		 M199.2,37.5c1.9,0,3.3-0.6,4.2-1.8c0.9-1.2,1.4-3,1.4-5.3c0-2.4-0.5-4.2-1.4-5.5s-2.4-2-4.2-2c-1.9,0-3.3,0.6-4.3,1.9
		c-1,1.2-1.5,3.1-1.5,5.5c0,2.3,0.5,4.1,1.5,5.4C196,36.9,197.4,37.5,199.2,37.5z M249.2,15.9v28.8h-10.1v-3.9
		c-0.8,1.4-2,2.4-3.6,3.2c-1.6,0.8-3.3,1.2-5.2,1.2c-2.5,0-4.7-0.6-6.6-1.8c-1.9-1.2-3.4-2.9-4.5-5.2c-1.1-2.3-1.6-4.8-1.6-7.8
		c0-3,0.5-5.6,1.6-7.9c1.1-2.3,2.6-4.1,4.5-5.4c1.9-1.3,4.1-1.9,6.5-1.9c1.9,0,3.6,0.4,5.2,1.2c1.6,0.8,2.8,1.9,3.7,3.3v-3.7H249.2z
		 M233.4,37.5c1.8,0,3.2-0.6,4.2-1.9c1-1.2,1.5-3,1.5-5.4c0-2.4-0.5-4.2-1.5-5.5c-1-1.3-2.4-1.9-4.2-1.9c-1.8,0-3.2,0.7-4.2,2
		c-1,1.3-1.5,3.1-1.5,5.5c0,2.3,0.5,4.1,1.5,5.3C230.1,36.9,231.5,37.5,233.4,37.5z M284.5,3v41.7h-10.1v-3.9
		c-0.8,1.4-2,2.4-3.6,3.2c-1.6,0.8-3.3,1.2-5.2,1.2c-2.5,0-4.7-0.6-6.6-1.9c-1.9-1.3-3.4-3-4.5-5.3c-1.1-2.3-1.6-4.9-1.6-7.9
		c0-2.9,0.5-5.6,1.6-7.8c1.1-2.3,2.6-4,4.5-5.2c1.9-1.2,4.1-1.8,6.6-1.8c1.8,0,3.5,0.4,5,1.1c1.5,0.8,2.8,1.8,3.7,3.1V3H284.5z
		 M268.7,37.5c1.8,0,3.2-0.6,4.2-1.9c1-1.3,1.5-3.1,1.5-5.5c0-2.3-0.5-4.1-1.5-5.4c-1-1.3-2.4-1.9-4.2-1.9c-1.9,0-3.3,0.6-4.3,1.8
		c-1,1.2-1.5,3-1.5,5.3c0,2.4,0.5,4.2,1.5,5.5S266.9,37.5,268.7,37.5z"/>
</g>
</svg>
