<?xml version="1.0" encoding="utf-8"?>
<!-- Generator: Adobe Illustrator 24.0.1, SVG Export Plug-In . SVG Version: 6.00 Build 0)  -->
<svg version="1.1" id="Layer_1" xmlns="http://www.w3.org/2000/svg" xmlns:xlink="http://www.w3.org/1999/xlink" x="0px" y="0px"
	 viewBox="0 0 300 60" style="enable-background:new 0 0 300 60;" xml:space="preserve">
<style type="text/css">
	.st0{fill:#FFFFFF;}
</style>
<title>1QBit-Logo-White</title>
<g>
	<polygon class="st0" points="100.4,30.8 94,21.5 89.4,21.5 89.4,43.8 93.4,43.8 93.4,27.5 99.3,35.9 101.4,35.9 107.3,27.5 
		107.3,43.8 111.4,43.8 111.4,21.5 106.8,21.5 	"/>
	<path class="st0" d="M122.6,26.9c-1.5,0-2.8,0.3-3.9,1c-1.2,0.7-2.1,1.7-2.8,3c-0.7,1.3-1,2.9-1,4.7c0,1.7,0.3,3.3,1,4.6
		c0.7,1.3,1.6,2.3,2.9,3.1c1.3,0.7,2.9,1.1,4.7,1.1c1.2,0,2.3-0.1,3.3-0.3c1-0.2,1.9-0.6,2.9-1.1l-1.1-3.1c-0.9,0.4-1.7,0.7-2.4,0.9
		s-1.5,0.3-2.2,0.3c-3,0-4.6-1.5-4.9-4.5h11v-1.6c0-2.6-0.7-4.6-2-6C126.7,27.6,124.9,26.9,122.6,26.9z M119.1,33.5
		c0.4-2.1,1.6-3.2,3.5-3.2c1,0,1.8,0.3,2.3,0.8c0.5,0.5,0.8,1.3,0.9,2.4H119.1z"/>
	<path class="st0" d="M152.1,27c-1,0-1.9,0.2-2.8,0.6c-0.9,0.4-1.8,1.1-2.6,2c-0.5-0.9-1.1-1.6-2-2c-0.9-0.4-2-0.6-3.2-0.6
		c-1.6,0-3.1,0.6-4.6,1.9v-1.5h-3.9v16.4h3.9V32.3c1.3-1.1,2.6-1.7,3.9-1.7c1.1,0,1.8,0.3,2.2,0.8s0.6,1.4,0.6,2.5v9.9h3.9v-9.9
		c0-0.5,0-1.1-0.1-1.5c1.4-1.2,2.7-1.8,3.9-1.8c1.1,0,1.8,0.3,2.2,0.8c0.4,0.5,0.6,1.4,0.6,2.5v9.9h3.9v-9.9c0-2.4-0.5-4.2-1.5-5.2
		C155.6,27.6,154.1,27,152.1,27z"/>
	<path class="st0" d="M174.9,27.9c-1.1-0.6-2.4-1-3.9-1c-1.6,0-3.1,0.6-4.6,1.8V19h-3.9v24.9h3.9v-1.3c1.5,1.2,3,1.8,4.6,1.8
		c1.5,0,2.7-0.3,3.9-1c1.1-0.6,2-1.6,2.6-2.9c0.6-1.3,0.9-2.9,0.9-4.8c0-1.9-0.3-3.5-0.9-4.8C176.9,29.5,176,28.5,174.9,27.9z
		 M173.3,39.5c-0.7,0.9-1.7,1.3-3,1.3c-1.3,0-2.6-0.5-3.9-1.5V32c1.3-1,2.6-1.5,3.9-1.5c1.3,0,2.3,0.4,3,1.3c0.7,0.9,1,2.2,1,3.9
		C174.3,37.3,174,38.6,173.3,39.5z"/>
	<path class="st0" d="M188.3,26.9c-1.5,0-2.8,0.3-3.9,1c-1.2,0.7-2.1,1.7-2.8,3c-0.7,1.3-1,2.9-1,4.7c0,1.7,0.3,3.3,1,4.6
		c0.7,1.3,1.6,2.3,2.9,3.1c1.3,0.7,2.9,1.1,4.7,1.1c1.2,0,2.3-0.1,3.3-0.3c1-0.2,1.9-0.6,2.9-1.1l-1.1-3.1c-0.9,0.4-1.7,0.7-2.4,0.9
		c-0.7,0.2-1.5,0.3-2.2,0.3c-3,0-4.6-1.5-4.9-4.5h11v-1.6c0-2.6-0.7-4.6-2-6C192.4,27.6,190.6,26.9,188.3,26.9z M184.8,33.5
		c0.4-2.1,1.6-3.2,3.5-3.2c1,0,1.8,0.3,2.3,0.8c0.5,0.5,0.8,1.3,0.9,2.4H184.8z"/>
	<path class="st0" d="M203,29v-1.6h-3.9v16.4h3.9V32.4c1.5-1.2,3.1-1.8,4.7-1.8h0.7V27h-0.7C206.1,27,204.5,27.7,203,29z"/>
	<path class="st0" d="M224.1,32.3c-0.9-0.5-1.9-0.9-3.1-1.2l-2-0.6c-1.3-0.3-2.2-0.7-2.7-1.1c-0.5-0.4-0.8-1-0.8-1.9
		c0-1.9,1.2-2.9,3.5-2.9c2.6,0,5,0.6,7.1,1.7v-3.6c-1.1-0.5-2.2-0.9-3.3-1.2c-1.1-0.3-2.3-0.4-3.8-0.4c-2.4,0-4.2,0.6-5.6,1.7
		c-1.3,1.1-2,2.8-2,5c0,1.4,0.3,2.5,0.9,3.3c0.6,0.9,1.3,1.5,2.1,1.9c0.8,0.4,1.8,0.8,3,1.1l2,0.6c1.3,0.4,2.2,0.7,2.8,1.2
		c0.6,0.4,0.9,1.1,0.9,1.9c0,0.9-0.4,1.6-1,2.1c-0.6,0.5-1.7,0.8-3.1,0.8c-2.9,0-5.5-0.6-7.9-1.9v3.7c2.3,1.1,4.9,1.6,7.9,1.6
		c2.5,0,4.5-0.6,5.9-1.8c1.4-1.2,2.2-2.8,2.2-4.8c0-1.4-0.3-2.5-0.9-3.4C225.6,33.5,224.9,32.8,224.1,32.3z"/>
	<path class="st0" d="M235.7,22.2h-3.9v5.6h-2.2v3.6h2.2V40c0,1.4,0.4,2.5,1.1,3.2c0.7,0.7,1.9,1,3.5,1c0.7,0,1.6-0.1,2.8-0.4v-3.4
		c-0.6,0.2-1.2,0.2-1.8,0.2c-0.6,0-1.1-0.1-1.3-0.4c-0.2-0.3-0.4-0.8-0.4-1.5v-7.4h3.8v-3.6h-3.8V22.2z"/>
	<path class="st0" d="M252.5,28.3c-1-0.6-2.5-0.9-4.4-0.9h-3.2v3.4h2.8c1,0,1.7,0.1,2.2,0.4c0.5,0.2,0.8,0.6,1,1
		c0.2,0.5,0.3,1,0.3,1.8c-1.1-0.6-2.5-0.9-4-0.9c-1.9,0-3.4,0.5-4.5,1.5c-1.1,1-1.6,2.3-1.6,4.1c0,1.7,0.5,3.1,1.6,4.1
		c1,1,2.4,1.5,4.2,1.5c0.8,0,1.6-0.1,2.3-0.4c0.7-0.3,1.4-0.8,2.1-1.4v1.5h3.9v-9.6c0-1.5-0.2-2.7-0.5-3.7
		C254.2,29.6,253.5,28.8,252.5,28.3z M251.1,39.4c-1.3,1.1-2.5,1.6-3.7,1.6c-0.7,0-1.3-0.2-1.7-0.6c-0.5-0.4-0.7-1-0.7-1.9
		c0-0.9,0.3-1.6,0.8-2c0.5-0.4,1.3-0.6,2.1-0.6c1.1,0,2.2,0.3,3.2,0.8V39.4z"/>
	<path class="st0" d="M267.3,40.8c-2.9,0-4.4-1.7-4.4-5.2c0-3.4,1.5-5.1,4.5-5.1c0.8,0,1.5,0.1,2.1,0.2c0.6,0.1,1.3,0.4,2,0.7v-3.7
		c-0.7-0.3-1.4-0.5-2.1-0.6c-0.7-0.1-1.5-0.2-2.4-0.2c-2.6,0-4.7,0.8-6.1,2.3c-1.4,1.5-2.1,3.6-2.1,6.3c0,2.7,0.7,4.9,2.1,6.4
		c1.4,1.5,3.4,2.3,6.1,2.3c2.1,0,4-0.5,5.8-1.5l-1.1-3.3C270.2,40.4,268.7,40.8,267.3,40.8z"/>
	<polygon class="st0" points="283.4,34.6 290,27.8 285.2,27.8 279.3,34 279.3,19 275.3,19 275.3,43.8 279.3,43.8 279.3,38.9 
		280.8,37.3 286,43.8 290.7,43.8 	"/>
	<path class="st0" d="M61.1,12.8C59.9,10,56.9,8,53.6,8.4c-2.7,0.4-4.6,1.9-5.7,4.4C47.3,14.2,42,27,41.8,27
		c-0.2,0-4.9-10.7-6.5-14.4c-1.3-2.8-3.6-4.3-6.7-4.2c-3,0.1-5.1,1.6-6.4,4.3C21.1,15.3,11.4,38,9.7,42.2c-1.1,2.8-0.1,6,2.2,7.9
		c3.7,2.9,9,1.7,10.9-2.7l6-14.1c0,0,0,0,0,0c0.2,0.2,5,10.8,6.2,13.5c1.3,3,4.6,5.3,7.8,4.8c2.4-0.3,4.2-1.5,5.4-3.6
		c0.5-0.9,5.9-13.5,6.5-14.8c0,0,0,0,0,0c0,0,6.5,14.5,6.5,14.5c1.6,3.3,5.7,4.7,9.1,3.2c3.4-1.5,5.1-5.5,3.7-8.9
		C72.2,37.7,62.2,15.4,61.1,12.8z"/>
</g>
</svg>
