<?xml version="1.0" encoding="utf-8"?>
<!-- Generator: Adobe Illustrator 24.0.1, SVG Export Plug-In . SVG Version: 6.00 Build 0)  -->
<svg version="1.1" id="Layer_1" xmlns="http://www.w3.org/2000/svg" xmlns:xlink="http://www.w3.org/1999/xlink" x="0px" y="0px"
	 viewBox="0 0 300 80" style="enable-background:new 0 0 300 80;" xml:space="preserve">
<style type="text/css">
	.st0{fill:#FFFFFF;}
</style>
<title>1QBit-Logo-White</title>
<g>
	<g>
		<path class="st0" d="M112.8,44l-0.1-19.3c0-0.3,0.1-0.5,0.4-0.5l6.2-1.1c2.5-0.5,4.1,0.7,4.2,3.9l0,11c0,3.1-1.6,4.9-4.1,5.4
			l-6.2,1.1C112.9,44.4,112.8,44.3,112.8,44z M116.7,27l0,13.3l1.9-0.3c0.7-0.1,1-0.5,1-1.2l0-11.2c0-0.7-0.3-1-1-0.9L116.7,27z"/>
		<path class="st0" d="M125.8,38.4l0-12.8c0-2.6,1.4-4.1,3.5-4.5l3.8-0.7c2.1-0.4,3.5,0.6,3.5,3.2l0,12.8c0,2.6-1.4,4.1-3.5,4.5
			l-3.8,0.7C127.2,42,125.8,41,125.8,38.4z M129.7,24.9l0,12.7c0,0.3,0.1,0.4,0.4,0.4l2-0.4c0.3-0.1,0.4-0.2,0.4-0.5l0-12.7
			c0-0.3-0.1-0.4-0.4-0.4l-2,0.4C129.8,24.4,129.7,24.6,129.7,24.9z"/>
		<path class="st0" d="M146,38.6l-3.6,0.6c-2.1,0.4-3.5-0.6-3.5-3.2l-0.1-16.1c0-0.3,0.1-0.5,0.4-0.5l3.1-0.6
			c0.3-0.1,0.4,0.1,0.4,0.4l0.1,16c0,0.3,0.1,0.4,0.4,0.4l1.8-0.3c0.3-0.1,0.4-0.2,0.4-0.5l-0.1-16c0-0.3,0.1-0.5,0.4-0.5l3-0.5
			c0.3-0.1,0.4,0.1,0.4,0.4l0.1,16.1C149.5,36.8,148.1,38.2,146,38.6z"/>
		<path class="st0" d="M159.2,15.8c2.1-0.4,3.5,0.6,3.5,3.2l0,2.7c0,1.6-0.6,2.8-1.4,3.4l0,0.2c1,0.3,1.7,1.2,1.7,3l0,3.1
			c0,2.6-1.4,4.1-3.5,4.5l-7,1.3c-0.3,0.1-0.4-0.1-0.4-0.4L152,17.6c0-0.3,0.1-0.5,0.4-0.5L159.2,15.8z M156,19.9l0,4.7l2.4-0.4
			c0.3-0.1,0.4-0.2,0.4-0.5l0-3.8c0-0.3-0.1-0.4-0.4-0.4L156,19.9z M158.4,27.7l-2.4,0.4l0,5.1l2.4-0.4c0.3-0.1,0.4-0.2,0.4-0.5
			l0-4.2C158.9,27.7,158.8,27.6,158.4,27.7z"/>
		<path class="st0" d="M173.9,29.9c0.3-0.1,0.4,0.1,0.4,0.4L174,33c0,0.2-0.2,0.4-0.5,0.5l-8,1.4c-0.3,0.1-0.4-0.1-0.4-0.4
			l-0.1-19.3c0-0.3,0.1-0.5,0.4-0.5l3.1-0.6c0.3-0.1,0.4,0.1,0.4,0.4l0.1,16.3L173.9,29.9z"/>
		<path class="st0" d="M175.8,32.6l-0.1-19.3c0-0.3,0.1-0.5,0.4-0.5l8.8-1.6c0.3-0.1,0.4,0.1,0.4,0.4l-0.3,2.7
			c0,0.2-0.2,0.4-0.5,0.5l-4.9,0.9l0,4.7l3.7-0.7c0.3-0.1,0.4,0.1,0.4,0.4l-0.3,2.7c0,0.2-0.2,0.4-0.5,0.5l-3.3,0.6l0,5.1l5.3-1
			c0.3-0.1,0.4,0.1,0.4,0.4l-0.3,2.7c0,0.2-0.2,0.4-0.5,0.5l-8.4,1.5C175.9,33.1,175.8,32.9,175.8,32.6z"/>
		<path class="st0" d="M118.5,67.8l-3.3,0.6c-2.1,0.4-3.5-0.6-3.5-3.2l0-2.5c0-0.3,0.2-0.5,0.4-0.5l2.9-0.8c0.3-0.1,0.4,0.1,0.4,0.3
			l0,2.8c0,0.3,0.1,0.4,0.4,0.4l1.6-0.3c0.3-0.1,0.4-0.2,0.4-0.5l-0.1-16c0-0.3,0.1-0.5,0.4-0.5l3.1-0.6c0.3-0.1,0.4,0.1,0.4,0.4
			l0.1,16.1C121.9,65.9,120.6,67.4,118.5,67.8z"/>
		<path class="st0" d="M131.5,65.5l-3.6,0.6c-2.1,0.4-3.5-0.6-3.5-3.2l-0.1-16.1c0-0.3,0.1-0.5,0.4-0.5l3.1-0.6
			c0.3-0.1,0.4,0.1,0.4,0.4l0.1,16c0,0.3,0.1,0.4,0.4,0.4l1.8-0.3c0.3-0.1,0.4-0.2,0.4-0.5l-0.1-16c0-0.3,0.1-0.5,0.4-0.5l3-0.5
			c0.3-0.1,0.4,0.1,0.4,0.4l0.1,16.1C134.9,63.6,133.6,65.1,131.5,65.5z"/>
		<path class="st0" d="M137.9,43.9l2.8-0.5c0.3-0.1,0.5,0,0.6,0.3l2.6,8.6l0.2,0l2.5-9.5c0.1-0.3,0.3-0.5,0.6-0.5l2.9-0.5
			c0.3-0.1,0.4,0.1,0.4,0.4l0.1,19.3c0,0.3-0.1,0.5-0.4,0.5l-3.1,0.6c-0.3,0.1-0.4-0.1-0.4-0.4l0-9.1l-0.2,0l-1.4,4.8
			c-0.1,0.3-0.3,0.5-0.6,0.6l-1,0.2c-0.3,0.1-0.5-0.1-0.6-0.4l-1.4-4.3l-0.2,0l0,9.1c0,0.3-0.1,0.5-0.4,0.5l-3,0.5
			c-0.3,0.1-0.4-0.1-0.4-0.4l-0.1-19.3C137.5,44.1,137.6,44,137.9,43.9z"/>
		<path class="st0" d="M160.3,39.9c2.1-0.4,3.5,0.6,3.5,3.2l0,8.4c0,2.6-1.4,4.1-3.5,4.5l-3.1,0.6l0,3.6c0,0.3-0.1,0.5-0.4,0.5
			l-3.1,0.6c-0.3,0.1-0.4-0.1-0.4-0.4l-0.1-19.3c0-0.3,0.1-0.5,0.4-0.5L160.3,39.9z M157.2,43.9l0,9.2l2.2-0.4
			c0.3-0.1,0.4-0.2,0.4-0.5l0-8.3c0-0.3-0.1-0.4-0.4-0.4L157.2,43.9z"/>
	</g>
	<g>
		<path class="st0" d="M186.7,42.3c-0.6,0-1-0.1-1.5-0.1c-2.4-0.1-4,0.9-4.8,3.2c-0.4,1.2-0.8,2.4-1,3.7c-0.1,0.8-0.5,0.9-1.2,0.8
			c-0.2,0-0.3-0.1-0.5-0.1c-3.2-0.7-5.5,0.4-6.8,3.4c-0.9,2-1.3,4.2-1.6,6.3c-0.3-3.2-0.1-6.3,1.3-9.2c0.9-1.8,2.2-3.2,4.3-3.6
			c1.3-0.2,1.8-0.9,2-2.1c0.6-3.8,3.9-7.6,9.7-7.3C186.1,39,186.1,40.6,186.7,42.3z"/>
	</g>
	<g>
		<path class="st0" d="M195.5,38.6c0,0.6,0,1.2,0,1.8c-1,2.4-2.6,3.4-4.7,2.8c-1.7-0.5-3-2-3-3.7c0-1.6,1.2-3.3,2.7-3.7
			c1.7-0.5,3.5,0.2,4.5,1.6C195.2,37.9,195.3,38.3,195.5,38.6z"/>
	</g>
	<g>
		<path class="st0" d="M107.7,77c-0.7,0-1.5-0.3-2.1-0.8c-0.7-0.6-1.1-1.5-1.1-2.5l0.2-53.1c0-1.6,1.1-2.9,2.6-3.1L189.9,3
			c0.9-0.2,1.9,0.1,2.6,0.7c0.7,0.6,1.1,1.5,1.1,2.5l-0.1,28.1l-3.7,0l0.1-27.4l-81.4,14.3l-0.2,52l81.4-13.4l0.1-15.1l3.7,0
			l-0.1,16.1c0,1.5-0.9,2.4-2.6,2.7L108.2,77C108.1,77,107.9,77,107.7,77z M107.6,73.3C107.6,73.3,107.6,73.3,107.6,73.3L107.6,73.3
			z"/>
	</g>
</g>
</svg>
