<?xml version="1.0" encoding="utf-8"?>
<!-- Generator: Adobe Illustrator 24.0.3, SVG Export Plug-In . SVG Version: 6.00 Build 0)  -->
<svg version="1.1" id="Layer_1" xmlns="http://www.w3.org/2000/svg" xmlns:xlink="http://www.w3.org/1999/xlink" x="0px" y="0px"
	 viewBox="0 0 300 60" style="enable-background:new 0 0 300 60;" xml:space="preserve">
<style type="text/css">
	.st0{fill:#FFFFFF;}
	.st1{fill-rule:evenodd;clip-rule:evenodd;fill:#FFFFFF;}
</style>
<title>1QBit-Logo-White</title>
<g>
	<path class="st0" d="M153.5,19.5c-0.7,0-1.3,0.6-1.3,1.3v2.7c-1.4-2.5-5.1-4.4-8.6-4.4c-6.7,0-11.8,5.1-11.8,11.9
		c0,6.9,5.1,12,11.8,12c3.5,0,7.2-1.9,8.6-4.4v3.9h2V19.5H153.5z M143.8,41c-5.7,0-10-4.3-10-10c0-5.7,4.3-10,10-10
		c3.4,0,6.9,2,8.4,4.8v10.5C150.7,39,147.2,41,143.8,41z"/>
	<path class="st0" d="M179,9.3c-0.7,0-1.3,0.6-1.3,1.3v12.8c-1.4-2.4-5.1-4.3-8.6-4.3c-6.7,0-11.8,5.1-11.8,11.9
		c0,6.9,5.1,12,11.8,12c3.5,0,7.1-1.9,8.6-4.4v3.9h2.1V9.3H179z M169.4,41c-5.7,0-10-4.3-10-10c0-5.7,4.3-10,10-10
		c3.3,0,6.9,1.9,8.3,4.7v10.7C176.2,39,172.7,41,169.4,41z"/>
	<path class="st0" d="M204.9,19.5h-1.4c-0.5,0-1,0.3-1.2,0.8l-8.3,19.8l-8.6-20.6h-2.3l9.9,22.9h1.9L204.9,19.5z"/>
	<path class="st0" d="M209.5,10c-1,0-1.8,0.8-1.8,1.8c0,1,0.8,1.8,1.8,1.8c0.9,0,1.8-0.8,1.8-1.8C211.3,10.8,210.4,10,209.5,10z
		 M208.5,19.5v22.9h2.1V20.8c0-0.7-0.6-1.3-1.3-1.3H208.5z"/>
	<path class="st0" d="M222.9,42.9c5,0,8.4-2.7,8.4-6.8c0-8.7-14.5-4.3-14.5-10.9c0-2.7,2.3-4.5,5.8-4.5c2.5,0,5.2,1.1,6.5,2.8
		l1.3-1.5c-1.6-1.9-4.6-3.1-7.7-3.1c-4.8,0-8,2.5-8,6.3c0,8.6,14.5,3.9,14.5,10.8c0,3-2.5,5-6.3,5c-2.2,0-4.7-0.8-6.5-2.1
		c-0.6-0.5-1.5-0.4-2,0.2l-0.3,0.3C216.2,41.6,219.6,42.9,222.9,42.9z"/>
	<path class="st0" d="M245.3,19c-6.6,0-11.8,5.2-11.8,11.9c0,6.7,5.2,11.9,11.8,11.9c6.6,0,11.8-5.2,11.8-11.9
		C257.2,24.2,251.9,19,245.3,19z M245.3,20.9c5.4,0,9.8,4.4,9.8,10c0,5.6-4.4,10-9.8,10c-5.5,0-9.8-4.4-9.8-10
		C235.5,25.3,239.8,20.9,245.3,20.9z"/>
	<path class="st0" d="M269.5,19c-2.5,0-5.2,1.8-6.6,4.5v-2.7c0-0.7-0.6-1.3-1.3-1.3h-0.8v22.9h2.1V25.8c1.6-3,4.2-4.8,6.5-4.8
		c0.8,0,1.6,0.1,2.2,0.4l0.1-1.9C271.2,19.2,270.4,19,269.5,19z"/>
	<path class="st0" d="M282.3,42.9c5,0,8.4-2.7,8.4-6.8c0-8.7-14.5-4.3-14.5-10.9c0-2.7,2.3-4.5,5.8-4.5c2.5,0,5.2,1.1,6.5,2.8
		l1.3-1.5c-1.6-1.9-4.6-3.1-7.7-3.1c-4.8,0-8,2.5-8,6.3c0,8.6,14.5,3.9,14.5,10.8c0,3-2.5,5-6.3,5c-2.2,0-4.7-0.8-6.5-2.1
		c-0.6-0.5-1.5-0.4-2,0.2l-0.3,0.3C275.7,41.6,279.1,42.9,282.3,42.9z"/>
	<path class="st1" d="M31,11.9c0-2.2,1.8-4,4.1-4c2.2,0,4.1,1.8,4.1,4c0,2.2-1.8,4.1-4.1,4.1C32.8,16,31,14.2,31,11.9z M31.7,42.5
		V19.2h4.2c1.4,0,2.5,1.1,2.5,2.5v20.7H31.7z M28.9,35.4c0,4.5-3.8,7.6-9.2,7.6c-4,0-7.6-0.9-10.4-2.9l1-2.1
		c0.7-1.4,2.5-1.8,3.9-1.2c1.5,0.7,3.1,1.1,4.9,1.1c2.1,0,3.4-0.8,3.4-2c0-1.3-1.9-1.7-4.2-2.2c-3.7-0.8-8.4-1.8-8.4-7.1
		c0-4.4,3.8-7.7,9.3-7.7c3.3,0,6.3,0.6,8.8,2.4L26,25.4c-2.1-1.2-4.5-1.6-7-1.6c-1.7,0-2.8,0.8-2.8,1.8c0,1.3,2,1.8,4.3,2.5
		C24.1,29.1,28.8,30.4,28.9,35.4z M82,18.7c-2.6,0-5.1,1.2-6.3,3.2v-0.2c0-1.4-1.1-2.5-2.5-2.5H69v23.3h6.7V28
		c0.9-1.6,2.8-2.7,4.6-2.7c2.7,0,4.5,1.8,4.5,5.1v12h6.7V29.3C91.5,22.8,87.9,18.7,82,18.7z M111.8,21.7c0-1.4,1.1-2.5,2.5-2.5h4.2
		v23.3h-6.7v-2.7c-1.1,1.9-3.9,3.2-6.9,3.2c-6.1,0-10.9-5.4-10.9-12.1s4.8-12.1,10.9-12.1c2.9,0,5.7,1.3,6.9,3.2V21.7z M100.6,30.8
		c0,3.3,2.5,5.8,5.8,5.8c2.3,0,4.4-1.2,5.4-2.9V28c-1-1.7-3.1-3-5.4-3C103.1,25,100.6,27.5,100.6,30.8z M128.7,9.3h-4.2
		c-1.4,0-2.5,1.1-2.5,2.5v30.6h6.7V9.3z M61.5,19.2c-1.4,0-2.5,1.1-2.5,2.5V22c-1.1-1.9-3.9-3.2-6.9-3.2c-6.1,0-10.9,5.4-10.9,12.1
		C41.2,37.6,46,43,52.1,43c2.9,0,5.7-1.3,6.9-3.2v1v0.7c0,2.8-2.6,4.7-5.4,4.7h-5.4c-1.4,0-2.5,1.1-2.5,2.5v3.4h8.1
		c6.7,0,11.9-4,11.9-10.6v-0.9l0-21.4H61.5z M53.5,36.6c-3.3,0-5.8-2.5-5.8-5.8s2.5-5.8,5.8-5.8c2.3,0,4.4,1.3,5.4,3v5.7
		C58,35.4,55.9,36.6,53.5,36.6z"/>
</g>
</svg>
