<?xml version="1.0" encoding="utf-8"?>
<!-- Generator: Adobe Illustrator 24.1.3, SVG Export Plug-In . SVG Version: 6.00 Build 0)  -->
<svg version="1.1" id="Layer_1" xmlns="http://www.w3.org/2000/svg" xmlns:xlink="http://www.w3.org/1999/xlink" x="0px" y="0px"
	 viewBox="0 0 300 80" style="enable-background:new 0 0 300 80;" xml:space="preserve">
<style type="text/css">
	.st0{fill:#FFFFFF;}
</style>
<g>
	<path class="st0" d="M109.5,77V41.2h12.2c3.6,0,9.6,0.5,14.2,4.9c4.2,4,5,9.2,5,13c0,4.7-1.2,8.9-4.7,12.4
		c-2.8,2.8-7.6,5.4-13.7,5.4H109.5z M118.8,69.1h1.9c2.3,0,5.4-0.2,7.8-2.6c1.2-1.1,2.7-3.4,2.7-7.4c0-3.3-1-6.2-2.8-7.8
		c-2.2-2-5.1-2.3-7.4-2.3h-2.3V69.1z"/>
	<path class="st0" d="M163,71h-13l-2.4,6h-9.8l13.7-35.8h10.1L175.1,77h-9.9L163,71z M160.5,63.9l-4-11.6l-3.9,11.6H160.5z"/>
	<path class="st0" d="M177.5,62l-12.9-20.8h11.1l6.8,12l6.5-12h11.3L186.8,62v15h-9.3V62z"/>
	<path class="st0" d="M99.8,38.8L105.9,3h9.2l7.2,19.1L130,3h9.3l5.4,35.8h-9.3l-2.6-20.6l-8.6,20.6h-3.7l-8.3-20.6L109,38.8H99.8z"
		/>
	<path class="st0" d="M177.2,21.6L164.3,3h11.1l6.8,9.8l6.5-9.8h11.3l-13.4,18.6v17.2h-9.3V21.6z"/>
	<g>
		<path class="st0" d="M160.6,3h-10.1l-6.6,17.2l2.8,18.4l2.3-5.8h13l2.2,6h9.9L160.6,3z M151.5,25.7l3.9-11.6l4,11.6H151.5z"/>
	</g>
</g>
</svg>
