<?xml version="1.0" encoding="utf-8"?>
<!-- Generator: Adobe Illustrator 24.2.1, SVG Export Plug-In . SVG Version: 6.00 Build 0)  -->
<svg version="1.1" id="Layer_1" xmlns="http://www.w3.org/2000/svg" xmlns:xlink="http://www.w3.org/1999/xlink" x="0px" y="0px"
	 viewBox="0 0 300 80" style="enable-background:new 0 0 300 80;" xml:space="preserve">
<style type="text/css">
	.st0{fill-rule:evenodd;clip-rule:evenodd;fill:#FFFFFF;}
</style>
<g>
	<path class="st0" d="M150,3c-38.1,0-69.5,28.8-73.5,65.8C76,73.3,79.7,77,84.2,77h8.2c0-31.8,25.8-57.6,57.6-57.6
		c31.8,0,57.6,25.8,57.6,57.6h8.2c4.5,0,8.3-3.7,7.8-8.2C219.5,31.8,188.1,3,150,3z"/>
	<path class="st0" d="M150,27.7c-27.2,0-49.3,22.1-49.3,49.3h16.4c0-18.2,14.7-32.9,32.9-32.9s32.9,14.7,32.9,32.9h16.4
		C199.3,49.8,177.2,27.7,150,27.7z"/>
	<path class="st0" d="M150,52.3c-13.6,0-24.7,11-24.7,24.7h12.3c2.3,0,4-2,5.1-3.9c1.4-2.6,4.1-4.3,7.2-4.3c3.1,0,5.8,1.7,7.2,4.3
		c1.1,2,2.8,3.9,5.1,3.9h12.3C174.7,63.4,163.6,52.3,150,52.3z"/>
</g>
</svg>
